<svg width="32" height="32" viewBox="0 0 32 32" fill="none" xmlns="http://www.w3.org/2000/svg">
<path d="M5.33365 26.6663C4.60032 26.6663 3.97277 26.4054 3.45099 25.8836C2.92833 25.3609 2.667 24.7329 2.667 23.9996V7.99966C2.667 7.26633 2.92833 6.63878 3.45099 6.117C3.97277 5.59434 4.60032 5.333 5.33365 5.333H26.6669C27.4002 5.333 28.0282 5.59434 28.5509 6.117C29.0727 6.63878 29.3336 7.26633 29.3336 7.99966V23.9996C29.3336 24.7329 29.0727 25.3609 28.5509 25.8836C28.0282 26.4054 27.4002 26.6663 26.6669 26.6663H5.33365ZM16.0003 17.0996C16.1114 17.0996 16.2278 17.0827 16.3496 17.049C16.4723 17.0161 16.5892 16.9663 16.7003 16.8996L26.1336 10.9996C26.3114 10.8885 26.4447 10.7499 26.5336 10.5837C26.6225 10.4165 26.6669 10.233 26.6669 10.033C26.6669 9.58854 26.478 9.25521 26.1002 9.03299C25.7225 8.81077 25.3336 8.82188 24.9336 9.06632L16.0003 14.6663L7.06698 9.06632C6.66698 8.82188 6.2781 8.8161 5.90032 9.04899C5.52254 9.28277 5.33365 9.61077 5.33365 10.033C5.33365 10.2552 5.3781 10.4494 5.46699 10.6157C5.55588 10.7828 5.68921 10.9108 5.86699 10.9996L15.3003 16.8996C15.4114 16.9663 15.5283 17.0161 15.651 17.049C15.7727 17.0827 15.8892 17.0996 16.0003 17.0996Z" fill="#E60062"/>
</svg>
