<svg width="899" height="462" viewBox="0 0 899 462" fill="none" xmlns="http://www.w3.org/2000/svg">
<rect y="0.386719" width="705" height="461.613" rx="50" fill="#E60062"/>
<path d="M796.131 281.037V390.178H650.925V281.037H687.226V244.657H759.829V281.037H796.131ZM705.377 281.037H741.679V262.847H705.377V281.037ZM777.98 335.608H759.829V353.798H741.679V335.608H705.377V353.798H687.226V335.608H669.076V371.988H777.98V335.608ZM777.98 299.227H669.076V317.417H777.98V299.227ZM727.64 226.467C722.535 220.688 716.485 216.235 709.489 213.108C702.494 209.982 695.073 208.371 687.226 208.277C679.664 208.277 672.621 209.698 666.098 212.54C659.575 215.382 653.808 219.266 648.798 224.193C643.787 229.119 639.864 234.946 637.028 241.673C634.192 248.399 632.774 255.457 632.774 262.847C632.774 271.563 630.836 279.758 626.96 287.432C623.084 295.106 617.601 301.548 610.511 306.759C614.765 308.938 618.736 311.449 622.422 314.291C626.109 317.133 629.56 320.354 632.774 323.954V371.988C632.774 364.503 631.356 357.445 628.52 350.813C625.684 344.182 621.808 338.402 616.892 333.476C611.976 328.549 606.162 324.618 599.45 321.681C592.738 318.744 585.696 317.323 578.322 317.417C570.759 317.417 563.716 318.839 557.193 321.681C550.67 324.523 544.904 328.407 539.893 333.334C534.883 338.26 530.96 344.087 528.124 350.813C525.288 357.54 523.87 364.598 523.87 371.988H505.719C505.719 365.072 506.664 358.393 508.555 351.95C510.446 345.508 513.14 339.397 516.638 333.618C520.135 327.839 524.389 322.723 529.4 318.27C534.41 313.817 539.988 309.98 546.133 306.759C539.137 301.643 533.701 295.248 529.825 287.574C525.949 279.9 523.964 271.658 523.87 262.847C523.87 255.363 525.288 248.304 528.124 241.673C530.96 235.041 534.836 229.262 539.751 224.335C544.667 219.409 550.434 215.477 557.051 212.54C563.669 209.603 570.759 208.182 578.322 208.277C587.019 208.277 595.196 210.219 602.854 214.103C610.511 217.987 616.939 223.482 622.139 230.588C625.731 223.482 630.316 217.135 635.894 211.545C641.471 205.955 647.852 201.313 655.037 197.618C648.042 192.502 642.606 186.107 638.73 178.433C634.854 170.759 632.869 162.517 632.774 153.706C632.774 146.222 634.192 139.164 637.028 132.532C639.864 125.9 643.74 120.121 648.656 115.194C653.572 110.268 659.339 106.336 665.956 103.399C672.573 100.462 679.664 99.041 687.226 99.1358C694.695 99.1358 701.738 100.557 708.355 103.399C714.972 106.241 720.739 110.126 725.655 115.052C730.571 119.979 734.494 125.805 737.425 132.532C740.355 139.258 741.773 146.316 741.679 153.706C741.679 162.422 739.741 170.617 735.865 178.291C731.989 185.965 726.506 192.408 719.416 197.618C725.844 200.839 731.658 204.866 736.857 209.698C742.057 214.529 746.453 220.119 750.045 226.467H727.64ZM578.322 299.227C583.332 299.227 588.012 298.28 592.36 296.385C596.709 294.49 600.585 291.885 603.988 288.569C607.391 285.253 609.991 281.416 611.787 277.058C613.583 272.7 614.529 267.963 614.623 262.847C614.623 257.826 613.678 253.136 611.787 248.778C609.897 244.42 607.297 240.536 603.988 237.125C600.679 233.714 596.851 231.109 592.502 229.309C588.153 227.509 583.427 226.561 578.322 226.467C573.311 226.467 568.632 227.414 564.283 229.309C559.935 231.204 556.059 233.809 552.655 237.125C549.252 240.441 546.653 244.278 544.856 248.636C543.06 252.994 542.115 257.731 542.02 262.847C542.02 267.868 542.966 272.558 544.856 276.916C546.747 281.274 549.347 285.158 552.655 288.569C555.964 291.98 559.793 294.585 564.142 296.385C568.49 298.185 573.217 299.133 578.322 299.227ZM650.925 153.706C650.925 158.727 651.87 163.417 653.761 167.775C655.652 172.133 658.251 176.018 661.56 179.428C664.869 182.839 668.697 185.444 673.046 187.244C677.395 189.044 682.121 189.992 687.226 190.086C692.237 190.086 696.916 189.139 701.265 187.244C705.613 185.349 709.489 182.744 712.893 179.428C716.296 176.112 718.896 172.275 720.692 167.917C722.488 163.559 723.433 158.822 723.528 153.706C723.528 148.685 722.583 143.995 720.692 139.637C718.801 135.279 716.201 131.395 712.893 127.984C709.584 124.574 705.755 121.968 701.407 120.168C697.058 118.368 692.331 117.421 687.226 117.326C682.216 117.326 677.537 118.273 673.188 120.168C668.839 122.063 664.963 124.668 661.56 127.984C658.157 131.3 655.557 135.137 653.761 139.495C651.965 143.853 651.019 148.59 650.925 153.706Z" fill="#F8F8F8"/>
</svg>
