<svg width="1377" height="525" viewBox="0 0 1377 525" fill="none" xmlns="http://www.w3.org/2000/svg">
<path d="M461.558 2.0012C461.558 0.895968 460.662 4.83109e-08 459.557 0C458.452 -4.83116e-08 457.556 0.895968 457.556 2.0012L461.558 2.0012ZM457.556 2.0012L457.556 521.016L461.558 521.016L461.558 2.0012L457.556 2.0012Z" fill="white" fill-opacity="0.7"/>
<path d="M921.408 2.0012C921.408 0.895968 920.512 -4.48594e-08 919.407 0C918.302 4.48588e-08 917.406 0.895968 917.406 2.0012L921.408 2.0012ZM917.406 2.0012L917.406 520.945L921.408 520.945L921.408 2.0012L917.406 2.0012Z" fill="white" fill-opacity="0.7"/>
<path d="M2.0012 520.899C0.895968 520.899 -1.04059e-07 521.795 0 522.9C1.04058e-07 524.005 0.895968 524.901 2.0012 524.901L2.0012 520.899ZM2.0012 524.901L1377 524.901L1377 520.899L2.0012 520.899L2.0012 524.901Z" fill="white" fill-opacity="0.7"/>
</svg>
