<svg width="56" height="126" viewBox="0 0 56 126" fill="none" xmlns="http://www.w3.org/2000/svg">
<g opacity="0.5">
<circle cx="27.6586" cy="27.6586" r="27.1586" transform="rotate(90 27.6586 27.6586)" stroke="white"/>
<path d="M28.3677 13.1202C27.9761 12.7285 27.3411 12.7285 26.9494 13.1202L20.567 19.5026C20.1754 19.8942 20.1754 20.5292 20.567 20.9209C20.9587 21.3126 21.5937 21.3126 21.9854 20.9209L27.6586 15.2477L33.3318 20.9209C33.7235 21.3126 34.3585 21.3126 34.7501 20.9209C35.1418 20.5292 35.1418 19.8942 34.7501 19.5026L28.3677 13.1202ZM28.6615 41.4879L28.6615 13.8294L26.6557 13.8294L26.6557 41.4879L28.6615 41.4879Z" fill="white"/>
</g>
<circle cx="27.6586" cy="98.3417" r="27.1586" transform="rotate(90 27.6586 98.3417)" stroke="white"/>
<path d="M26.9494 112.88C27.3411 113.272 27.9761 113.272 28.3677 112.88L34.7501 106.498C35.1418 106.106 35.1418 105.471 34.7501 105.08C34.3585 104.688 33.7235 104.688 33.3318 105.08L27.6586 110.753L21.9854 105.08C21.5937 104.688 20.9587 104.688 20.567 105.08C20.1754 105.471 20.1754 106.106 20.567 106.498L26.9494 112.88ZM26.6557 84.5125L26.6557 112.171L28.6615 112.171L28.6615 84.5125L26.6557 84.5125Z" fill="white"/>
</svg>
