<svg width="50" height="50" viewBox="0 0 50 50" fill="none" xmlns="http://www.w3.org/2000/svg">
<g clip-path="url(#clip0_1252_5488)">
<rect width="50" height="50" rx="10.8333" fill="#E60062" fill-opacity="0.2"/>
<path d="M25.0003 23.667C26.7684 23.667 28.4641 24.3694 29.7144 25.6196C30.9646 26.8699 31.667 28.5655 31.667 30.3337V38.3337H18.3337V30.3337C18.3337 28.5655 19.036 26.8699 20.2863 25.6196C21.5365 24.3694 23.2322 23.667 25.0003 23.667ZM16.051 27.675C15.8388 28.3907 15.7135 29.1293 15.6777 29.875L15.667 30.3337V38.3337H11.667V32.3337C11.6667 31.1838 12.091 30.0742 12.8585 29.2179C13.626 28.3616 14.6826 27.8188 15.8257 27.6937L16.051 27.675ZM33.9497 27.675C35.1362 27.7473 36.2505 28.2696 37.0651 29.1353C37.8798 30.001 38.3335 31.1449 38.3337 32.3337V38.3337H34.3337V30.3337C34.3337 29.4097 34.2003 28.5177 33.9497 27.675ZM16.3337 19.667C17.2177 19.667 18.0656 20.0182 18.6907 20.6433C19.3158 21.2684 19.667 22.1163 19.667 23.0003C19.667 23.8844 19.3158 24.7322 18.6907 25.3573C18.0656 25.9825 17.2177 26.3337 16.3337 26.3337C15.4496 26.3337 14.6018 25.9825 13.9766 25.3573C13.3515 24.7322 13.0003 23.8844 13.0003 23.0003C13.0003 22.1163 13.3515 21.2684 13.9766 20.6433C14.6018 20.0182 15.4496 19.667 16.3337 19.667ZM33.667 19.667C34.551 19.667 35.3989 20.0182 36.024 20.6433C36.6491 21.2684 37.0003 22.1163 37.0003 23.0003C37.0003 23.8844 36.6491 24.7322 36.024 25.3573C35.3989 25.9825 34.551 26.3337 33.667 26.3337C32.7829 26.3337 31.9351 25.9825 31.31 25.3573C30.6848 24.7322 30.3337 23.8844 30.3337 23.0003C30.3337 22.1163 30.6848 21.2684 31.31 20.6433C31.9351 20.0182 32.7829 19.667 33.667 19.667ZM25.0003 11.667C26.4148 11.667 27.7714 12.2289 28.7716 13.2291C29.7718 14.2293 30.3337 15.5858 30.3337 17.0003C30.3337 18.4148 29.7718 19.7714 28.7716 20.7716C27.7714 21.7718 26.4148 22.3337 25.0003 22.3337C23.5858 22.3337 22.2293 21.7718 21.2291 20.7716C20.2289 19.7714 19.667 18.4148 19.667 17.0003C19.667 15.5858 20.2289 14.2293 21.2291 13.2291C22.2293 12.2289 23.5858 11.667 25.0003 11.667Z" fill="#E60062"/>
</g>
<defs>
<clipPath id="clip0_1252_5488">
<rect width="50" height="50" rx="10.8333" fill="white"/>
</clipPath>
</defs>
</svg>
