<svg width="32" height="32" viewBox="0 0 32 32" fill="none" xmlns="http://www.w3.org/2000/svg">
<path d="M23.2747 16C23.2747 20.0177 20.0177 23.2747 16 23.2747C11.9823 23.2747 8.72525 20.0177 8.72525 16C8.72525 11.9823 11.9823 8.72525 16 8.72525C20.0177 8.72525 23.2747 11.9823 23.2747 16ZM17.9144 3.86406C23.1585 4.68819 27.3119 8.8415 28.1359 14.0856H32C31.125 6.72738 25.2726 0.875063 17.9144 0V3.86406ZM3.86406 14.0856C4.68813 8.8415 8.84144 4.68819 14.0856 3.86406V0C6.72731 0.875 0.875063 6.72737 0 14.0856H3.86406ZM28.1359 17.9144C27.3119 23.1586 23.1585 27.3119 17.9144 28.136V32C25.2726 31.125 31.125 25.2726 32 17.9144H28.1359ZM14.0856 28.136C8.84144 27.3119 4.68813 23.1585 3.86406 17.9144H0C0.875 25.2726 6.72731 31.125 14.0856 32V28.1359V28.136Z" fill="#E60062"/>
</svg>
