<svg width="22" height="23" viewBox="0 0 22 23" fill="none" xmlns="http://www.w3.org/2000/svg">
<path d="M12.0941 0.463705C12.6297 -0.361072 13.9078 -0.0186013 13.9593 0.963486L14.2953 7.37476C14.3183 7.81397 14.6215 8.1884 15.0463 8.30223L21.2476 9.96386C22.1976 10.2184 22.2668 11.5398 21.3487 11.8922L15.355 14.193C14.9444 14.3506 14.682 14.7547 14.705 15.1939L15.041 21.6051C15.0925 22.5872 13.8572 23.0614 13.2383 22.2971L9.19802 17.3078C8.92124 16.966 8.45586 16.8413 8.04526 16.9989L2.05161 19.2997C1.13349 19.6521 0.300773 18.6238 0.836391 17.799L4.33301 12.4147C4.57255 12.0458 4.54733 11.5647 4.27056 11.2229L0.23027 6.23355C-0.388626 5.46928 0.332043 4.35955 1.28197 4.61408L7.48328 6.27572C7.9081 6.38955 8.35791 6.21689 8.59744 5.84803L12.0941 0.463705Z" fill="white"/>
</svg>
