<svg width="240" height="240" viewBox="0 0 240 240" fill="none" xmlns="http://www.w3.org/2000/svg">
<path d="M120 190C119.994 178.19 122.979 166.571 128.676 156.225C134.373 145.88 142.596 137.145 152.579 130.836C162.563 124.526 173.981 120.847 185.77 120.141C197.559 119.436 209.335 121.726 220 126.8V60C220 49 211 40 200 40H40C29 40 20 49 20 60V180C20 191 29 200 40 200H120.8C120.3 196.7 120 193.4 120 190ZM40 60L120 110L200 60V80L120 130L40 80V60ZM173.4 220L138 184.6L152.1 170.5L173.3 191.7L215.7 149.3L230 163.4L173.4 220Z" fill="#F8F8F8"/>
</svg>
