<svg width="70" height="70" viewBox="0 0 70 70" fill="none" xmlns="http://www.w3.org/2000/svg">
<path d="M38.6748 30.625H44.5081V33.5417H38.6748V30.625Z" fill="#F8F8F8"/>
<path d="M58.333 11.6665H11.6663C10.1192 11.6665 8.63551 12.2811 7.54155 13.375C6.44759 14.469 5.83301 15.9527 5.83301 17.4998V52.4998C5.83301 54.0469 6.44759 55.5307 7.54155 56.6246C8.63551 57.7186 10.1192 58.3332 11.6663 58.3332H58.333C59.8801 58.3332 61.3638 57.7186 62.4578 56.6246C63.5518 55.5307 64.1663 54.0469 64.1663 52.4998V17.4998C64.1663 15.9527 63.5518 14.469 62.4578 13.375C61.3638 12.2811 59.8801 11.6665 58.333 11.6665ZM24.4997 43.7498L23.333 40.1623H17.6747L16.3913 43.7498H11.6663L18.083 26.2498H22.808L29.1663 43.7498H24.4997ZM48.883 33.5415C48.8949 34.1193 48.7899 34.6936 48.5743 35.2297C48.3586 35.7659 48.0368 36.253 47.6281 36.6616C47.2195 37.0703 46.7324 37.3921 46.1962 37.6078C45.6601 37.8234 45.0858 37.9284 44.508 37.9165H38.6747V43.7498H34.2997V26.2498H44.508C45.0858 26.2379 45.6601 26.3429 46.1962 26.5586C46.7324 26.7742 47.2195 27.0961 47.6281 27.5047C48.0368 27.9134 48.3586 28.4004 48.5743 28.9366C48.7899 29.4728 48.8949 30.047 48.883 30.6248V33.5415ZM58.333 43.7498H53.958V26.2498H58.333V43.7498Z" fill="#F8F8F8"/>
<path d="M18.7539 37.2459H22.1372L20.4456 32.6084L18.7539 37.2459Z" fill="#F8F8F8"/>
</svg>
