<svg width="60" height="60" viewBox="0 0 60 60" fill="none" xmlns="http://www.w3.org/2000/svg">
<g clip-path="url(#clip0_973_19394)">
<path d="M49.2432 35.0752L29.2701 33.6602C28.7671 33.6246 28.4897 34.2324 28.8463 34.589L44.4714 50.2141C47.8251 46.8604 50.2151 42.5432 51.1911 37.7135C51.4499 36.4325 50.5434 35.2079 49.2432 35.0752Z" fill="#212121"/>
<path d="M24.6094 35.3907L19.9935 13.5845C19.7712 12.5344 18.8443 11.8252 17.8301 11.8252C17.6105 11.8252 17.3868 11.8585 17.1653 11.9287C7.21277 15.0835 0 24.3943 0 35.3907C0 48.9821 11.018 60 24.6094 60C31.4051 60 37.5574 57.2455 42.0108 52.7921L24.6094 35.3907Z" fill="#212121"/>
<path d="M35.7026 0.00194587C34.688 -0.0107104 33.6874 0.0385084 32.7044 0.145618C31.4004 0.287649 30.5038 1.52421 30.7754 2.8073L35.1408 23.4297C35.2896 24.1326 35.8753 24.6588 36.5901 24.7318L57.5761 26.8733C58.8699 27.0053 59.9953 25.9924 59.9998 24.6919L59.9999 24.6672C60.031 11.1294 49.2393 0.17093 35.7026 0.00194587Z" fill="#212121"/>
</g>
<defs>
<clipPath id="clip0_973_19394">
<rect width="60" height="60" fill="white"/>
</clipPath>
</defs>
</svg>
