<svg width="25" height="25" viewBox="0 0 25 25" fill="none" xmlns="http://www.w3.org/2000/svg">
<path d="M1.53061 0C1.93656 0 2.32587 0.161261 2.61292 0.448306C2.89996 0.735352 3.06122 1.12467 3.06122 1.53061V21.4286C3.06122 21.7102 3.2898 21.9388 3.57143 21.9388H23.4694C23.8753 21.9388 24.2646 22.1 24.5517 22.3871C24.8387 22.6741 25 23.0634 25 23.4694C25 23.8753 24.8387 24.2646 24.5517 24.5517C24.2646 24.8387 23.8753 25 23.4694 25H3.57143C2.62423 25 1.71582 24.6237 1.04605 23.954C0.376275 23.2842 0 22.3758 0 21.4286V1.53061C0 1.12467 0.16126 0.735352 0.448306 0.448306C0.735351 0.161261 1.12467 0 1.53061 0ZM17.3469 7.65306C16.941 7.65306 16.5517 7.4918 16.2646 7.20476C15.9776 6.91771 15.8163 6.52839 15.8163 6.12245C15.8163 5.71651 15.9776 5.32719 16.2646 5.04014C16.5517 4.7531 16.941 4.59184 17.3469 4.59184H22.9592C23.3651 4.59184 23.7544 4.7531 24.0415 5.04014C24.3285 5.32719 24.4898 5.71651 24.4898 6.12245V11.8918C24.4898 12.2978 24.3285 12.6871 24.0415 12.9741C23.7544 13.2612 23.3651 13.4224 22.9592 13.4224C22.5532 13.4224 22.1639 13.2612 21.8769 12.9741C21.5898 12.6871 21.4286 12.2978 21.4286 11.8918V9.81633L15.3673 15.8776C15.0804 16.1642 14.6913 16.3252 14.2857 16.3252C13.8801 16.3252 13.4911 16.1642 13.2041 15.8776L10.2041 12.8776L8.22449 14.8571C7.93434 15.1275 7.55057 15.2747 7.15404 15.2677C6.7575 15.2607 6.37917 15.1001 6.09873 14.8196C5.8183 14.5392 5.65766 14.1609 5.65066 13.7643C5.64367 13.3678 5.79086 12.984 6.06122 12.6939L9.12245 9.63265C9.40944 9.34602 9.79847 9.18502 10.2041 9.18502C10.6097 9.18502 10.9987 9.34602 11.2857 9.63265L14.2857 12.6327L19.2653 7.65306H17.3469Z" fill="#E60062"/>
</svg>
