<svg width="216" height="216" viewBox="0 0 216 216" fill="none" xmlns="http://www.w3.org/2000/svg">
<rect x="18.7148" y="19.1006" width="178.504" height="178.504" rx="30" fill="#E60062" fill-opacity="0.2"/>
<path d="M62.9668 78.3525H63.0668M63.0668 78.3525H152.867C152.967 79.9225 152.967 81.8525 152.967 84.3375V132.368C152.967 137.958 152.967 140.753 151.877 142.888C150.918 144.772 149.386 146.303 147.502 147.263C145.367 148.353 142.572 148.353 136.982 148.353H78.9518C73.3618 148.353 70.5618 148.353 68.4268 147.263C66.5418 146.303 65.0168 144.773 64.0568 142.888C62.9668 140.753 62.9668 137.953 62.9668 132.353V84.3525C62.9668 81.8625 62.9668 79.9225 63.0668 78.3525ZM63.0668 78.3525C63.1818 76.3925 63.4518 75.0025 64.0568 73.8125C65.0168 71.9275 66.5418 70.4025 68.4268 69.4425C70.5668 68.3525 73.3668 68.3525 78.9668 68.3525H136.967C142.567 68.3525 145.367 68.3525 147.502 69.4425C149.387 70.4025 150.917 71.9275 151.877 73.8125C152.482 74.9975 152.752 76.3925 152.872 78.3525H152.967M117.967 103.353L127.967 113.353L117.967 123.353M97.9668 123.353L87.9668 113.353L97.9668 103.353" stroke="#E60062" stroke-width="6" stroke-linecap="round" stroke-linejoin="round"/>
<g clip-path="url(#clip0_1252_16014)">
<path d="M131.801 130.942C131.801 130.379 132.011 129.838 132.387 129.44C132.762 129.041 133.27 128.817 133.801 128.817H135.703C135.901 128.817 136.023 128.598 135.947 128.404C135.908 128.309 135.878 128.21 135.856 128.109C135.635 127.056 136.384 125.984 137.467 125.984C138.551 125.984 139.299 127.056 139.079 128.109C139.057 128.21 139.026 128.309 138.988 128.404C138.911 128.598 139.034 128.817 139.232 128.817H140.467C140.998 128.817 141.507 129.041 141.882 129.44C142.257 129.838 142.467 130.379 142.467 130.942V132.255C142.467 132.465 142.673 132.595 142.856 132.514C142.946 132.474 143.038 132.44 143.134 132.418C144.125 132.183 145.134 132.978 145.134 134.13C145.134 135.281 144.125 136.076 143.134 135.842C143.039 135.818 142.946 135.786 142.856 135.745C142.673 135.664 142.467 135.794 142.467 136.005V138.026C142.467 138.589 142.257 139.13 141.882 139.528C141.507 139.927 140.998 140.151 140.467 140.151H139.205C139.013 140.151 138.89 139.944 138.945 139.75C138.973 139.65 138.993 139.548 139.002 139.442C139.02 139.217 138.993 138.99 138.924 138.776C138.855 138.561 138.745 138.365 138.601 138.198C138.457 138.032 138.281 137.899 138.086 137.808C137.891 137.717 137.68 137.67 137.467 137.67C137.254 137.67 137.044 137.717 136.849 137.808C136.654 137.899 136.478 138.032 136.334 138.198C136.19 138.365 136.08 138.561 136.011 138.776C135.942 138.99 135.915 139.217 135.933 139.442C135.941 139.548 135.962 139.65 135.99 139.75C136.045 139.944 135.921 140.151 135.73 140.151H133.801C133.27 140.151 132.762 139.927 132.387 139.528C132.011 139.13 131.801 138.589 131.801 138.026V135.976C131.801 135.772 131.995 135.641 132.178 135.7C132.271 135.729 132.367 135.751 132.467 135.76C132.68 135.779 132.893 135.751 133.095 135.678C133.296 135.604 133.481 135.487 133.638 135.334C133.795 135.181 133.92 134.994 134.006 134.787C134.091 134.58 134.136 134.356 134.136 134.13C134.136 133.903 134.091 133.679 134.006 133.472C133.92 133.265 133.795 133.079 133.638 132.926C133.481 132.772 133.296 132.655 133.095 132.582C132.893 132.508 132.68 132.48 132.467 132.499C132.367 132.508 132.271 132.53 132.178 132.56C131.995 132.618 131.801 132.487 131.801 132.284V130.942Z" fill="#E60062"/>
</g>
<defs>
<clipPath id="clip0_1252_16014">
<rect width="16" height="17" fill="white" transform="translate(130.467 124.567)"/>
</clipPath>
</defs>
</svg>
