<svg width="120" height="120" viewBox="0 0 120 120" fill="none" xmlns="http://www.w3.org/2000/svg">
<path d="M44.625 72.3047H19.3125C23.8828 78.9141 31.4531 86.2969 43.8047 94.2891C48.8437 97.5469 54.5859 99.1641 60.3516 99.1641C60.8906 99.1641 61.4531 99.1406 61.9922 99.1172L49.2656 62.9297L44.625 72.3047Z" fill="#E60062"/>
<path d="M75.1875 70.7812L62.5312 99.0937C67.5234 98.7422 72.4688 97.125 76.8516 94.2891C87.2344 87.5625 94.1719 81.2813 98.7891 75.4922H77.5547L75.1875 70.7812Z" fill="#E60062"/>
<path d="M85.1953 63.1641L74.5547 41.9297L63.5625 66.5156L51.1172 31.1016L36.9375 59.9766H5.71875V69.0234H42.5859L49.7344 54.4687L62.5781 90.9609L75.0234 63.0938L79.5938 72.2109H114.281V63.1641H85.1953Z" fill="#FF73AF"/>
<path d="M34.8984 56.6953L51.6094 22.6406L63.9375 57.6797L74.3906 34.2656L87.2109 59.9063H106.781C107.484 56.9063 107.672 54.2109 107.672 51.8203C107.672 50.9766 107.625 50.1328 107.555 49.2891C107.508 49.2891 107.438 49.2891 107.391 49.2891L95.8359 49.3828C95.8359 49.3828 95.8359 49.3828 95.8125 49.3828C94.9219 49.3828 94.1719 48.6562 94.1719 47.7656C94.1719 46.8516 94.8984 46.125 95.7891 46.1016L107.086 46.0078C104.367 31.9688 92.0156 21.3516 77.1797 21.3516C70.9688 21.3516 65.2031 23.2031 60.3984 26.3906C55.4531 22.8984 49.4062 20.8359 42.8672 20.8359C26.0391 20.8359 12.3984 34.4766 12.3984 51.3047C12.3984 52.9453 12.4922 54.75 12.7734 56.6953H34.8984ZM88.2422 47.3672C88.2656 47.2734 88.2891 47.1562 88.3359 47.0625C88.3828 46.9688 88.4297 46.875 88.4766 46.7813C88.5469 46.6875 88.5938 46.6172 88.6875 46.5234C88.7578 46.4531 88.8516 46.3828 88.9453 46.3125C89.0391 46.2422 89.1328 46.1953 89.2266 46.1719C89.3203 46.125 89.4375 46.1016 89.5312 46.0781C89.7422 46.0313 89.9531 46.0313 90.1641 46.0781C90.2578 46.1016 90.375 46.125 90.4688 46.1719C90.5625 46.2188 90.6563 46.2656 90.75 46.3125C90.8438 46.3828 90.9141 46.4531 91.0078 46.5234C91.3125 46.8281 91.4766 47.25 91.4766 47.6719C91.4766 47.7891 91.4766 47.8828 91.4531 48C91.4297 48.0938 91.4062 48.2109 91.3594 48.3047C91.3125 48.3984 91.2656 48.4922 91.2188 48.5859C91.1484 48.6797 91.1016 48.75 91.0078 48.8437C90.9375 48.9141 90.8438 48.9844 90.75 49.0547C90.6563 49.125 90.5625 49.1719 90.4688 49.1953C90.375 49.2422 90.2578 49.2656 90.1641 49.2891C90.0469 49.3125 89.9531 49.3125 89.8359 49.3125C89.7188 49.3125 89.625 49.3125 89.5078 49.2891C89.4141 49.2656 89.2969 49.2422 89.2031 49.1953C89.1094 49.1484 89.0156 49.1016 88.9219 49.0547C88.8281 48.9844 88.7578 48.9375 88.6641 48.8437C88.5938 48.7734 88.5234 48.6797 88.4531 48.5859C88.3828 48.4922 88.3359 48.3984 88.3125 48.3047C88.2656 48.2109 88.2422 48.0938 88.2188 48C88.1953 47.8828 88.1953 47.7891 88.1953 47.6719C88.1953 47.5781 88.2188 47.4609 88.2422 47.3672Z" fill="#E60062"/>
</svg>
