<svg width="341" height="323" viewBox="0 0 341 323" fill="none" xmlns="http://www.w3.org/2000/svg">
<path d="M327.727 55.4802H13.273C5.94254 55.4802 0 61.4179 0 68.7425V259.187C0 266.512 5.94254 272.45 13.273 272.45H327.727C335.058 272.45 341 266.512 341 259.187V68.7425C341 61.4179 335.058 55.4802 327.727 55.4802Z" fill="#990163"/>
<path d="M319.127 77.3385H21.8755V239.597H319.127V77.3385Z" fill="white"/>
<path d="M11.9291 67.402V249.53H329.066V67.402H11.9291Z" fill="white"/>
<path d="M229.391 272.452H111.61V303.01H229.391V272.452Z" fill="#E5E6EB"/>
<path d="M246.866 322.521H94.1338L111.609 302.273H229.391L246.866 322.521Z" fill="#212121"/>
<path d="M294.751 37.0023H208.258C206.945 37.0023 205.686 37.5233 204.758 38.4509C203.829 39.3784 203.308 40.6364 203.308 41.9481V235.331C203.308 236.643 203.829 237.901 204.758 238.828C205.686 239.756 206.945 240.277 208.258 240.277H314.019C315.332 240.277 316.591 239.756 317.519 238.828C318.447 237.901 318.969 236.643 318.969 235.331V61.1899L294.751 37.0023Z" fill="#E5E6EB"/>
<path d="M233.488 115.246C233.526 115.214 233.554 115.172 233.568 115.124C233.582 115.077 233.581 115.026 233.566 114.979C233.551 114.932 233.522 114.89 233.483 114.86C233.443 114.829 233.396 114.811 233.347 114.808L230.278 114.363C230.236 114.358 230.197 114.342 230.163 114.318C230.13 114.294 230.103 114.262 230.085 114.224L228.711 111.437C228.692 111.392 228.661 111.353 228.62 111.326C228.579 111.299 228.531 111.284 228.482 111.284C228.433 111.284 228.385 111.299 228.344 111.326C228.303 111.353 228.272 111.392 228.253 111.437L226.88 114.217C226.862 114.254 226.834 114.287 226.801 114.311C226.767 114.335 226.728 114.35 226.686 114.355L223.618 114.8C223.568 114.804 223.521 114.822 223.482 114.852C223.442 114.883 223.413 114.924 223.398 114.971C223.383 115.019 223.382 115.069 223.396 115.117C223.41 115.164 223.438 115.207 223.476 115.238L225.704 117.4C225.735 117.428 225.757 117.464 225.77 117.504C225.783 117.544 225.786 117.586 225.778 117.627L225.254 120.681C225.242 120.729 225.244 120.779 225.261 120.825C225.278 120.872 225.308 120.912 225.348 120.941C225.388 120.97 225.436 120.986 225.485 120.988C225.534 120.99 225.583 120.977 225.625 120.951L228.369 119.509C228.407 119.487 228.45 119.476 228.493 119.476C228.537 119.476 228.579 119.487 228.617 119.509L231.357 120.958C231.399 120.984 231.447 120.997 231.496 120.995C231.546 120.994 231.593 120.977 231.633 120.948C231.673 120.919 231.703 120.879 231.72 120.833C231.737 120.787 231.74 120.736 231.728 120.689L231.203 117.634C231.195 117.593 231.198 117.551 231.211 117.511C231.224 117.471 231.247 117.435 231.277 117.407L233.488 115.246Z" fill="white"/>
<path d="M249.815 115.246C249.853 115.214 249.881 115.172 249.895 115.124C249.909 115.077 249.908 115.026 249.893 114.979C249.878 114.932 249.849 114.89 249.809 114.86C249.77 114.829 249.723 114.811 249.673 114.808L246.605 114.363C246.563 114.358 246.524 114.342 246.49 114.318C246.457 114.294 246.429 114.262 246.412 114.224L245.038 111.437C245.019 111.392 244.988 111.353 244.947 111.326C244.906 111.299 244.858 111.284 244.809 111.284C244.76 111.284 244.712 111.299 244.671 111.326C244.63 111.353 244.599 111.392 244.58 111.437L243.206 114.217C243.189 114.254 243.162 114.286 243.129 114.31C243.095 114.334 243.057 114.35 243.016 114.355L239.945 114.8C239.895 114.804 239.848 114.822 239.808 114.852C239.769 114.883 239.74 114.924 239.725 114.971C239.71 115.019 239.709 115.069 239.723 115.117C239.737 115.164 239.765 115.207 239.803 115.238L242.031 117.4C242.061 117.428 242.083 117.464 242.096 117.504C242.109 117.544 242.111 117.586 242.103 117.627L241.578 120.681C241.566 120.729 241.569 120.779 241.586 120.825C241.602 120.872 241.633 120.912 241.673 120.941C241.712 120.97 241.76 120.986 241.809 120.988C241.859 120.99 241.907 120.977 241.949 120.951L244.696 119.509C244.734 119.487 244.777 119.476 244.82 119.476C244.864 119.476 244.906 119.487 244.944 119.509L247.689 120.951C247.73 120.977 247.779 120.99 247.828 120.988C247.878 120.986 247.925 120.97 247.965 120.941C248.005 120.912 248.035 120.872 248.052 120.825C248.069 120.779 248.072 120.729 248.06 120.681L247.535 117.627C247.527 117.586 247.53 117.544 247.543 117.504C247.556 117.464 247.579 117.428 247.609 117.4L249.815 115.246Z" fill="white"/>
<path d="M266.141 115.246C266.18 115.214 266.208 115.172 266.221 115.124C266.235 115.077 266.235 115.026 266.22 114.979C266.204 114.932 266.175 114.89 266.136 114.86C266.097 114.829 266.05 114.811 266 114.808L262.931 114.363C262.89 114.358 262.851 114.342 262.817 114.318C262.783 114.294 262.756 114.262 262.738 114.224L261.365 111.437C261.346 111.392 261.314 111.353 261.274 111.326C261.233 111.299 261.185 111.284 261.136 111.284C261.087 111.284 261.039 111.299 260.998 111.326C260.957 111.353 260.925 111.392 260.907 111.437L259.536 114.217C259.517 114.253 259.489 114.285 259.456 114.309C259.422 114.333 259.383 114.349 259.343 114.355L256.274 114.8C256.224 114.803 256.176 114.821 256.137 114.851C256.097 114.882 256.068 114.923 256.052 114.97C256.037 115.018 256.036 115.068 256.05 115.116C256.064 115.164 256.092 115.207 256.13 115.238L258.358 117.4C258.388 117.428 258.41 117.464 258.423 117.504C258.435 117.544 258.438 117.586 258.429 117.627L257.907 120.681C257.896 120.729 257.899 120.778 257.915 120.824C257.932 120.87 257.962 120.91 258.002 120.939C258.041 120.968 258.088 120.984 258.137 120.986C258.186 120.988 258.234 120.976 258.276 120.951L261.023 119.509C261.061 119.487 261.103 119.476 261.147 119.476C261.19 119.476 261.233 119.487 261.271 119.509L264.015 120.951C264.057 120.977 264.106 120.99 264.155 120.988C264.204 120.986 264.252 120.97 264.292 120.941C264.332 120.912 264.362 120.872 264.379 120.825C264.396 120.779 264.398 120.729 264.387 120.681L263.862 117.627C263.856 117.586 263.859 117.544 263.872 117.505C263.885 117.465 263.907 117.429 263.936 117.4L266.141 115.246Z" fill="white"/>
<path d="M282.471 115.246C282.509 115.214 282.537 115.172 282.551 115.124C282.565 115.076 282.564 115.025 282.548 114.978C282.533 114.931 282.504 114.889 282.464 114.859C282.425 114.829 282.377 114.811 282.327 114.808L279.258 114.363C279.217 114.358 279.178 114.343 279.144 114.318C279.11 114.294 279.083 114.262 279.065 114.224L277.694 111.437C277.676 111.391 277.644 111.352 277.603 111.324C277.562 111.296 277.514 111.281 277.464 111.281C277.414 111.281 277.366 111.296 277.325 111.324C277.284 111.352 277.252 111.391 277.234 111.437L275.863 114.217C275.845 114.254 275.818 114.287 275.784 114.311C275.75 114.335 275.711 114.35 275.67 114.355L272.601 114.801C272.551 114.803 272.503 114.821 272.464 114.851C272.424 114.882 272.395 114.923 272.379 114.971C272.364 115.018 272.363 115.069 272.377 115.116C272.391 115.164 272.419 115.207 272.457 115.238L274.685 117.4C274.714 117.429 274.736 117.465 274.749 117.505C274.762 117.544 274.765 117.586 274.759 117.627L274.234 120.681C274.222 120.729 274.225 120.779 274.242 120.826C274.259 120.872 274.289 120.912 274.329 120.941C274.369 120.97 274.416 120.986 274.466 120.988C274.515 120.99 274.564 120.977 274.605 120.951L277.35 119.509C277.388 119.487 277.43 119.476 277.474 119.476C277.517 119.476 277.56 119.487 277.598 119.509L280.342 120.951C280.384 120.977 280.433 120.99 280.482 120.988C280.531 120.986 280.579 120.97 280.619 120.941C280.659 120.912 280.689 120.872 280.706 120.826C280.723 120.779 280.725 120.729 280.713 120.681L280.189 117.627C280.183 117.586 280.186 117.544 280.199 117.505C280.212 117.465 280.234 117.429 280.263 117.4L282.471 115.246Z" fill="white"/>
<path d="M298.798 115.246C298.837 115.214 298.865 115.172 298.878 115.124C298.892 115.076 298.892 115.025 298.876 114.978C298.86 114.931 298.831 114.889 298.792 114.859C298.752 114.829 298.704 114.811 298.655 114.808L295.586 114.363C295.545 114.357 295.506 114.341 295.473 114.317C295.439 114.293 295.412 114.261 295.393 114.224L294.022 111.437C294.003 111.391 293.972 111.352 293.931 111.324C293.89 111.296 293.841 111.281 293.791 111.281C293.742 111.281 293.693 111.296 293.652 111.324C293.611 111.352 293.58 111.391 293.561 111.437L292.19 114.217C292.172 114.254 292.145 114.287 292.111 114.311C292.078 114.335 292.038 114.35 291.997 114.355L288.928 114.801C288.879 114.804 288.831 114.822 288.792 114.852C288.753 114.883 288.724 114.924 288.709 114.972C288.694 115.019 288.693 115.069 288.707 115.117C288.721 115.165 288.749 115.207 288.787 115.238L291.015 117.4C291.044 117.429 291.066 117.465 291.079 117.505C291.092 117.544 291.095 117.586 291.089 117.627L290.564 120.681C290.552 120.729 290.555 120.779 290.572 120.826C290.589 120.872 290.619 120.912 290.659 120.941C290.699 120.97 290.746 120.986 290.796 120.988C290.845 120.99 290.894 120.977 290.935 120.951L293.68 119.509C293.718 119.487 293.76 119.476 293.804 119.476C293.847 119.476 293.89 119.487 293.928 119.509L296.672 120.951C296.714 120.977 296.763 120.99 296.812 120.988C296.861 120.986 296.909 120.97 296.949 120.941C296.989 120.912 297.019 120.872 297.036 120.826C297.053 120.779 297.055 120.729 297.043 120.681L296.521 117.627C296.513 117.586 296.515 117.544 296.528 117.504C296.54 117.464 296.563 117.428 296.593 117.4L298.798 115.246Z" fill="white"/>
<path d="M318.966 61.19H294.751V36.9974L318.966 61.19Z" fill="#FFDCEB"/>
<path d="M211.621 129.393H310.715" stroke="white" stroke-width="10" stroke-miterlimit="10"/>
<path d="M211.621 139.31H310.715" stroke="white" stroke-width="10" stroke-miterlimit="10"/>
<path d="M211.621 149.229H310.715" stroke="white" stroke-width="10" stroke-miterlimit="10"/>
<path d="M211.621 159.145H310.715" stroke="white" stroke-width="10" stroke-miterlimit="10"/>
<path d="M211.621 169.064H310.715" stroke="white" stroke-width="10" stroke-miterlimit="10"/>
<path d="M211.621 178.98H310.715" stroke="white" stroke-width="10" stroke-miterlimit="10"/>
<path d="M211.621 188.899H310.715" stroke="white" stroke-width="10" stroke-miterlimit="10"/>
<path d="M211.621 198.818H310.715" stroke="white" stroke-width="10" stroke-miterlimit="10"/>
<path d="M211.621 208.735H310.715" stroke="white" stroke-width="10" stroke-miterlimit="10"/>
<path d="M211.621 218.654H310.715" stroke="white" stroke-width="10" stroke-miterlimit="10"/>
<path d="M274.105 74.0915H310.715" stroke="white" stroke-width="10" stroke-miterlimit="10"/>
<path d="M274.105 84.01H310.715" stroke="white" stroke-width="10" stroke-miterlimit="10"/>
<path d="M274.105 93.9265H310.715" stroke="white" stroke-width="10" stroke-miterlimit="10"/>
<path d="M267.589 77.9938C267.591 83.5607 265.942 89.0034 262.848 93.6333C259.754 98.2633 255.356 101.873 250.21 104.005C245.063 106.137 239.399 106.696 233.934 105.611C228.47 104.527 223.45 101.847 219.509 97.9116C215.569 93.976 212.885 88.9612 211.797 83.5014C210.709 78.0416 211.266 72.382 213.398 67.2386C215.529 62.0952 219.139 57.6989 223.772 54.6058C228.404 51.5127 233.85 49.8618 239.422 49.8618C243.122 49.8533 246.788 50.5751 250.208 51.9857C253.629 53.3963 256.737 55.468 259.354 58.0818C261.971 60.6956 264.045 63.8001 265.459 67.2172C266.872 70.6342 267.596 74.2965 267.589 77.9938Z" fill="#990163"/>
<path d="M257.363 86.9555V99.691C252.315 103.86 245.97 106.141 239.42 106.141C232.87 106.141 226.525 103.86 221.477 99.691V86.9555L234.262 81.3493L238.717 79.3908L244.56 81.7648L257.363 86.9555Z" fill="#FFDCEB"/>
<path d="M245.983 68.1862V66.1559H232.866V68.1862C232.723 68.1858 232.58 68.2138 232.448 68.2685C232.315 68.3231 232.194 68.4034 232.093 68.5047C231.991 68.606 231.911 68.7263 231.856 68.8588C231.8 68.9913 231.772 69.1333 231.772 69.2767V73.3348C231.772 73.4782 231.8 73.6202 231.856 73.7527C231.911 73.8852 231.991 74.0055 232.093 74.1068C232.194 74.2081 232.315 74.2884 232.448 74.343C232.58 74.3977 232.723 74.4257 232.866 74.4253V75.5184C232.865 76.9867 233.36 78.4123 234.272 79.5641V84.2033C234.272 85.5688 234.815 86.8784 235.781 87.8439C236.747 88.8095 238.058 89.3519 239.425 89.3519C240.791 89.3519 242.102 88.8095 243.068 87.8439C244.035 86.8784 244.577 85.5688 244.577 84.2033V79.5641C245.488 78.4117 245.983 76.9865 245.983 75.5184V74.4253C246.127 74.4257 246.269 74.3977 246.401 74.343C246.534 74.2883 246.654 74.208 246.756 74.1067C246.857 74.0053 246.938 73.885 246.992 73.7525C247.047 73.62 247.075 73.4781 247.075 73.3348V69.2767C247.075 69.1334 247.047 68.9914 246.992 68.859C246.938 68.7265 246.857 68.6062 246.756 68.5048C246.654 68.4035 246.534 68.3232 246.401 68.2685C246.269 68.2138 246.127 68.1858 245.983 68.1862Z" fill="white"/>
<path d="M241.239 59.7533H237.608C234.801 59.7533 232.527 62.7381 232.527 66.4302V71.6233L233.502 66.4302C235.114 67.9182 237.229 68.7446 239.423 68.7446C241.618 68.7446 243.732 67.9182 245.345 66.4302L246.322 71.6233V66.4302C246.322 62.7455 244.045 59.7533 241.239 59.7533Z" fill="#212121"/>
<path d="M113.476 37.0023H26.9818C25.669 37.0023 24.41 37.5233 23.4817 38.4509C22.5534 39.3784 22.0319 40.6364 22.0319 41.9481V235.331C22.0319 236.643 22.5534 237.901 23.4817 238.828C24.41 239.756 25.669 240.277 26.9818 240.277H132.74C134.053 240.277 135.312 239.756 136.24 238.828C137.169 237.901 137.69 236.643 137.69 235.331V61.1899L113.476 37.0023Z" fill="#E5E6EB"/>
<path d="M52.2107 115.246C52.249 115.214 52.2769 115.172 52.2909 115.124C52.3049 115.077 52.3042 115.026 52.289 114.979C52.2738 114.932 52.2447 114.89 52.2056 114.86C52.1665 114.829 52.1191 114.811 52.0696 114.808L48.9982 114.363C48.9575 114.357 48.9187 114.342 48.8854 114.318C48.8521 114.293 48.8254 114.261 48.8077 114.224L47.4341 111.437C47.4154 111.392 47.3837 111.353 47.343 111.326C47.3022 111.299 47.2542 111.284 47.2052 111.284C47.1561 111.284 47.1081 111.299 47.0673 111.326C47.0266 111.353 46.9949 111.392 46.9762 111.437L45.6026 114.217C45.5847 114.254 45.5576 114.287 45.5238 114.311C45.4901 114.335 45.4508 114.35 45.4096 114.355L42.3407 114.8C42.2912 114.804 42.2438 114.822 42.2047 114.852C42.1656 114.883 42.1365 114.924 42.1213 114.971C42.1061 115.019 42.1054 115.069 42.1194 115.117C42.1333 115.164 42.1613 115.207 42.1996 115.238L44.427 117.4C44.4577 117.428 44.4805 117.464 44.4935 117.504C44.5065 117.544 44.5092 117.586 44.5013 117.627L43.9766 120.681C43.9647 120.729 43.9673 120.779 43.9842 120.825C44.0011 120.872 44.0314 120.912 44.0713 120.941C44.1111 120.97 44.1588 120.986 44.2081 120.988C44.2573 120.99 44.306 120.977 44.3478 120.951L47.0925 119.509C47.1302 119.487 47.1728 119.476 47.2163 119.476C47.2597 119.476 47.3024 119.487 47.34 119.509L50.0872 120.951C50.129 120.977 50.1777 120.99 50.227 120.988C50.2763 120.986 50.3239 120.97 50.3638 120.941C50.4037 120.912 50.434 120.872 50.4508 120.825C50.4677 120.779 50.4703 120.729 50.4584 120.681L49.9337 117.627C49.9255 117.586 49.9278 117.544 49.9404 117.504C49.9529 117.464 49.9753 117.428 50.0055 117.4L52.2107 115.246Z" fill="white"/>
<path d="M68.5386 115.246C68.5769 115.214 68.6048 115.172 68.6188 115.124C68.6328 115.077 68.6321 115.026 68.6169 114.979C68.6017 114.932 68.5727 114.89 68.5335 114.86C68.4944 114.829 68.447 114.811 68.3975 114.808L65.3286 114.363C65.2874 114.358 65.2481 114.342 65.2144 114.318C65.1806 114.294 65.1535 114.262 65.1355 114.224L63.762 111.437C63.7433 111.392 63.7116 111.353 63.6708 111.326C63.6301 111.299 63.5821 111.284 63.5331 111.284C63.484 111.284 63.436 111.299 63.3952 111.326C63.3545 111.353 63.3228 111.392 63.3041 111.437L61.9305 114.217C61.9125 114.254 61.8855 114.287 61.8517 114.311C61.818 114.335 61.7787 114.35 61.7375 114.355L58.6686 114.8C58.6191 114.804 58.5717 114.822 58.5326 114.852C58.4934 114.883 58.4644 114.924 58.4492 114.971C58.434 115.019 58.4333 115.069 58.4473 115.117C58.4612 115.164 58.4892 115.207 58.5275 115.238L60.7549 117.4C60.7856 117.428 60.8085 117.464 60.8214 117.504C60.8344 117.544 60.8371 117.586 60.8292 117.627L60.3045 120.681C60.2926 120.729 60.2952 120.779 60.3121 120.825C60.3289 120.872 60.3593 120.912 60.3992 120.941C60.439 120.97 60.4867 120.986 60.5359 120.988C60.5852 120.99 60.6339 120.977 60.6758 120.951L63.4204 119.509C63.458 119.487 63.5007 119.476 63.5442 119.476C63.5876 119.476 63.6303 119.487 63.6679 119.509L66.4151 120.951C66.4569 120.977 66.5056 120.99 66.5549 120.988C66.6041 120.986 66.6518 120.97 66.6917 120.941C66.7316 120.912 66.7619 120.872 66.7787 120.825C66.7956 120.779 66.7983 120.729 66.7863 120.681L66.2616 117.627C66.2537 117.586 66.2564 117.544 66.2694 117.504C66.2824 117.464 66.3053 117.428 66.3359 117.4L68.5386 115.246Z" fill="white"/>
<path d="M84.8655 115.246C84.9038 115.214 84.9318 115.172 84.9457 115.124C84.9597 115.077 84.9591 115.026 84.9439 114.979C84.9286 114.932 84.8996 114.89 84.8605 114.86C84.8213 114.829 84.774 114.811 84.7245 114.808L81.6555 114.363C81.6143 114.358 81.575 114.342 81.5413 114.318C81.5076 114.294 81.4805 114.262 81.4625 114.224L80.0889 111.437C80.0703 111.392 80.0386 111.353 79.9978 111.326C79.957 111.299 79.9091 111.284 79.86 111.284C79.8109 111.284 79.7629 111.299 79.7222 111.326C79.6814 111.353 79.6497 111.392 79.631 111.437L78.2574 114.217C78.2395 114.254 78.2124 114.287 78.1786 114.311C78.1449 114.335 78.1057 114.35 78.0644 114.355L74.9955 114.8C74.946 114.804 74.8986 114.822 74.8595 114.852C74.8204 114.883 74.7913 114.924 74.7761 114.971C74.7609 115.019 74.7603 115.069 74.7742 115.117C74.7882 115.164 74.8161 115.207 74.8544 115.238L77.0818 117.4C77.1125 117.428 77.1354 117.464 77.1484 117.504C77.1614 117.544 77.164 117.586 77.1561 117.627L76.6315 120.681C76.6195 120.729 76.6221 120.779 76.639 120.825C76.6559 120.872 76.6862 120.912 76.7261 120.941C76.766 120.97 76.8136 120.986 76.8629 120.988C76.9122 120.99 76.9609 120.977 77.0027 120.951L79.7473 119.509C79.785 119.487 79.8277 119.476 79.8711 119.476C79.9145 119.476 79.9572 119.487 79.9948 119.509L82.7396 120.951C82.7814 120.977 82.83 120.99 82.8793 120.988C82.9286 120.986 82.9762 120.97 83.0161 120.941C83.056 120.912 83.0863 120.872 83.1032 120.825C83.12 120.779 83.1227 120.729 83.1108 120.681L82.5861 117.627C82.5782 117.586 82.5809 117.544 82.5939 117.504C82.6069 117.464 82.6297 117.428 82.6603 117.4L84.8655 115.246Z" fill="white"/>
<path d="M101.192 115.246C101.231 115.214 101.259 115.172 101.273 115.124C101.287 115.077 101.286 115.026 101.271 114.979C101.256 114.932 101.227 114.89 101.187 114.86C101.148 114.829 101.101 114.811 101.051 114.808L97.9825 114.363C97.9413 114.358 97.902 114.342 97.8682 114.318C97.8345 114.294 97.8074 114.262 97.7894 114.224L96.4158 111.437C96.3972 111.392 96.3655 111.353 96.3247 111.326C96.284 111.299 96.236 111.284 96.1869 111.284C96.1378 111.284 96.0899 111.299 96.0491 111.326C96.0084 111.353 95.9766 111.392 95.958 111.437L94.5844 114.217C94.5667 114.254 94.5399 114.286 94.5067 114.31C94.4734 114.334 94.4346 114.35 94.3939 114.355L91.3224 114.8C91.2729 114.804 91.2255 114.822 91.1864 114.852C91.1473 114.883 91.1182 114.924 91.103 114.971C91.0878 115.019 91.0872 115.069 91.1012 115.117C91.1151 115.164 91.1431 115.207 91.1814 115.238L93.4088 117.4C93.439 117.428 93.4614 117.464 93.474 117.504C93.4865 117.544 93.4888 117.586 93.4806 117.627L92.9559 120.681C92.944 120.729 92.9466 120.779 92.9635 120.825C92.9803 120.872 93.0106 120.912 93.0505 120.941C93.0904 120.97 93.1381 120.986 93.1874 120.988C93.2367 120.99 93.2853 120.977 93.3271 120.951L96.0743 119.509C96.1119 119.487 96.1546 119.476 96.198 119.476C96.2415 119.476 96.2841 119.487 96.3218 119.509L99.0665 120.951C99.1083 120.977 99.157 120.99 99.2062 120.988C99.2555 120.986 99.3032 120.97 99.343 120.941C99.3829 120.912 99.4133 120.872 99.4302 120.825C99.447 120.779 99.4496 120.729 99.4377 120.681L98.9131 117.627C98.9052 117.586 98.9078 117.544 98.9208 117.504C98.9338 117.464 98.9566 117.428 98.9873 117.4L101.192 115.246Z" fill="white"/>
<path d="M117.509 115.246C117.548 115.214 117.576 115.172 117.59 115.124C117.604 115.077 117.603 115.026 117.588 114.979C117.572 114.932 117.543 114.89 117.504 114.86C117.465 114.829 117.418 114.811 117.368 114.808L114.299 114.363C114.258 114.358 114.219 114.343 114.185 114.318C114.151 114.294 114.124 114.262 114.106 114.224L112.745 111.437C112.727 111.391 112.695 111.352 112.654 111.324C112.613 111.296 112.565 111.281 112.515 111.281C112.465 111.281 112.417 111.296 112.376 111.324C112.335 111.352 112.303 111.391 112.285 111.437L110.914 114.217C110.895 114.254 110.867 114.285 110.834 114.309C110.8 114.333 110.761 114.349 110.721 114.355L107.652 114.801C107.602 114.803 107.554 114.821 107.515 114.851C107.475 114.882 107.446 114.923 107.43 114.971C107.415 115.018 107.414 115.069 107.428 115.116C107.442 115.164 107.47 115.207 107.508 115.238L109.736 117.4C109.766 117.428 109.788 117.464 109.801 117.504C109.813 117.544 109.816 117.586 109.807 117.627L109.285 120.681C109.273 120.729 109.276 120.779 109.293 120.826C109.31 120.872 109.34 120.912 109.38 120.941C109.42 120.97 109.467 120.986 109.517 120.988C109.566 120.99 109.615 120.977 109.656 120.951L112.401 119.509C112.439 119.487 112.481 119.476 112.525 119.476C112.568 119.476 112.611 119.487 112.649 119.509L115.393 120.951C115.435 120.977 115.484 120.99 115.533 120.988C115.582 120.986 115.63 120.97 115.67 120.941C115.71 120.912 115.74 120.872 115.757 120.826C115.774 120.779 115.776 120.729 115.764 120.681L115.24 117.627C115.234 117.586 115.237 117.544 115.25 117.505C115.263 117.465 115.285 117.429 115.314 117.4L117.509 115.246Z" fill="white"/>
<path d="M137.69 61.19H113.475V36.9974L137.69 61.19Z" fill="#FFDCEB"/>
<path d="M30.3455 129.393H129.439" stroke="white" stroke-width="10" stroke-miterlimit="10"/>
<path d="M30.3455 139.31H129.439" stroke="white" stroke-width="10" stroke-miterlimit="10"/>
<path d="M30.3455 149.229H129.439" stroke="white" stroke-width="10" stroke-miterlimit="10"/>
<path d="M30.3455 159.145H129.439" stroke="white" stroke-width="10" stroke-miterlimit="10"/>
<path d="M30.3455 169.064H129.439" stroke="white" stroke-width="10" stroke-miterlimit="10"/>
<path d="M30.3455 178.98H129.439" stroke="white" stroke-width="10" stroke-miterlimit="10"/>
<path d="M30.3455 188.899H129.439" stroke="white" stroke-width="10" stroke-miterlimit="10"/>
<path d="M30.3455 198.818H129.439" stroke="white" stroke-width="10" stroke-miterlimit="10"/>
<path d="M30.3455 208.735H129.439" stroke="white" stroke-width="10" stroke-miterlimit="10"/>
<path d="M30.3455 218.654H129.439" stroke="white" stroke-width="10" stroke-miterlimit="10"/>
<path d="M92.8295 74.0915H129.439" stroke="white" stroke-width="10" stroke-miterlimit="10"/>
<path d="M92.8295 84.01H129.439" stroke="white" stroke-width="10" stroke-miterlimit="10"/>
<path d="M92.8295 93.9265H129.439" stroke="white" stroke-width="10" stroke-miterlimit="10"/>
<path d="M86.3258 77.9963C86.3278 83.5626 84.6778 89.0045 81.5845 93.6339C78.4912 98.2632 74.0935 101.872 68.9475 104.004C63.8015 106.136 58.1384 106.696 52.6742 105.612C47.21 104.528 42.1901 101.85 38.2494 97.9151C34.3087 93.9807 31.624 88.967 30.535 83.5081C29.446 78.0492 30.0014 72.3902 32.1312 67.2467C34.2609 62.1032 37.8692 57.7062 42.4998 54.6117C47.1305 51.5172 52.5755 49.8643 58.1463 49.8618C61.8481 49.8511 65.5154 50.5713 68.9377 51.9811C72.36 53.3909 75.4698 55.4625 78.0884 58.0769C80.7069 60.6912 82.7827 63.7969 84.1964 67.2153C85.61 70.6337 86.3337 74.2976 86.3258 77.9963Z" fill="#990163"/>
<path d="M76.0863 86.9555V99.691C71.0378 103.86 64.6929 106.141 58.1431 106.141C51.5934 106.141 45.2484 103.86 40.1999 99.691V86.9555L52.9854 81.3469L53.8417 80.971L57.4501 79.3883L61.9792 81.2282L63.3083 81.7623L76.0863 86.9555Z" fill="#FFDCEB"/>
<path d="M58.1464 82.1875C63.2517 82.1875 67.3903 77.461 67.3903 71.6306C67.3903 65.8002 63.2517 61.0737 58.1464 61.0737C53.0412 61.0737 48.9026 65.8002 48.9026 71.6306C48.9026 77.461 53.0412 82.1875 58.1464 82.1875Z" fill="#212121"/>
<path d="M64.7048 68.1861V66.1583H51.5877V68.1861C51.298 68.1868 51.0204 68.3022 50.8158 68.5071C50.6112 68.7121 50.4962 68.9897 50.4962 69.2792V73.3348C50.4962 73.6242 50.6112 73.9019 50.8158 74.1068C51.0204 74.3117 51.298 74.4271 51.5877 74.4278V75.5208C51.5879 76.9889 52.0831 78.4142 52.9934 79.5665V84.2057C53.023 85.552 53.579 86.8332 54.5423 87.7749C55.5057 88.7166 56.7998 89.244 58.1475 89.244C59.4952 89.244 60.7893 88.7166 61.7526 87.7749C62.716 86.8332 63.272 85.552 63.3015 84.2057V79.5665C64.2112 78.4139 64.7055 76.9887 64.7048 75.5208V74.4278C64.9949 74.4278 65.2732 74.3126 65.4783 74.1076C65.6835 73.9027 65.7987 73.6247 65.7987 73.3348V69.2792C65.7987 68.9893 65.6835 68.7113 65.4783 68.5063C65.2732 68.3013 64.9949 68.1861 64.7048 68.1861Z" fill="white"/>
<path d="M58.1462 61.5093C56.8947 61.5211 55.6648 61.8368 54.5625 62.4292L54.5402 62.4416L54.4907 62.4663H54.4734C52.8325 63.3318 51.4639 64.4051 51.2981 66.8805C51.2981 66.9794 51.2981 67.0783 51.2981 67.1772C51.022 67.3657 50.7878 67.609 50.61 67.8919C50.0441 68.7698 49.6974 69.7708 49.5992 70.8105C49.501 71.8502 49.6542 72.8982 50.0458 73.8665C50.217 74.2199 50.3601 74.5862 50.4739 74.962C50.5303 75.1509 50.5471 75.3495 50.5233 75.5452C50.4994 75.7409 50.4354 75.9296 50.3353 76.0995C50.8901 75.8019 51.3687 75.3804 51.734 74.8679C52.0993 74.3554 52.3414 73.7656 52.4415 73.1444C52.7036 73.8063 52.8445 74.5099 52.8573 75.2216C52.7919 76.2123 52.4141 77.1568 51.7782 77.9196C51.1422 78.673 50.4288 79.3576 49.6498 79.9622C50.7822 79.5519 51.8139 78.9045 52.6756 78.0635C53.5374 77.2225 54.2094 76.2072 54.6467 75.0856C55.1689 73.7206 55.3198 72.2467 55.4881 70.7951C55.5785 69.8664 55.7289 68.9446 55.9386 68.0353C56.6687 68.1335 57.4046 68.1822 58.1413 68.1812C60.1905 68.1812 62.0194 67.8227 63.2223 67.2662C63.6235 67.7021 64.1373 68.0187 64.7072 68.1812L65.467 65.9185C65.467 65.9012 61.7695 61.5093 58.1462 61.5093Z" fill="#212121"/>
<path d="M204.112 0H117.618C116.305 0 115.046 0.521079 114.118 1.44861C113.19 2.37613 112.668 3.63413 112.668 4.94585V198.329C112.668 199.64 113.19 200.898 114.118 201.826C115.046 202.753 116.305 203.274 117.618 203.274H223.377C224.69 203.274 225.949 202.753 226.877 201.826C227.805 200.898 228.327 199.64 228.327 198.329V24.1926L204.112 0Z" fill="#E60062"/>
<path d="M142.848 78.2458C142.886 78.2141 142.913 78.172 142.926 78.1249C142.94 78.0777 142.939 78.0276 142.924 77.981C142.908 77.9343 142.88 77.8932 142.841 77.8629C142.803 77.8325 142.756 77.8144 142.707 77.8106L139.638 77.363C139.597 77.358 139.558 77.3426 139.524 77.3184C139.49 77.2942 139.463 77.2619 139.445 77.2245L138.074 74.4449C138.056 74.3988 138.024 74.3592 137.983 74.3314C137.942 74.3035 137.893 74.2885 137.844 74.2885C137.794 74.2885 137.746 74.3035 137.705 74.3314C137.664 74.3592 137.632 74.3988 137.614 74.4449L136.243 77.2245C136.225 77.2619 136.198 77.2942 136.164 77.3184C136.13 77.3426 136.091 77.358 136.05 77.363L132.981 77.8106C132.931 77.8139 132.884 77.8318 132.846 77.862C132.807 77.8921 132.778 77.9332 132.762 77.9799C132.747 78.0267 132.746 78.0769 132.759 78.1243C132.772 78.1717 132.8 78.214 132.837 78.2458L135.064 80.4096C135.094 80.4382 135.116 80.4737 135.129 80.513C135.142 80.5523 135.144 80.5942 135.136 80.6347L134.614 83.6887C134.602 83.7365 134.605 83.7868 134.622 83.8331C134.639 83.8794 134.669 83.9196 134.709 83.9486C134.749 83.9775 134.796 83.9939 134.846 83.9957C134.895 83.9974 134.944 83.9844 134.985 83.9583L137.73 82.5166C137.768 82.4949 137.81 82.4834 137.854 82.4834C137.897 82.4834 137.94 82.4949 137.977 82.5166L140.722 83.9583C140.764 83.9844 140.813 83.9974 140.862 83.9957C140.911 83.9939 140.959 83.9775 140.999 83.9486C141.039 83.9196 141.069 83.8794 141.086 83.8331C141.103 83.7868 141.105 83.7365 141.093 83.6887L140.569 80.6347C140.563 80.594 140.566 80.5524 140.579 80.5133C140.592 80.4742 140.614 80.4387 140.643 80.4096L142.848 78.2458Z" fill="white"/>
<path d="M159.178 78.2458C159.215 78.214 159.242 78.1717 159.256 78.1243C159.269 78.0769 159.268 78.0267 159.252 77.9799C159.237 77.9332 159.208 77.8921 159.169 77.862C159.13 77.8318 159.083 77.8139 159.034 77.8106L155.965 77.363C155.924 77.358 155.885 77.3426 155.851 77.3184C155.817 77.2942 155.79 77.2619 155.772 77.2245L154.401 74.4449C154.383 74.3988 154.351 74.3592 154.31 74.3314C154.269 74.3035 154.22 74.2885 154.171 74.2885C154.121 74.2885 154.073 74.3035 154.032 74.3314C153.991 74.3592 153.959 74.3988 153.941 74.4449L152.569 77.2245C152.552 77.2619 152.524 77.2942 152.491 77.3184C152.457 77.3426 152.418 77.358 152.376 77.363L149.308 77.8106C149.258 77.8139 149.211 77.8318 149.173 77.862C149.134 77.8921 149.105 77.9332 149.089 77.9799C149.074 78.0267 149.073 78.0769 149.086 78.1243C149.099 78.1717 149.126 78.214 149.164 78.2458L151.391 80.4096C151.421 80.4387 151.443 80.4742 151.455 80.5133C151.468 80.5524 151.472 80.594 151.466 80.6347L150.941 83.6887C150.929 83.7365 150.932 83.7868 150.949 83.8331C150.965 83.8794 150.996 83.9196 151.036 83.9486C151.076 83.9775 151.123 83.9939 151.172 83.9957C151.222 83.9974 151.27 83.9844 151.312 83.9583L154.057 82.5166C154.095 82.4949 154.137 82.4834 154.181 82.4834C154.224 82.4834 154.267 82.4949 154.304 82.5166L157.049 83.9583C157.091 83.9844 157.14 83.9974 157.189 83.9957C157.238 83.9939 157.286 83.9775 157.326 83.9486C157.366 83.9196 157.396 83.8794 157.413 83.8331C157.43 83.7868 157.432 83.7365 157.42 83.6887L156.896 80.6347C156.889 80.594 156.893 80.5524 156.906 80.5133C156.919 80.4742 156.941 80.4387 156.97 80.4096L159.178 78.2458Z" fill="white"/>
<path d="M175.505 78.2457C175.542 78.2139 175.569 78.1715 175.583 78.1242C175.596 78.0768 175.595 78.0265 175.58 77.9798C175.564 77.9331 175.535 77.892 175.496 77.8618C175.457 77.8316 175.41 77.8138 175.361 77.8105L172.292 77.3629C172.251 77.3578 172.212 77.3425 172.178 77.3183C172.144 77.2941 172.117 77.2618 172.099 77.2244L170.721 74.4448C170.702 74.3995 170.67 74.3607 170.63 74.3334C170.589 74.3061 170.541 74.2915 170.492 74.2915C170.443 74.2915 170.395 74.3061 170.354 74.3334C170.313 74.3607 170.281 74.3995 170.263 74.4448L168.889 77.2244C168.871 77.2618 168.844 77.2941 168.81 77.3183C168.777 77.3425 168.737 77.3578 168.696 77.3629L165.627 77.8105C165.578 77.8142 165.532 77.8324 165.493 77.8627C165.455 77.8931 165.426 77.9342 165.411 77.9808C165.396 78.0275 165.395 78.0776 165.408 78.1247C165.422 78.1719 165.449 78.214 165.486 78.2457L167.714 80.4095C167.743 80.4386 167.765 80.4741 167.778 80.5132C167.791 80.5523 167.794 80.5938 167.788 80.6345L167.256 83.6886C167.244 83.7364 167.247 83.7867 167.263 83.833C167.28 83.8793 167.311 83.9195 167.35 83.9484C167.39 83.9774 167.438 83.9938 167.487 83.9955C167.537 83.9973 167.585 83.9842 167.627 83.9582L170.372 82.5164C170.409 82.4947 170.452 82.4833 170.496 82.4833C170.539 82.4833 170.582 82.4947 170.619 82.5164L173.366 83.9582C173.408 83.9834 173.457 83.9958 173.505 83.9937C173.554 83.9915 173.601 83.975 173.641 83.9462C173.68 83.9174 173.71 83.8775 173.727 83.8317C173.744 83.7858 173.747 83.7361 173.735 83.6886L173.213 80.6345C173.205 80.594 173.208 80.5522 173.22 80.5129C173.233 80.4736 173.255 80.4381 173.285 80.4095L175.505 78.2457Z" fill="white"/>
<path d="M191.832 78.2457C191.87 78.214 191.897 78.1719 191.91 78.1247C191.924 78.0776 191.923 78.0275 191.908 77.9808C191.892 77.9342 191.864 77.8931 191.825 77.8627C191.787 77.8324 191.74 77.8142 191.691 77.8105L188.62 77.3629C188.579 77.3574 188.54 77.3419 188.507 77.3177C188.473 77.2936 188.447 77.2615 188.429 77.2244L187.055 74.4448C187.037 74.3995 187.005 74.3607 186.964 74.3334C186.924 74.3061 186.876 74.2915 186.827 74.2915C186.777 74.2915 186.73 74.3061 186.689 74.3334C186.648 74.3607 186.616 74.3995 186.598 74.4448L185.224 77.2244C185.206 77.2618 185.179 77.2941 185.145 77.3183C185.111 77.3425 185.072 77.3578 185.031 77.3629L181.962 77.8105C181.913 77.8142 181.866 77.8324 181.828 77.8627C181.789 77.8931 181.761 77.9342 181.746 77.9808C181.73 78.0275 181.73 78.0776 181.743 78.1247C181.756 78.1719 181.784 78.214 181.821 78.2457L184.048 80.4095C184.079 80.4378 184.101 80.4732 184.114 80.5126C184.127 80.5519 184.13 80.5938 184.123 80.6345L183.591 83.6886C183.579 83.7364 183.581 83.7867 183.598 83.833C183.615 83.8793 183.645 83.9195 183.685 83.9484C183.725 83.9774 183.773 83.9938 183.822 83.9955C183.871 83.9973 183.92 83.9842 183.962 83.9582L186.707 82.5164C186.744 82.4947 186.787 82.4833 186.83 82.4833C186.874 82.4833 186.916 82.4947 186.954 82.5164L189.701 83.9582C189.743 83.9842 189.792 83.9973 189.841 83.9955C189.89 83.9938 189.938 83.9774 189.978 83.9484C190.018 83.9195 190.048 83.8793 190.065 83.833C190.082 83.7867 190.084 83.7364 190.072 83.6886L189.53 80.6345C189.523 80.5938 189.526 80.5519 189.539 80.5126C189.552 80.4732 189.574 80.4378 189.605 80.4095L191.832 78.2457Z" fill="white"/>
<path d="M208.158 78.2457C208.196 78.214 208.223 78.1719 208.236 78.1247C208.25 78.0776 208.249 78.0275 208.234 77.9808C208.219 77.9342 208.19 77.8931 208.152 77.8627C208.113 77.8324 208.066 77.8142 208.017 77.8105L204.948 77.3629C204.907 77.3578 204.868 77.3425 204.834 77.3183C204.8 77.2941 204.773 77.2618 204.755 77.2244L203.389 74.4448C203.371 74.3995 203.339 74.3607 203.298 74.3334C203.257 74.3061 203.209 74.2915 203.16 74.2915C203.111 74.2915 203.063 74.3061 203.023 74.3334C202.982 74.3607 202.95 74.3995 202.931 74.4448L201.558 77.2244C201.54 77.2618 201.513 77.2941 201.479 77.3183C201.445 77.3425 201.406 77.3578 201.365 77.3629L198.296 77.8105C198.247 77.8142 198.2 77.8324 198.162 77.8627C198.123 77.8931 198.094 77.9342 198.079 77.9808C198.064 78.0275 198.063 78.0776 198.077 78.1247C198.09 78.1719 198.117 78.214 198.155 78.2457L200.382 80.4095C200.412 80.4378 200.435 80.4732 200.448 80.5126C200.461 80.5519 200.464 80.5938 200.456 80.6345L199.924 83.6886C199.912 83.7364 199.915 83.7867 199.932 83.833C199.949 83.8793 199.979 83.9195 200.019 83.9484C200.059 83.9774 200.107 83.9938 200.156 83.9955C200.205 83.9973 200.254 83.9842 200.296 83.9582L203.04 82.5164C203.078 82.4947 203.121 82.4833 203.164 82.4833C203.207 82.4833 203.25 82.4947 203.288 82.5164L206.032 83.9582C206.074 83.9842 206.123 83.9973 206.172 83.9955C206.222 83.9938 206.269 83.9774 206.309 83.9484C206.349 83.9195 206.379 83.8793 206.396 83.833C206.413 83.7867 206.416 83.7364 206.404 83.6886L205.864 80.6345C205.857 80.5938 205.86 80.5519 205.873 80.5126C205.886 80.4732 205.908 80.4378 205.938 80.4095L208.158 78.2457Z" fill="white"/>
<path d="M228.327 24.1902H204.114V0L228.327 24.1902Z" fill="#990163"/>
<path d="M120.982 92.3935H220.076" stroke="white" stroke-width="10" stroke-miterlimit="10"/>
<path d="M120.982 102.312H220.076" stroke="white" stroke-width="10" stroke-miterlimit="10"/>
<path d="M120.982 112.229H220.076" stroke="white" stroke-width="10" stroke-miterlimit="10"/>
<path d="M120.982 122.148H220.076" stroke="white" stroke-width="10" stroke-miterlimit="10"/>
<path d="M120.982 132.064H220.076" stroke="white" stroke-width="10" stroke-miterlimit="10"/>
<path d="M120.982 141.983H220.076" stroke="white" stroke-width="10" stroke-miterlimit="10"/>
<path d="M120.982 151.899H220.076" stroke="white" stroke-width="10" stroke-miterlimit="10"/>
<path d="M120.982 161.818H220.076" stroke="white" stroke-width="10" stroke-miterlimit="10"/>
<path d="M120.982 171.735H220.076" stroke="white" stroke-width="10" stroke-miterlimit="10"/>
<path d="M120.982 181.654H220.076" stroke="white" stroke-width="10" stroke-miterlimit="10"/>
<path d="M183.466 37.0937H220.075" stroke="white" stroke-width="10" stroke-miterlimit="10"/>
<path d="M183.466 47.0102H220.075" stroke="white" stroke-width="10" stroke-miterlimit="10"/>
<path d="M183.466 56.9291H220.075" stroke="white" stroke-width="10" stroke-miterlimit="10"/>
<path d="M176.953 40.9936C176.953 46.5601 175.301 52.0018 172.207 56.6304C169.112 61.2591 164.713 64.8668 159.566 66.9973C154.419 69.1279 148.756 69.6856 143.292 68.5999C137.828 67.5143 132.809 64.834 128.869 60.898C124.93 56.962 122.247 51.9472 121.16 46.4877C120.073 41.0281 120.63 35.3691 122.762 30.2263C124.894 25.0834 128.504 20.6877 133.136 17.5951C137.768 14.5024 143.214 12.8517 148.785 12.8517C152.487 12.8432 156.153 13.5653 159.574 14.9766C162.995 16.3878 166.103 18.4603 168.721 21.0752C171.338 23.6901 173.412 26.7958 174.825 30.2139C176.238 33.6321 176.961 37.2954 176.953 40.9936Z" fill="#990163"/>
<path d="M166.726 49.9605V62.6911C161.677 66.8605 155.332 69.1414 148.783 69.1414C142.233 69.1414 135.888 66.8605 130.839 62.6911V49.9605L143.625 44.3544L148.08 42.3958L153.923 44.7699L166.726 49.9605Z" fill="#FFDCEB"/>
<path d="M155.344 31.1861V27.8229L142.227 27.6993V31.1861C141.937 31.1861 141.658 31.3012 141.453 31.5062C141.248 31.7112 141.133 31.9892 141.133 32.2791V36.3347C141.133 36.6246 141.248 36.9026 141.453 37.1076C141.658 37.3126 141.937 37.4278 142.227 37.4278V38.5208C142.226 39.9891 142.721 41.4147 143.632 42.5665V47.2057C143.632 48.5712 144.175 49.8808 145.142 50.8463C146.108 51.8119 147.419 52.3543 148.785 52.3543C150.152 52.3543 151.462 51.8119 152.429 50.8463C153.395 49.8808 153.938 48.5712 153.938 47.2057V42.5665C154.849 41.4147 155.345 39.9891 155.344 38.5208V37.4278C155.634 37.4278 155.912 37.3126 156.117 37.1076C156.322 36.9026 156.438 36.6246 156.438 36.3347V32.2791C156.438 31.9892 156.322 31.7112 156.117 31.5062C155.912 31.3012 155.634 31.1861 155.344 31.1861Z" fill="white"/>
<path d="M151.401 23.2581C149.535 22.6843 147.892 22.62 146.172 23.2581C143.353 24.2992 141.2 26.5297 141.848 29.4626L142.605 34.8585C142.605 34.8585 147.36 29.0224 153.173 29.151L155.153 34.8585L155.723 29.4626C156.366 26.5297 154.275 24.1434 151.401 23.2581Z" fill="#212121"/>
<path d="M110.644 167.18C107.28 167.256 103.924 167.308 100.596 167.281C97.2668 167.254 93.9603 167.167 90.733 166.905C87.5947 166.681 84.4814 166.189 81.4272 165.434C78.5678 164.713 75.816 163.619 73.2426 162.179C70.6962 160.683 68.3225 158.911 66.1644 156.895C63.8853 154.769 61.7318 152.512 59.7147 150.136C59.1975 149.523 58.6728 148.934 58.1629 148.304L56.6285 146.429C55.6162 145.151 54.6015 143.887 53.6041 142.574C51.5994 139.982 49.6245 137.312 47.6643 134.629C45.0929 131.285 39.9475 130.949 36.3465 133.956C32.7529 136.958 32.1762 142.117 35.1486 145.277C37.5493 147.713 39.9648 150.146 42.462 152.557C43.6995 153.766 44.979 154.961 46.2462 156.158L48.1964 157.936C48.8399 158.529 49.5279 159.11 50.1912 159.697C52.9205 162.096 55.7889 164.332 58.7817 166.393C61.911 168.552 65.2702 170.358 68.7977 171.777C72.3592 173.135 76.0836 174.02 79.8755 174.41C83.4677 174.763 87.0834 174.81 90.6835 174.549C94.1905 174.326 97.6133 173.916 101.006 173.448C104.4 172.981 107.751 172.44 111.089 171.876C112.22 171.69 113.005 170.58 112.884 169.338C112.76 168.09 111.78 167.147 110.644 167.18Z" fill="#EA8096"/>
<path d="M48.6818 163.985L35.4854 149.095C31.4958 144.592 31.486 137.858 35.9928 133.869C40.4996 129.881 47.8155 130.16 51.8076 134.653L65.0039 149.543L48.6818 163.985Z" fill="#FF2D86"/>
<path d="M52.2751 134.241C48.4786 129.955 41.6651 129.181 36.7697 132.48C36.3521 132.76 35.9536 133.067 35.5768 133.4C33.5178 135.205 32.23 137.73 31.9783 140.455L32.6613 139.993C33.0082 137.622 34.1892 135.452 35.9926 133.872C40.4994 129.881 47.8178 130.15 51.8074 134.654L52.1539 135.044L52.6662 134.683L52.2751 134.241ZM58.106 140.819L57.5838 141.17L65.0087 149.543L58.4228 155.369L58.7767 155.891L65.8922 149.597L58.106 140.819ZM37.1509 150.977L36.6286 151.329L48.6271 164.865L51.4485 162.37L51.0946 161.848L48.6815 163.985L37.1509 150.977Z" fill="white"/>
<path d="M54.8942 322.522H76.3815C76.4036 321.804 76.1916 321.098 75.7776 320.511C75.2678 319.851 74.4411 319.507 73.6219 319.364C72.8027 319.22 71.9588 319.262 71.1297 319.22C69.0814 319.118 67.0849 318.541 65.2988 317.534C64.3707 317.012 63.502 316.372 62.4996 316.008L56.6439 316.161C55.8494 317.054 55.3092 318.144 55.0798 319.317C54.8708 320.372 54.8083 321.45 54.8942 322.522Z" fill="#990163"/>
<path d="M13.0453 322.522H34.5326C34.5572 321.804 34.3451 321.097 33.9287 320.511C33.4338 319.851 32.5947 319.507 31.7755 319.364C30.9563 319.22 30.1124 319.262 29.2808 319.22C27.2333 319.118 25.2378 318.541 23.4524 317.534C22.5243 317.012 21.6556 316.372 20.6532 316.008L14.7975 316.161C14.0036 317.055 13.4628 318.144 13.2309 319.317C13.0244 320.372 12.962 321.45 13.0453 322.522Z" fill="#990163"/>
<path d="M63.6328 316.057L61.2989 249.894C61.2989 249.894 61.2197 248.707 61.19 248.529L55.4655 202.607C55.0745 196.845 9.25118 205.983 9.25118 205.983L14.3842 316.248L21.9624 316L32.6516 225.961L45.4891 251.358L55.8838 316.24L63.6328 316.057Z" fill="#FFDCEB"/>
<path d="M28.293 127.87C31.0472 127.452 33.8584 127.609 36.5486 128.333C39.2387 129.056 41.7491 130.33 43.9208 132.074C46.0925 133.817 47.8781 135.992 49.1645 138.462C50.4509 140.931 51.2101 143.64 51.394 146.417L55.4653 202.617C37.329 212.845 26.0681 210.38 9.25092 205.993L7.35019 153.136C7.13007 147.091 9.14245 141.176 13.0042 136.517C16.8661 131.858 22.3076 128.78 28.293 127.87Z" fill="#FF2D86"/>
<path d="M7.54353 158.438H6.91736L7.83803 184.112H8.46667L7.54353 158.438ZM54.7899 184.597L54.1637 184.644L55.4655 202.607C38.2821 212.296 27.2687 210.594 11.8548 206.655L11.8771 207.305C19.1311 209.155 25.0313 210.406 31.1815 210.406C39.2894 210.406 46.8751 208.181 55.77 203.151L56.1164 202.958L54.7899 184.597ZM31.3523 127.64C36.4515 127.648 41.3576 129.589 45.079 133.073C48.8003 136.556 51.0593 141.321 51.3992 146.405L52.6367 163.611H53.2629L52.0254 146.365C51.8343 143.502 51.05 140.71 49.7223 138.165C48.3946 135.621 46.5523 133.38 44.3124 131.584C42.0724 129.788 39.4835 128.477 36.7098 127.734C33.9361 126.99 31.038 126.83 28.1993 127.264L27.9765 127.299L27.9295 127.942L28.2933 127.882C29.3055 127.725 30.328 127.644 31.3523 127.64Z" fill="white"/>
<path d="M12.9634 243.841C12.0824 243.075 11.5416 241.991 11.4599 240.827C11.3782 239.663 11.7623 238.515 12.5278 237.634L84.6596 154.813L91.3072 160.582L19.1755 243.406C18.4092 244.286 17.3244 244.826 16.1596 244.908C14.9948 244.989 13.8452 244.606 12.9634 243.841Z" fill="#FF73AF"/>
<path d="M99.6527 167.778L76.3853 147.582L70.2502 154.639L93.5176 174.835L99.6527 167.778Z" fill="#89939E"/>
<path d="M167.392 66.3713C141.43 43.833 101.957 46.6002 79.4005 72.5536C56.844 98.5069 59.6134 137.935 85.5878 160.476C111.562 183.017 151.022 180.245 173.579 154.294C196.135 128.343 193.356 88.9095 167.392 66.3713ZM90.3891 154.929C67.4812 135.044 65.036 100.243 84.9443 77.3535C104.853 54.4641 139.675 52.0184 162.585 71.9131C185.496 91.8078 187.938 126.602 168.03 149.491C148.122 172.381 113.302 174.816 90.3891 154.929Z" fill="#FF73AF"/>
<path opacity="0.5" d="M165.402 152.302C186.894 130.827 186.894 96.0088 165.402 74.5337C143.909 53.0586 109.063 53.0586 87.5708 74.5337C66.0783 96.0088 66.0783 130.827 87.5708 152.302C109.063 173.777 143.91 173.777 165.402 152.302Z" fill="#808080"/>
<path d="M37.6138 219.725C35.6017 217.032 33.6143 214.329 31.7061 211.604C29.798 208.878 27.9516 206.136 26.2959 203.356C24.6558 200.671 23.2483 197.851 22.0885 194.926C21.018 192.177 20.3149 189.3 19.9972 186.367C19.7425 183.427 19.8122 180.467 20.2051 177.541C20.6164 174.453 21.2072 171.391 21.9747 168.372C22.1776 167.595 22.3534 166.826 22.5712 166.045L23.2097 163.71C23.6651 162.143 24.1081 160.585 24.5981 159.012C25.551 155.876 26.5781 152.721 27.6274 149.563C28.8649 145.529 26.1549 141.155 21.6158 139.958C17.0843 138.771 12.5477 141.291 11.6889 145.544C11.0949 148.912 10.5108 152.29 9.99357 155.72C9.72132 157.424 9.49858 159.163 9.25109 160.889L8.93184 163.508C8.82047 164.378 8.74622 165.273 8.65217 166.151C8.2791 169.766 8.11959 173.399 8.1745 177.032C8.23096 180.833 8.70992 184.616 9.60254 188.311C10.5603 191.997 11.9973 195.542 13.8767 198.856C15.6727 201.984 17.7309 204.955 20.0294 207.736C22.2568 210.456 24.5659 213.011 26.9122 215.501C29.2584 217.991 31.6467 220.405 34.0424 222.798C34.8493 223.612 36.2105 223.607 37.151 222.798C38.0989 221.977 38.3117 220.63 37.6138 219.725Z" fill="#F5BDC8"/>
<path d="M4.29414 167.427L8.78363 148.052C10.1424 142.191 15.6293 138.279 21.4949 139.644C27.3605 141.002 31.3946 147.112 30.0235 152.973L25.534 172.348L4.29414 167.427Z" fill="#FF2D86"/>
<path d="M30.6397 153.109C31.9316 147.53 28.6103 141.536 23.0813 139.463C22.6111 139.287 22.13 139.14 21.6409 139.026C18.9751 138.397 16.1695 138.812 13.8003 140.186L14.575 140.477C16.7107 139.381 19.1687 139.083 21.5048 139.639C27.3703 140.992 31.4045 147.107 30.0359 152.966L29.8973 153.478L30.4863 153.698L30.6397 153.109ZM28.6598 161.668L28.0708 161.445L25.5439 172.343L16.9757 170.365L16.7529 170.956L26.0116 173.1L28.6598 161.668ZM8.21689 150.51L7.62786 150.29L3.54423 167.907L7.21454 168.755L7.43729 168.167L4.29414 167.44L8.21689 150.51Z" fill="white"/>
<path d="M36.0651 122.005L34.2609 136.194C30.9214 137.803 27.8368 137.412 25.0071 135.02L26.8113 120.83L36.0651 122.005Z" fill="#F5BDC8"/>
<path d="M36.0649 122.004L35.2482 128.434C34.5514 128.604 33.834 128.675 33.1173 128.644C32.8698 128.644 32.647 128.615 32.4144 128.585C31.1697 128.425 29.9767 127.988 28.9231 127.307C27.8695 126.625 26.9821 125.717 26.3261 124.648L26.821 120.84L36.0649 122.004Z" fill="#EA8096"/>
<path d="M41.3731 113.859L40.3831 119.759L39.9872 122.148C39.7225 123.748 38.8805 125.197 37.6202 126.219C36.3598 127.241 34.7684 127.767 33.1465 127.697C32.0586 127.652 30.994 127.368 30.0281 126.866C29.8078 126.753 29.5949 126.619 29.3895 126.493C29.2608 126.411 29.142 126.325 29.0133 126.246C27.8152 125.357 26.9179 124.123 26.4419 122.709C26.031 121.493 25.6697 120.16 25.3405 118.753C25.1475 117.951 24.9693 117.13 24.7985 116.295C24.4106 114.49 24.5248 112.615 25.1286 110.871C25.7325 109.127 26.803 107.582 28.2238 106.403C30.6987 104.385 33.5622 104.024 36.8019 105.438C38.3921 106.135 39.7047 107.341 40.5325 108.865C41.3603 110.39 41.6561 112.147 41.3731 113.859Z" fill="#F5BDC8"/>
<path d="M43.2323 115.659C43.9179 115.12 44.0713 114.012 44.054 113.072C44.0366 112.132 43.9352 111.126 44.351 110.283C44.8806 109.207 46.1205 108.697 46.4348 107.523C46.7492 106.348 45.9844 105.354 45.2865 104.597L39.7179 98.5436C38.9556 97.7151 38.176 96.8743 37.2108 96.4144C36.2456 95.9544 35.0378 95.9346 34.1196 96.6938C33.6246 97.0895 33.2633 97.6682 32.7683 98.0366C31.6447 98.87 30.2934 98.4125 29.0708 98.0663C27.5858 97.6385 25.9375 97.4357 24.4426 98.1726C22.9478 98.9096 21.7004 100.846 21.9826 102.659C22.1162 103.517 22.5568 104.226 22.8884 104.986C23.2201 105.745 23.4477 106.677 23.1359 107.513C22.7152 108.638 21.5767 109.054 20.6882 109.694C19.4507 110.599 18.535 112.216 18.3395 113.898C18.144 115.58 18.6662 117.288 19.6908 118.334C20.5818 119.239 22.1113 119.546 22.9849 118.438C23.9749 117.175 23.6334 114.749 24.9253 113.987C26.4771 113.074 28.0115 116.022 29.5509 115.07C30.375 114.561 30.5953 113.225 31.323 112.525C32.2832 111.603 33.5504 112.13 34.5082 112.498C35.5208 112.867 36.5656 113.14 37.6291 113.314C38.619 113.497 39.3764 113.952 40.1708 114.63C40.9653 115.308 42.0988 116.49 43.2323 115.659Z" fill="#990163"/>
<path d="M29.3966 116.727C29.6131 115.024 28.2365 113.446 26.3219 113.203C24.4073 112.96 22.6796 114.143 22.4631 115.847C22.2466 117.55 23.6232 119.127 25.5378 119.37C27.4524 119.613 29.18 118.43 29.3966 116.727Z" fill="#F5BDC8"/>
</svg>
