<svg width="327" height="308" viewBox="0 0 327 308" fill="none" xmlns="http://www.w3.org/2000/svg">
<path d="M319.845 58.0836V289.582C319.845 292.22 318.795 294.751 316.928 296.616C315.061 298.481 312.528 299.529 309.888 299.529H143.694C141.054 299.529 138.521 298.481 136.654 296.616C134.787 294.751 133.737 292.22 133.737 289.582V58.0836C133.736 56.7768 133.994 55.4827 134.494 54.2752C134.994 53.0678 135.728 51.9707 136.652 51.0465C137.577 50.1223 138.675 49.3892 139.883 48.889C141.091 48.3889 142.386 48.1314 143.694 48.1314H309.888C311.196 48.1314 312.491 48.3889 313.699 48.889C314.907 49.3892 316.005 50.1223 316.93 51.0465C317.855 51.9707 318.588 53.0678 319.088 54.2752C319.589 55.4827 319.846 56.7768 319.845 58.0836Z" fill="white"/>
<path d="M314.533 39.6601H139.047C135.877 39.6641 132.837 40.9244 130.596 43.1647C128.354 45.405 127.093 48.4423 127.09 51.6102V296.055C127.094 299.222 128.355 302.259 130.597 304.498C132.838 306.737 135.877 307.997 139.047 308H314.533C317.703 307.997 320.742 306.737 322.984 304.498C325.226 302.259 326.488 299.223 326.492 296.055V51.6102C326.489 48.4418 325.228 45.4042 322.986 43.1638C320.744 40.9235 317.704 39.6634 314.533 39.6601ZM285.038 42.5481V48.1362H309.888C311.196 48.1362 312.491 48.3936 313.699 48.8938C314.907 49.394 316.005 50.1271 316.93 51.0512C317.855 51.9754 318.588 53.0726 319.088 54.28C319.589 55.4874 319.846 56.7815 319.846 58.0883V289.587C319.845 292.225 318.796 294.755 316.928 296.621C315.061 298.486 312.528 299.534 309.888 299.534H143.695C141.054 299.534 138.522 298.486 136.654 296.621C134.787 294.755 133.737 292.225 133.737 289.587V58.0834C133.736 56.7766 133.994 55.4825 134.494 54.275C134.994 53.0676 135.728 51.9705 136.652 51.0463C137.577 50.1221 138.675 49.389 139.883 48.8888C141.092 48.3887 142.387 48.1312 143.695 48.1312H171.489V42.5481H285.038Z" fill="#990163"/>
<path d="M286.978 45.2062V50.9376H170.353V45.2062C170.353 43.1077 171.187 41.0952 172.672 39.6114C174.157 38.1275 176.172 37.2939 178.272 37.2939H279.064C281.164 37.2939 283.179 38.1275 284.664 39.6114C286.149 41.0952 286.983 43.1077 286.983 45.2062H286.978Z" fill="#808080"/>
<path d="M228.664 21.2224C225.723 21.2214 222.847 22.092 220.401 23.724C217.955 25.356 216.049 27.6761 214.922 30.3909C213.796 33.1057 213.501 36.0933 214.074 38.9758C214.647 41.8582 216.063 44.5061 218.143 46.5845C220.222 48.6628 222.872 50.0784 225.756 50.6521C228.641 51.2258 231.631 50.9318 234.348 49.8074C237.066 48.683 239.388 46.7787 241.022 44.3352C242.657 41.8918 243.529 39.019 243.529 36.0802C243.528 32.1407 241.962 28.3627 239.175 25.5766C236.387 22.7905 232.607 21.2244 228.664 21.2224ZM228.664 43.2754C227.24 43.2754 225.847 42.8534 224.663 42.0628C223.479 41.2722 222.556 40.1484 222.011 38.8337C221.466 37.5189 221.323 36.0722 221.601 34.6765C221.879 33.2807 222.565 31.9987 223.572 30.9924C224.579 29.9861 225.862 29.3008 227.259 29.0232C228.656 28.7456 230.104 28.8881 231.42 29.4327C232.735 29.9772 233.86 30.8995 234.651 32.0827C235.443 33.266 235.865 34.6571 235.865 36.0802C235.865 37.0252 235.679 37.9609 235.317 38.8341C234.956 39.7072 234.425 40.5005 233.757 41.1687C233.088 41.8369 232.294 42.3669 231.42 42.7284C230.546 43.0898 229.61 43.2757 228.664 43.2754Z" fill="#999999"/>
<path d="M308.403 99.0147H148.93V103.164H308.403V99.0147Z" fill="#E5E6EB"/>
<path d="M308.403 112.317H148.93V116.466H308.403V112.317Z" fill="#E5E6EB"/>
<path d="M308.403 125.622H148.93V129.771H308.403V125.622Z" fill="#E5E6EB"/>
<path d="M308.403 138.925H148.93V143.074H308.403V138.925Z" fill="#E5E6EB"/>
<path d="M308.403 165.533H148.93V169.682H308.403V165.533Z" fill="#E5E6EB"/>
<path d="M308.403 178.838H148.93V182.987H308.403V178.838Z" fill="#E5E6EB"/>
<path d="M308.403 192.14H148.93V196.289H308.403V192.14Z" fill="#E5E6EB"/>
<path d="M308.403 205.445H148.93V209.594H308.403V205.445Z" fill="#E5E6EB"/>
<path d="M308.403 218.747H148.93V222.896H308.403V218.747Z" fill="#E5E6EB"/>
<path d="M308.401 258.66H228.667V262.809H308.401V258.66Z" fill="#E5E6EB"/>
<path d="M308.401 271.962H228.667V276.111H308.401V271.962Z" fill="#E5E6EB"/>
<path d="M224.739 232.052H148.93V236.201H224.739V232.052Z" fill="#E5E6EB"/>
<path d="M172.37 253.415C170.059 253.391 167.752 253.601 165.483 254.041C163.272 254.466 161.142 255.238 159.173 256.328C157.275 257.396 155.628 258.858 154.342 260.616C153.72 261.471 153.199 262.396 152.791 263.373C152.399 264.322 152.138 265.32 152.016 266.34C151.895 267.336 151.941 268.345 152.152 269.327C152.363 270.307 152.711 271.253 153.187 272.135C153.671 273.025 154.273 273.845 154.976 274.573C156.356 276.048 158.104 277.128 160.041 277.701C160.289 277.761 160.512 277.837 160.757 277.887L161.499 278.02C161.746 278.05 161.994 278.07 162.241 278.097L162.427 278.117H162.615H162.991C164.004 278.127 165.014 278.023 166.003 277.805C169.014 277.087 171.715 275.421 173.706 273.053C174.379 272.252 175.062 271.223 176.082 270.231C176.345 269.976 176.624 269.737 176.918 269.517C176.995 269.463 177.066 269.406 177.151 269.351L177.411 269.181C177.586 269.077 177.764 268.973 177.947 268.886C178.691 268.519 179.504 268.311 180.333 268.276C180.783 268.257 181.233 268.3 181.672 268.402C182.147 268.509 182.6 268.698 183.01 268.961C183.815 269.481 184.429 270.249 184.758 271.149C185.005 271.846 185.152 272.576 185.193 273.315C185.22 273.639 185.233 273.943 185.248 274.227L185.267 274.635C185.267 274.744 185.285 274.853 185.299 274.962C185.342 275.357 185.446 275.743 185.606 276.106C185.663 276.221 185.732 276.329 185.814 276.428C185.852 276.478 185.9 276.519 185.955 276.549C186.008 276.574 186.065 276.59 186.124 276.596C186.192 276.599 186.259 276.582 186.319 276.549C186.647 276.335 186.932 276.063 187.16 275.745C187.48 275.35 187.806 274.877 188.18 274.385C188.585 273.829 189.049 273.319 189.566 272.865C189.885 272.594 190.241 272.369 190.622 272.197C191.044 272.008 191.499 271.904 191.961 271.893C192.077 271.89 192.192 271.894 192.307 271.905C192.423 271.909 192.538 271.922 192.651 271.945C192.765 271.967 192.877 271.992 192.991 272.019C193.104 272.046 193.203 272.093 193.31 272.13L193.468 272.192L193.612 272.264C193.708 272.316 193.805 272.365 193.896 272.417C194.068 272.523 194.233 272.64 194.391 272.766C194.901 273.206 195.357 273.704 195.752 274.249C196.116 274.724 196.443 275.167 196.769 275.52C197.089 275.869 197.464 276.164 197.878 276.393C198.329 276.638 198.804 276.834 199.296 276.979C200.377 277.279 201.479 277.5 202.592 277.639C203.735 277.82 204.871 277.973 206.009 278.077C207.145 278.186 208.289 278.195 209.427 278.104C210.577 278.012 211.707 277.749 212.78 277.323C212.283 277.636 211.757 277.903 211.211 278.119C210.662 278.342 210.097 278.524 209.521 278.663C208.361 278.929 207.179 279.082 205.989 279.12C204.804 279.172 203.621 279.14 202.453 279.096C201.246 279.078 200.043 278.967 198.853 278.764C198.213 278.643 197.589 278.451 196.992 278.193C196.359 277.915 195.774 277.538 195.26 277.076C194.808 276.652 194.379 276.205 193.975 275.735C193.657 275.36 193.298 275.021 192.904 274.727C192.828 274.676 192.75 274.63 192.669 274.588L192.562 274.546L192.51 274.524H192.461C192.343 274.493 192.221 274.484 192.1 274.499C191.979 274.513 191.863 274.554 191.761 274.618C191.62 274.7 191.49 274.8 191.375 274.915C191.049 275.261 190.758 275.638 190.506 276.042C190.209 276.497 189.902 276.999 189.516 277.526C189.313 277.813 189.093 278.087 188.855 278.347C188.573 278.659 188.25 278.933 187.895 279.16C187.46 279.437 186.968 279.614 186.455 279.677C185.936 279.741 185.409 279.687 184.914 279.52C184.418 279.353 183.966 279.077 183.592 278.712C183.266 278.397 182.989 278.034 182.771 277.637C182.41 276.96 182.163 276.228 182.04 275.471C182.011 275.293 181.986 275.115 181.966 274.937L181.912 274.477C181.882 274.183 181.857 273.908 181.828 273.654C181.791 273.231 181.698 272.816 181.553 272.417C181.505 272.303 181.44 272.196 181.36 272.101C181.329 272.065 181.296 272.031 181.261 271.999C181.229 271.975 181.195 271.954 181.159 271.935C180.954 271.837 180.725 271.8 180.499 271.829C180.165 271.863 179.841 271.96 179.544 272.116C179.466 272.154 179.391 272.197 179.318 272.244L179.214 272.316C179.177 272.341 179.135 272.375 179.096 272.405C178.927 272.536 178.767 272.679 178.618 272.833C177.972 273.471 177.361 274.39 176.572 275.389C174.926 277.414 172.85 279.046 170.494 280.169C169.317 280.727 168.082 281.154 166.812 281.442C165.528 281.721 164.216 281.847 162.902 281.816L162.407 281.793H162.16L161.912 281.766C161.583 281.727 161.254 281.692 160.922 281.642L159.947 281.447C159.623 281.375 159.301 281.269 158.98 281.178C157.712 280.779 156.506 280.207 155.397 279.476C154.3 278.749 153.302 277.883 152.427 276.9C151.549 275.923 150.813 274.827 150.242 273.644C149.662 272.454 149.262 271.185 149.054 269.878C149.015 269.549 148.965 269.22 148.94 268.889L148.916 267.9C148.916 267.569 148.95 267.242 148.968 266.911C148.968 266.745 149.005 266.584 149.027 266.416L149.099 265.922C149.325 264.645 149.734 263.408 150.314 262.248C150.878 261.112 151.583 260.051 152.41 259.09C154.033 257.196 156.063 255.692 158.349 254.691C160.565 253.735 162.928 253.166 165.337 253.01C167.689 252.851 170.052 252.987 172.37 253.415Z" fill="#FF2D86"/>
<path d="M176.75 78.7543L179.801 79.0881C179.657 80.7952 178.905 82.394 177.68 83.5931C176.463 84.775 174.863 85.366 172.882 85.366C171.214 85.366 169.861 84.9465 168.821 84.1074C167.733 83.2031 166.904 82.0265 166.418 80.6977C165.842 79.1822 165.555 77.5717 165.575 75.9504C165.575 73.1712 166.234 70.9096 167.554 69.1656C168.874 67.4216 170.689 66.5504 172.998 66.5521C174.813 66.5521 176.32 67.1092 177.519 68.2235C178.719 69.3378 179.478 70.9335 179.796 73.0105L176.745 73.3319C176.182 70.5774 174.945 69.1994 173.033 69.1977C171.804 69.1977 170.847 69.7747 170.162 70.9285C169.478 72.0824 169.137 73.7432 169.14 75.9108C169.14 78.1213 169.506 79.7903 170.237 80.9178C170.967 82.0453 171.936 82.609 173.142 82.609C173.611 82.6124 174.074 82.5124 174.5 82.3162C174.925 82.1201 175.302 81.8325 175.604 81.4741C176.278 80.7202 176.682 79.763 176.75 78.7543Z" fill="#FF2D86"/>
<path d="M189.14 85.3734C186.715 85.3734 184.826 84.4668 183.473 82.6535C182.121 80.8403 181.445 78.5944 181.447 75.9157C181.447 73.2602 182.165 71.0348 183.602 69.2397C185.039 67.4446 186.936 66.5512 189.294 66.5594C191.666 66.5594 193.542 67.4529 194.921 69.2397C196.3 71.0266 196.989 73.2618 196.987 75.9454C196.987 78.7608 196.272 81.0364 194.842 82.7722C193.411 84.508 191.511 85.375 189.14 85.3734ZM189.167 82.7252C189.75 82.7262 190.325 82.5928 190.847 82.3355C191.369 82.0782 191.825 81.7039 192.179 81.2417C193.004 80.2526 193.416 78.474 193.416 75.9058C193.416 73.8107 193.077 72.1681 192.399 70.978C191.721 69.7878 190.668 69.1928 189.239 69.1928C186.42 69.1928 185.01 71.4618 185.01 75.9998C185.01 78.202 185.37 79.871 186.089 81.0068C186.399 81.5443 186.849 81.9879 187.391 82.2905C187.933 82.5931 188.547 82.7433 189.167 82.7252Z" fill="#FF2D86"/>
<path d="M213.834 85.0916H210.637L203.708 73.4309C203.599 73.2529 203.426 72.9636 203.186 72.563C203.077 72.385 202.913 72.1031 202.691 71.7199V85.0916H200.04V66.839H203.688L210.085 77.5898L211.248 79.5555V66.839H213.834V85.0916Z" fill="#FF2D86"/>
<path d="M224.242 85.0916H220.71V69.6602H215.853V66.839H229.099V69.6602H224.242V85.0916Z" fill="#FF2D86"/>
<path d="M245.348 85.0916H241.869L239.03 77.5898H234.4V85.0916H231.109V66.839H239.028C241.232 66.839 242.851 67.3335 243.885 68.3225C244.92 69.3116 245.438 70.5973 245.439 72.1798C245.439 74.5271 244.341 76.1408 242.146 77.0211L245.348 85.0916ZM234.4 74.954H238.496C239.68 74.954 240.564 74.7068 241.146 74.2122C241.436 73.9561 241.665 73.638 241.815 73.2814C241.966 72.9248 242.034 72.539 242.014 72.1526C242.027 71.7848 241.956 71.419 241.808 71.0822C241.66 70.7454 241.438 70.4462 241.158 70.2066C240.586 69.7121 239.787 69.4649 238.763 69.4649H234.4V74.954Z" fill="#FF2D86"/>
<path d="M263.051 85.0916H259.532L258.074 80.7473H251.046L249.616 85.0916H246.805L252.868 66.839H256.924L263.051 85.0916ZM257.191 78.1115L254.526 69.9693L251.863 78.1115H257.191Z" fill="#FF2D86"/>
<path d="M274.855 78.7547L277.906 79.0885C277.766 80.7985 277.013 82.4006 275.786 83.601C274.573 84.7829 272.977 85.3738 270.997 85.3738C269.329 85.3738 267.976 84.9543 266.936 84.1152C265.848 83.2109 265.019 82.0344 264.534 80.7056C263.957 79.19 263.671 77.5795 263.69 75.9582C263.69 73.179 264.35 70.9174 265.67 69.1734C266.989 67.4294 268.804 66.5582 271.114 66.5599C272.928 66.5599 274.436 67.117 275.637 68.2314C276.838 69.3457 277.596 70.9413 277.911 73.0183L274.86 73.3397C274.298 70.5853 273.06 69.2072 271.148 69.2056C269.916 69.2056 268.959 69.7825 268.278 70.9364C267.596 72.0902 267.255 73.751 267.253 75.9186C267.253 78.1291 267.619 79.7981 268.349 80.9256C269.08 82.0531 270.045 82.6127 271.245 82.6045C271.713 82.6079 272.177 82.5079 272.603 82.3117C273.028 82.1155 273.405 81.828 273.707 81.4696C274.381 80.7173 274.785 79.762 274.855 78.7547Z" fill="#FF2D86"/>
<path d="M286.898 85.0916H283.37V69.6602H278.512V66.839H291.761V69.6602H286.903L286.898 85.0916Z" fill="#FF2D86"/>
<path d="M189.214 133.824V189.682H112.312C112.188 196.606 123.118 201.39 123.118 201.39C115.447 201.39 109.961 199.276 106.185 196.843C104.004 195.422 102.214 193.479 100.979 191.19C99.7428 188.901 99.1003 186.339 99.1097 183.738V133.824H189.214Z" fill="#E60062"/>
<path d="M165.626 165.572C167.738 165.572 169.45 163.862 169.45 161.752C169.45 159.642 167.738 157.932 165.626 157.932C163.515 157.932 161.803 159.642 161.803 161.752C161.803 163.862 163.515 165.572 165.626 165.572Z" fill="white"/>
<path d="M144.162 165.572C146.274 165.572 147.986 163.862 147.986 161.752C147.986 159.642 146.274 157.932 144.162 157.932C142.051 157.932 140.339 159.642 140.339 161.752C140.339 163.862 142.051 165.572 144.162 165.572Z" fill="white"/>
<path d="M122.698 165.572C124.809 165.572 126.521 163.862 126.521 161.752C126.521 159.642 124.809 157.932 122.698 157.932C120.586 157.932 118.874 159.642 118.874 161.752C118.874 163.862 120.586 165.572 122.698 165.572Z" fill="white"/>
<path d="M19.5118 305.451C19.0912 304.968 18.507 304.657 17.8712 304.578C17.2405 304.504 16.6058 304.467 15.9707 304.469C14.4112 304.39 12.8915 303.95 11.5313 303.184C10.8235 302.788 10.1629 302.299 9.39821 302.022L4.94395 302.138C4.33928 302.818 3.9275 303.648 3.75118 304.541C3.59411 305.345 3.54665 306.167 3.61011 306.984V307.914H19.9771V306.984C19.9932 306.436 19.8298 305.898 19.5118 305.451Z" fill="#990163"/>
<path d="M4.37763 297.188L4.93689 302.138L9.39858 302.022L9.69799 297.443L4.37763 297.188Z" fill="#F5BDC8"/>
<path d="M63.0918 303.681C62.619 303.247 62.0017 303.004 61.3596 302.998C60.7246 302.994 60.0898 303.028 59.4591 303.102C57.9006 303.2 56.3408 302.933 54.9034 302.323C54.161 302.009 53.4434 301.599 52.6515 301.409L48.2319 302.024C47.7086 302.769 47.3934 303.639 47.3188 304.546C47.2519 305.363 47.2968 306.185 47.4524 306.989L47.5588 307.914L63.8194 306.077L63.7155 305.152C63.6732 304.607 63.4543 304.091 63.0918 303.681Z" fill="#990163"/>
<path d="M0.455004 225.295C-0.482865 208.046 -0.31954 183.607 4.35496 169.842C4.39703 169.595 40.5359 172.834 40.5359 172.839L48.9718 207.507C51.9407 219.704 53.3894 232.221 53.285 244.774L52.847 296.797L46.7496 297.193L35.4531 228.299C31.2463 220.125 26.7401 210.706 23.2559 201.528L10.1084 297.465L4.00359 297.173C4.00359 297.173 0.455006 225.352 0.457481 225.297L0.455004 225.295Z" fill="#FFDCEB"/>
<path d="M47.1206 297.168L48.2342 302.024L52.6537 301.408L52.4385 296.824L47.1206 297.168Z" fill="#F5BDC8"/>
<path d="M74.0564 54.5529C73.518 54.3864 72.9365 54.4301 72.4291 54.6752C71.9216 54.9202 71.526 55.3483 71.322 55.8733C68.9933 62.1641 66.3505 68.3344 63.4033 74.3608C60.4956 80.3033 57.198 86.0472 53.5322 91.5552C49.9101 96.9639 45.8744 102.084 41.4611 106.87C39.2604 109.233 36.9755 111.493 34.6065 113.653C34.0077 114.187 33.4261 114.736 32.8174 115.255L30.9986 116.815C29.7613 117.826 28.524 118.843 27.2595 119.802C26.8752 120.115 26.5259 120.468 26.2177 120.855C25.9117 121.23 25.6486 121.637 25.4332 122.069C25.0037 122.947 24.7411 123.897 24.6587 124.871C24.4913 126.982 25.1226 129.079 26.428 130.748C27.0745 131.59 27.8907 132.288 28.8237 132.795C29.7568 133.302 30.7861 133.608 31.8449 133.693C32.8967 133.778 33.9545 133.635 34.9456 133.273C35.4579 133.09 35.9504 132.855 36.4155 132.573C36.8914 132.274 37.3337 131.924 37.7344 131.529C39.0138 130.251 40.2412 128.916 41.4661 127.593L43.2602 125.563C43.859 124.888 44.4257 124.186 45.0097 123.501C47.3193 120.73 49.4994 117.878 51.55 114.943C55.6094 109.106 59.21 102.963 62.3194 96.5696C65.3651 90.2668 67.9898 83.7695 70.1763 77.1202C72.3308 70.5596 74.1544 63.895 75.6402 57.1516C75.7594 56.5982 75.6616 56.0202 75.367 55.5367C75.0723 55.0532 74.6032 54.7011 74.0564 54.5529Z" fill="#EA8096"/>
<path d="M53.1543 118.326L40.3508 130.889C36.478 134.689 30.4103 135.011 26.6069 131.136C22.8034 127.267 22.7045 120.672 26.5772 116.872L39.3758 104.314L53.1543 118.326Z" fill="#FF2D86"/>
<path d="M82.8758 292.732L66.291 55.9995L41.7382 57.7168L58.3229 294.45L82.8758 292.732Z" fill="#FFDCEB"/>
<path d="M85.1322 306.68L83.9707 291.099L67.4318 292.33L68.5933 307.911L85.1322 306.68Z" fill="white"/>
<path d="M88.4186 297.164L87.9446 290.805L63.4595 292.628L63.9336 298.987L88.4186 297.164Z" fill="#990163"/>
<path d="M47.5977 15.5377L54.1949 15.0457L49.7555 0L47.5977 15.5377Z" fill="#990163"/>
<path d="M41.738 58.1256L66.2265 56.3033L54.1951 15.5377L47.5978 16.0298L41.738 58.1256Z" fill="#E5E6EB"/>
<path d="M53.0639 90.205L57.5172 153.773L82.0726 152.055L77.6192 88.4875L53.0639 90.205Z" fill="#FF73AF"/>
<path d="M80.8955 195.897L88.4451 297.168L94.4072 296.725L86.8576 195.453L80.8955 195.897Z" fill="#990163"/>
<path d="M20.9244 111.561C24.1378 111.527 27.3207 112.187 30.2555 113.495C33.1904 114.803 35.8081 116.728 37.93 119.139C40.0519 121.551 41.6278 124.392 42.5503 127.467C43.4727 130.543 43.7199 133.782 43.275 136.962L40.5356 172.839C25.3812 178.328 14.0995 175.326 4.35461 169.842L2.71399 131.665C2.48682 129.129 2.7874 126.573 3.59689 124.158C4.40638 121.743 5.70724 119.521 7.41764 117.633C9.12804 115.744 11.211 114.23 13.5355 113.185C15.86 112.14 18.3757 111.587 20.9244 111.561Z" fill="#FF2D86"/>
<path d="M2.57789 126.508L2.96642 126.545C3.45703 123.964 4.49667 121.519 6.01507 119.374L5.7429 119.075C4.16536 121.296 3.08581 123.831 2.57789 126.508ZM11.0236 173.032L10.8974 173.408C14.0902 174.676 17.4368 175.516 20.8502 175.907V175.507C17.4812 175.111 14.1779 174.279 11.0236 173.032ZM13.0974 113.383C15.5408 112.206 18.2144 111.583 20.9269 111.558C26.0381 111.507 31.0123 113.209 35.0201 116.379C39.0279 119.549 41.827 123.995 42.9508 128.978L43.3294 128.899C42.1995 123.866 39.3885 119.367 35.3589 116.144C31.3294 112.92 26.3215 111.163 21.1595 111.163H20.9121C18.1776 111.194 15.4826 111.818 13.0132 112.992L13.0974 113.383ZM40.5356 172.839C37.3399 174.018 34.03 174.86 30.6595 175.354V175.747C34.0765 175.253 37.4322 174.403 40.6717 173.21L40.9192 173.123L41.273 168.509L40.8895 168.304L40.5356 172.839ZM43.2576 137.088L41.8769 155.175H42.2752L43.6561 137.088H43.2576Z" fill="white"/>
<path d="M17.5813 86.6468C17.5813 86.6468 8.14326 88.8425 10.4941 99.3238C12.063 106.321 17.1384 109.869 24.4855 111.069L17.5813 86.6468Z" fill="#990163"/>
<path d="M27.4334 104.279L26.7133 115.092C23.6398 116.864 20.6703 116.707 17.8048 114.622L18.5273 103.809L27.4334 104.279Z" fill="#F5BDC8"/>
<path d="M27.3689 105.518L27.1907 108.907C25.7733 109.655 24.1932 110.041 22.5905 110.033H22.3109C20.7824 109.958 19.3418 109.296 18.2896 108.186L18.4554 105.058L27.3689 105.518Z" fill="#EA8096"/>
<path d="M31.8078 91.6021L31.209 99.5539L31.0728 101.319C30.8895 103.442 29.9133 105.419 28.3384 106.855C26.7635 108.292 24.7052 109.084 22.5727 109.073C21.9473 109.068 21.3288 108.942 20.7513 108.702L20.6474 108.66C20.0136 108.385 19.4496 107.971 18.9968 107.449C18.007 106.287 17.3661 105.031 16.7945 103.74C16.2919 102.644 15.8717 101.513 15.5374 100.355C15.1414 98.9913 15.0136 97.5639 15.1612 96.1516L15.7626 89.1789L29.3728 88.1503L31.8078 91.6021Z" fill="#F5BDC8"/>
<path d="M17.8018 89.5645C17.8018 89.5645 33.3645 90.5288 30.2985 104.177C30.2985 104.177 35.1932 94.2871 30.2118 87.6655C24.7207 80.3714 17.4009 82.7698 14.7976 86.2537C12.1943 89.7376 10.2469 95.5209 17.495 99.6576C17.495 99.665 15.0575 94.4726 17.8018 89.5645Z" fill="#990163"/>
<path d="M16.7031 100.48C18.1977 99.4905 18.6061 97.4775 17.6154 95.9841C16.6246 94.4908 14.61 94.0827 13.1154 95.0726C11.6209 96.0625 11.2125 98.0756 12.2032 99.5689C13.1939 101.062 15.2086 101.47 16.7031 100.48Z" fill="#F5BDC8"/>
<path d="M76.4944 187.227C76.7885 186.749 76.8912 186.178 76.782 185.628C76.6728 185.078 76.3597 184.589 75.9054 184.26C70.4017 180.42 65.0944 176.307 60.0037 171.936C54.9845 167.623 50.2559 162.984 45.849 158.048C41.5283 153.179 37.591 147.983 34.0725 142.507C32.3403 139.783 30.7277 137.002 29.2346 134.165C28.8684 133.453 28.4923 132.753 28.1359 132.031L27.0867 129.877C26.4211 128.426 25.7455 126.982 25.1392 125.508C24.9338 125.059 24.6799 124.632 24.382 124.238C24.0965 123.847 23.7687 123.488 23.4045 123.169C22.6631 122.533 21.8097 122.04 20.8879 121.715C18.8858 121.018 16.6946 121.098 14.7484 121.938C13.7698 122.35 12.8887 122.963 12.162 123.737C11.4352 124.511 10.879 125.429 10.5292 126.431C10.1802 127.426 10.0511 128.486 10.1506 129.536C10.1985 130.077 10.3013 130.611 10.4574 131.131C10.6259 131.668 10.8533 132.185 11.1355 132.672C12.0486 134.232 13.031 135.755 14.0035 137.275L15.5155 139.523C16.0105 140.265 16.5524 141.007 17.0721 141.734C19.1738 144.661 21.3844 147.491 23.7039 150.222C28.3299 155.621 33.3676 160.654 38.7717 165.275C44.1059 169.813 49.7346 173.993 55.6212 177.789C61.429 181.529 67.4209 184.976 73.5743 188.117C74.0829 188.368 74.6684 188.416 75.211 188.25C75.7537 188.085 76.2127 187.719 76.4944 187.227Z" fill="#F5BDC8"/>
<path d="M19.6705 150.917L10.7422 135.364C8.03991 130.666 9.25742 124.712 13.9715 122.012C18.6732 119.315 25.0898 120.887 27.7921 125.59L36.7204 141.143L19.6705 150.917Z" fill="#FF2D86"/>
<path d="M9.04908 131.68L9.45 131.7C8.86104 127.907 10.4398 124.035 13.9711 122.012C15.3124 121.263 16.8033 120.82 18.3365 120.716C19.8696 120.612 21.4069 120.848 22.8375 121.409L23.0256 121.055C22.6035 120.89 22.1712 120.752 21.7314 120.643C19.0462 119.947 16.1961 120.315 13.7756 121.669C12.8225 122.212 11.9696 122.914 11.254 123.746C10.3398 124.834 9.66996 126.105 9.28959 127.474C8.90923 128.843 8.82719 130.277 9.04908 131.68ZM13.1198 140.3L13.4811 140.139L10.7986 135.463L10.3037 135.401L10.3928 135.562L13.1198 140.3ZM16.6733 146.481L17.0544 146.345L14.5377 141.966L14.1146 142.023L16.6733 146.481ZM19.524 151.446L32.9759 143.736L32.7482 143.408L19.6725 150.904L18.3313 148.568L17.9502 148.704L19.524 151.446ZM28.9819 127.645L35.5371 139.061L35.8638 138.833L29.3605 127.506L28.9819 127.645Z" fill="white"/>
</svg>
