<svg width="120" height="120" viewBox="0 0 120 120" fill="none" xmlns="http://www.w3.org/2000/svg">
<path d="M56.8665 92.5265C38.2782 92.5265 23.1573 77.4025 23.1573 58.8175C23.1573 40.2259 38.2782 25.1052 56.8665 25.1052C75.455 25.1052 90.579 40.2262 90.579 58.8175C90.579 65.8433 88.4148 72.3721 84.722 77.7784L91.4359 84.2465C96.6577 77.1191 99.744 68.3287 99.744 58.8158C99.744 35.0235 80.4563 15.7358 56.664 15.7358C32.8716 15.7358 13.584 35.0233 13.584 58.8158C13.584 82.6082 32.8714 101.896 56.664 101.896C67.862 101.896 78.061 97.6227 85.722 90.6191L78.4911 84.6529C72.6334 89.5635 65.0902 92.5265 56.8665 92.5265Z" fill="#E60062"/>
<path d="M77.8694 71.1765C80.0029 67.5514 81.228 63.3277 81.228 58.8177C81.228 45.3359 70.3002 34.4082 56.8218 34.4082C43.3401 34.4082 32.4121 45.3359 32.4121 58.8177C32.4121 72.2961 43.3401 83.2241 56.8218 83.2241C62.1698 83.2241 67.1162 81.5028 71.1379 78.5851L62.4543 71.4202C60.7813 72.1466 58.9373 72.5518 56.9973 72.5518C49.4116 72.5518 43.262 66.4027 43.262 58.816C43.262 51.2305 49.4118 45.0807 56.9973 45.0807C64.5822 45.0807 70.7327 51.2305 70.7327 58.816C70.7327 60.4634 70.4362 62.0398 69.9037 63.5028L77.8694 71.1765Z" fill="#FF73AF"/>
<path d="M106.337 94.9623L98.6958 87.5534C98.7832 87.4248 98.1488 87.1981 97.5242 87.1768L91.3758 88.0923L90.9872 87.7203L66.4191 64.0512L66.4756 63.9877C66.6331 63.8112 66.6174 63.5408 66.4411 63.3833L66.4348 63.3777C66.2583 63.2202 65.9876 63.2356 65.8303 63.4121L65.7675 63.4824C64.8572 62.8698 63.6746 62.8728 62.7727 63.4599L56.9307 58.9529C56.881 58.9145 56.7804 58.9529 56.7031 59.0394L56.7003 59.0427C56.6229 59.1294 56.5964 59.2334 56.6403 59.2787L61.7944 64.5802C61.346 65.5325 61.4876 66.6793 62.1863 67.4977L62.1235 67.5683C61.966 67.7448 61.9817 68.0155 62.1579 68.1727L62.1642 68.1784C62.3407 68.3359 62.6112 68.3202 62.7687 68.1439L62.8254 68.0804L89.1401 89.7931L90.125 90.6059L89.5308 90.1159L89.325 96.2244C89.3084 96.7227 89.5247 97.2003 89.9103 97.5165L98.0731 104.208C98.2346 104.34 98.4769 104.224 98.475 104.016L98.4139 97.4469L101.555 100.04C101.711 100.169 101.907 100.224 102.097 100.209C102.215 100.201 102.328 100.162 102.432 100.099C102.454 100.086 102.477 100.075 102.498 100.059C102.505 100.053 102.511 100.046 102.518 100.04C102.549 100.015 102.58 99.9889 102.608 99.9582L102.609 99.9568L102.609 99.9563L102.619 99.9453L102.619 99.9451L102.621 99.9434C102.678 99.8792 102.72 99.8061 102.751 99.7302C102.757 99.7168 102.765 99.7041 102.77 99.6903C102.77 99.6889 102.77 99.687 102.771 99.6856C102.802 99.5959 102.816 99.5016 102.812 99.4081C102.806 99.2173 102.728 99.0289 102.582 98.888L100.606 96.9875L99.6675 96.083L106.187 95.3968C106.401 95.3741 106.492 95.112 106.337 94.9623Z" fill="#E60062"/>
</svg>
