<svg width="120" height="120" viewBox="0 0 120 120" fill="none" xmlns="http://www.w3.org/2000/svg">
<g clip-path="url(#clip0_859_3873)">
<path d="M105 15V120H15V15H45C45 12.9297 45.3906 10.9961 46.1719 9.19922C46.9531 7.40234 48.0273 5.80078 49.3945 4.39453C50.7617 2.98828 52.3438 1.91406 54.1406 1.17188C55.9375 0.429687 57.8906 0.0390625 60 0C62.0703 0 64.0039 0.390625 65.8008 1.17188C67.5977 1.95312 69.1992 3.02734 70.6055 4.39453C72.0117 5.76172 73.0859 7.34375 73.8281 9.14062C74.5703 10.9375 74.9609 12.8906 75 15H105ZM37.5 30H82.5V22.5H67.5V15C67.5 13.9453 67.3047 12.9688 66.9141 12.0703C66.5234 11.1719 65.9961 10.3906 65.332 9.72656C64.668 9.0625 63.8672 8.51562 62.9297 8.08594C61.9922 7.65625 61.0156 7.46094 60 7.5C58.9453 7.5 57.9688 7.69531 57.0703 8.08594C56.1719 8.47656 55.3906 9.00391 54.7266 9.66797C54.0625 10.332 53.5156 11.1328 53.0859 12.0703C52.6562 13.0078 52.4609 13.9844 52.5 15V22.5H37.5V30ZM97.5 22.5H90V37.5H30V22.5H22.5V112.5H97.5V22.5ZM60 52.5H90V60H60V52.5ZM60 75H90V82.5H60V75ZM60 97.5H90V105H60V97.5ZM49.8633 42.3633L55.1367 47.6367L41.25 61.5234L31.1133 51.3867L36.3867 46.1133L41.25 50.9766L49.8633 42.3633ZM49.8633 64.8633L55.1367 70.1367L41.25 84.0234L31.1133 73.8867L36.3867 68.6133L41.25 73.4766L49.8633 64.8633ZM49.8633 87.3633L55.1367 92.6367L41.25 106.523L31.1133 96.3867L36.3867 91.1133L41.25 95.9766L49.8633 87.3633Z" fill="#E60062"/>
</g>
<defs>
<clipPath id="clip0_859_3873">
<rect width="120" height="120" fill="white"/>
</clipPath>
</defs>
</svg>
