<svg width="216" height="216" viewBox="0 0 216 216" fill="none" xmlns="http://www.w3.org/2000/svg">
<rect x="18.748" y="18.748" width="178.504" height="178.504" rx="30" fill="#E60062" fill-opacity="0.2"/>
<g clip-path="url(#clip0_1252_16008)">
<path d="M163 103H138C136.674 103 135.402 103.527 134.464 104.464C133.527 105.402 133 106.674 133 108V153C133 154.326 133.527 155.598 134.464 156.536C135.402 157.473 136.674 158 138 158H163C164.326 158 165.598 157.473 166.536 156.536C167.473 155.598 168 154.326 168 153V108C168 106.674 167.473 105.402 166.536 104.464C165.598 103.527 164.326 103 163 103ZM163 148H138V113H163V148ZM148 58H58C52.45 58 48 62.45 48 68V128C48 130.652 49.0536 133.196 50.9289 135.071C52.8043 136.946 55.3478 138 58 138H93V148H83V158H123V148H113V138H123V128H58V68H148V93H158V68C158 65.3478 156.946 62.8043 155.071 60.9289C153.196 59.0536 150.652 58 148 58Z" fill="#E60062"/>
<path d="M149.729 132.247L154.429 127.547L153.496 126.614L149.729 130.381L147.829 128.481L146.896 129.414L149.729 132.247ZM150.663 135.847C149.741 135.847 148.874 135.672 148.063 135.322C147.252 134.972 146.546 134.497 145.946 133.897C145.346 133.297 144.871 132.592 144.521 131.781C144.172 130.97 143.997 130.103 143.996 129.181C143.996 128.259 144.171 127.392 144.521 126.581C144.872 125.77 145.347 125.064 145.946 124.464C146.546 123.864 147.252 123.389 148.063 123.039C148.874 122.69 149.741 122.515 150.663 122.514C151.585 122.514 152.452 122.689 153.263 123.039C154.074 123.39 154.779 123.865 155.379 124.464C155.979 125.064 156.455 125.77 156.805 126.581C157.155 127.392 157.33 128.259 157.329 129.181C157.329 130.103 157.154 130.97 156.804 131.781C156.454 132.592 155.979 133.297 155.379 133.897C154.779 134.497 154.074 134.973 153.263 135.323C152.452 135.673 151.585 135.848 150.663 135.847ZM150.663 134.514C152.152 134.514 153.413 133.997 154.446 132.964C155.479 131.931 155.996 130.67 155.996 129.181C155.996 127.692 155.479 126.431 154.446 125.397C153.413 124.364 152.152 123.847 150.663 123.847C149.174 123.847 147.913 124.364 146.879 125.397C145.846 126.431 145.329 127.692 145.329 129.181C145.329 130.67 145.846 131.931 146.879 132.964C147.913 133.997 149.174 134.514 150.663 134.514Z" fill="#E60062"/>
</g>
<defs>
<clipPath id="clip0_1252_16008">
<rect width="120" height="120" fill="white" transform="translate(48 48)"/>
</clipPath>
</defs>
</svg>
