<svg width="70" height="70" viewBox="0 0 70 70" fill="none" xmlns="http://www.w3.org/2000/svg">
<path d="M43.7503 11.6665C49.9387 11.6665 55.8736 14.1248 60.2495 18.5007C64.6253 22.8765 67.0837 28.8115 67.0837 34.9998C67.0837 41.1882 64.6253 47.1231 60.2495 51.499C55.8736 55.8748 49.9387 58.3332 43.7503 58.3332C37.5619 58.3332 31.627 55.8748 27.2512 51.499C22.8753 47.1231 20.417 41.1882 20.417 34.9998C20.417 28.8115 22.8753 22.8765 27.2512 18.5007C31.627 14.1248 37.5619 11.6665 43.7503 11.6665ZM43.7503 17.4998C39.109 17.4998 34.6578 19.3436 31.376 22.6255C28.0941 25.9074 26.2503 30.3585 26.2503 34.9998C26.2503 39.6411 28.0941 44.0923 31.376 47.3742C34.6578 50.6561 39.109 52.4998 43.7503 52.4998C48.3916 52.4998 52.8428 50.6561 56.1247 47.3742C59.4066 44.0923 61.2503 39.6411 61.2503 34.9998C61.2503 30.3585 59.4066 25.9074 56.1247 22.6255C52.8428 19.3436 48.3916 17.4998 43.7503 17.4998ZM40.8337 23.3332H45.2087V34.3582L52.0045 41.154L48.9128 44.2457L40.8337 36.1665V23.3332ZM5.83366 52.4998C5.06011 52.4998 4.31824 52.1926 3.77126 51.6456C3.22428 51.0986 2.91699 50.3567 2.91699 49.5832C2.91699 48.8096 3.22428 48.0678 3.77126 47.5208C4.31824 46.9738 5.06011 46.6665 5.83366 46.6665H17.0045C17.9087 48.7373 19.0753 50.6915 20.417 52.4998H5.83366ZM8.75033 37.9165C7.97678 37.9165 7.23491 37.6092 6.68793 37.0622C6.14095 36.5153 5.83366 35.7734 5.83366 34.9998C5.83366 34.2263 6.14095 33.4844 6.68793 32.9374C7.23491 32.3905 7.97678 32.0832 8.75033 32.0832H14.7295L14.5837 34.9998L14.7295 37.9165H8.75033ZM11.667 23.3332C10.8934 23.3332 10.1516 23.0259 9.6046 22.4789C9.05762 21.9319 8.75033 21.1901 8.75033 20.4165C8.75033 19.643 9.05762 18.9011 9.6046 18.3541C10.1516 17.8071 10.8934 17.4998 11.667 17.4998H20.417C19.0753 19.3082 17.9087 21.2623 17.0045 23.3332H11.667Z" fill="#F8F8F8"/>
</svg>
