<svg width="33" height="19" viewBox="0 0 33 19" fill="none" xmlns="http://www.w3.org/2000/svg">
<path d="M1.25565 7.99078C0.562173 7.99078 0 8.55295 0 9.24643C0 9.9399 0.562173 10.5021 1.25565 10.5021V7.99078ZM32.6327 10.1343C33.123 9.64394 33.123 8.84891 32.6327 8.35855L24.6418 0.367653C24.1514 -0.122708 23.3564 -0.122708 22.866 0.367653C22.3756 0.858014 22.3756 1.65305 22.866 2.14341L29.969 9.24643L22.866 16.3494C22.3756 16.8398 22.3756 17.6348 22.866 18.1252C23.3564 18.6156 24.1514 18.6156 24.6418 18.1252L32.6327 10.1343ZM1.25565 10.5021H31.7448V7.99078H1.25565V10.5021Z" fill="#E60062"/>
</svg>
