<svg width="60" height="60" viewBox="0 0 60 60" fill="none" xmlns="http://www.w3.org/2000/svg">
<path d="M48.75 3.75H56.25V11.25H48.75V3.75ZM48.75 15H56.25V22.5H48.75V15ZM37.5 3.75H45V11.25H37.5V3.75ZM37.5 15H45V22.5H37.5V15Z" fill="#F8F8F8"/>
<path d="M52.5 30V41.25H7.5V11.25H30V7.5H7.5C6.50544 7.5 5.55161 7.89509 4.84835 8.59835C4.14509 9.30161 3.75 10.2554 3.75 11.25V41.25C3.75 42.2446 4.14509 43.1984 4.84835 43.9016C5.55161 44.6049 6.50544 45 7.5 45H22.5V52.5H15V56.25H45V52.5H37.5V45H52.5C53.4946 45 54.4484 44.6049 55.1516 43.9016C55.8549 43.1984 56.25 42.2446 56.25 41.25V30H52.5ZM33.75 52.5H26.25V45H33.75V52.5Z" fill="#F8F8F8"/>
</svg>
