<svg width="341" height="287" viewBox="0 0 341 287" fill="none" xmlns="http://www.w3.org/2000/svg">
<path d="M327.727 19.7734H13.273C5.94254 19.7734 0 25.7111 0 33.0357V223.481C0 230.805 5.94254 236.743 13.273 236.743H327.727C335.058 236.743 341 230.805 341 223.481V33.0357C341 25.7111 335.058 19.7734 327.727 19.7734Z" fill="#990163"/>
<path d="M319.127 41.6318H21.8755V203.89H319.127V41.6318Z" fill="white"/>
<path d="M11.9321 31.6957V213.824H329.069V31.6957H11.9321Z" fill="white"/>
<path d="M229.391 236.745H111.61V267.303H229.391V236.745Z" fill="#E5E6EB"/>
<path d="M246.867 286.815H94.1338L111.609 266.566H229.391L246.867 286.815Z" fill="#212121"/>
<path d="M121.632 39.448H27.8029C24.5293 39.448 21.8755 42.0997 21.8755 45.3707V82.1727C21.8755 85.4437 24.5293 88.0954 27.8029 88.0954H121.632C124.906 88.0954 127.56 85.4437 127.56 82.1727V45.3707C127.56 42.0997 124.906 39.448 121.632 39.448Z" fill="#FF73AF"/>
<path d="M38.5867 52.2379C38.6174 52.2088 38.6392 52.1716 38.6496 52.1306C38.6601 52.0896 38.6588 52.0465 38.6459 52.0063C38.633 51.966 38.609 51.9302 38.5766 51.9029C38.5443 51.8757 38.5049 51.8581 38.463 51.8521L35.7406 51.4565C35.7043 51.451 35.6699 51.4368 35.6402 51.4153C35.6105 51.3938 35.5863 51.3655 35.5698 51.3328L34.3546 48.8599C34.3362 48.8217 34.3074 48.7895 34.2715 48.767C34.2356 48.7444 34.1941 48.7324 34.1517 48.7324C34.1092 48.7324 34.0677 48.7444 34.0318 48.767C33.9959 48.7895 33.9671 48.8217 33.9487 48.8599L32.7335 51.3328C32.7175 51.3659 32.6935 51.3945 32.6637 51.4161C32.6339 51.4377 32.5992 51.4516 32.5628 51.4565L29.8403 51.8521C29.7988 51.8586 29.7598 51.8764 29.7277 51.9036C29.6956 51.9308 29.6717 51.9663 29.6586 52.0063C29.6456 52.0463 29.6438 52.0891 29.6536 52.1299C29.6634 52.1708 29.6844 52.2082 29.7141 52.2379L31.6817 54.152C31.7079 54.1776 31.7275 54.2092 31.7387 54.2441C31.7499 54.279 31.7524 54.3162 31.746 54.3523L31.2832 57.0576C31.2738 57.0998 31.2766 57.1437 31.2915 57.1842C31.3063 57.2248 31.3325 57.2602 31.367 57.2863C31.4014 57.3123 31.4426 57.3279 31.4857 57.3313C31.5288 57.3346 31.5719 57.3254 31.6099 57.3049L34.0428 56.0289C34.0752 56.0118 34.1113 56.0029 34.1479 56.0029C34.1846 56.0029 34.2207 56.0118 34.2531 56.0289L36.6835 57.3049C36.7216 57.3262 36.765 57.3359 36.8085 57.333C36.852 57.33 36.8938 57.3145 36.9286 57.2883C36.9635 57.2621 36.99 57.2264 37.0049 57.1854C37.0198 57.1445 37.0225 57.1001 37.0127 57.0576L36.5474 54.3523C36.5415 54.316 36.5445 54.2788 36.5561 54.2439C36.5678 54.209 36.5877 54.1775 36.6142 54.152L38.5867 52.2379Z" fill="white"/>
<path d="M49.4344 52.2379C49.4641 52.2082 49.4851 52.1708 49.4949 52.1299C49.5047 52.0891 49.5029 52.0463 49.4899 52.0063C49.4768 51.9663 49.4529 51.9308 49.4208 51.9036C49.3887 51.8764 49.3497 51.8586 49.3082 51.8521L46.5857 51.4565C46.5493 51.4516 46.5146 51.4377 46.4848 51.4161C46.455 51.3945 46.431 51.3659 46.415 51.3328L45.1998 48.8599C45.1814 48.8217 45.1526 48.7895 45.1167 48.767C45.0808 48.7444 45.0392 48.7324 44.9968 48.7324C44.9544 48.7324 44.9129 48.7444 44.877 48.767C44.8411 48.7895 44.8123 48.8217 44.7939 48.8599L43.5787 51.3328C43.5622 51.3655 43.538 51.3938 43.5083 51.4153C43.4786 51.4368 43.4442 51.451 43.4079 51.4565L40.6855 51.8521C40.644 51.8588 40.6052 51.877 40.5735 51.9045C40.5418 51.9321 40.5185 51.968 40.5061 52.0081C40.4937 52.0483 40.4929 52.0911 40.5036 52.1317C40.5143 52.1723 40.5362 52.2091 40.5667 52.2379L42.5318 54.152C42.5583 54.1775 42.5782 54.209 42.5899 54.2439C42.6015 54.2788 42.6045 54.316 42.5986 54.3523L42.1333 57.0576C42.1235 57.1001 42.1262 57.1445 42.1411 57.1854C42.1561 57.2264 42.1826 57.2621 42.2174 57.2883C42.2523 57.3145 42.294 57.33 42.3375 57.333C42.381 57.3359 42.4244 57.3262 42.4625 57.3049L44.8929 56.0289C44.9253 56.0118 44.9614 56.0029 44.9981 56.0029C45.0347 56.0029 45.0708 56.0118 45.1033 56.0289L47.5361 57.3049C47.5741 57.3254 47.6172 57.3346 47.6603 57.3313C47.7034 57.3279 47.7446 57.3123 47.779 57.2863C47.8135 57.2602 47.8397 57.2248 47.8545 57.1842C47.8694 57.1437 47.8723 57.0998 47.8628 57.0576L47.4 54.3523C47.3942 54.3162 47.397 54.2792 47.4082 54.2444C47.4194 54.2096 47.4386 54.1779 47.4643 54.152L49.4344 52.2379Z" fill="white"/>
<path d="M60.2691 52.2379C60.2998 52.2086 60.3216 52.1712 60.332 52.13C60.3423 52.0889 60.3408 52.0457 60.3276 52.0053C60.3144 51.965 60.29 51.9292 60.2574 51.9021C60.2247 51.875 60.185 51.8577 60.1429 51.8521L57.4205 51.4565C57.3842 51.4512 57.3497 51.4371 57.3199 51.4156C57.2902 51.3941 57.2661 51.3657 57.2497 51.3328L56.0345 48.8599C56.0162 48.8217 55.9874 48.7895 55.9515 48.767C55.9156 48.7444 55.874 48.7324 55.8316 48.7324C55.7892 48.7324 55.7477 48.7444 55.7117 48.767C55.6758 48.7895 55.647 48.8217 55.6287 48.8599L54.4135 51.3328C54.3974 51.3659 54.3735 51.3945 54.3437 51.4161C54.3139 51.4377 54.2792 51.4516 54.2427 51.4565L51.5203 51.8521C51.4787 51.8586 51.4397 51.8764 51.4076 51.9036C51.3756 51.9308 51.3517 51.9663 51.3386 52.0063C51.3255 52.0463 51.3238 52.0891 51.3336 52.1299C51.3434 52.1708 51.3643 52.2082 51.3941 52.2379L53.3616 54.152C53.3874 54.1779 53.4066 54.2096 53.4178 54.2444C53.429 54.2792 53.4318 54.3162 53.426 54.3523L52.9632 57.0576C52.9537 57.0998 52.9566 57.1437 52.9714 57.1842C52.9863 57.2248 53.0125 57.2602 53.0469 57.2863C53.0814 57.3123 53.1226 57.3279 53.1656 57.3313C53.2087 57.3346 53.2518 57.3254 53.2898 57.3049L55.7227 56.0289C55.7551 56.0118 55.7912 56.0029 55.8279 56.0029C55.8645 56.0029 55.9007 56.0118 55.9331 56.0289L58.3635 57.3049C58.4015 57.3262 58.445 57.3359 58.4885 57.333C58.532 57.33 58.5737 57.3145 58.6086 57.2883C58.6434 57.2621 58.6699 57.2264 58.6848 57.1854C58.6998 57.1445 58.7025 57.1001 58.6926 57.0576L58.2273 54.3523C58.2214 54.316 58.2244 54.2788 58.2361 54.2439C58.2477 54.209 58.2676 54.1775 58.2942 54.152L60.2691 52.2379Z" fill="white"/>
<path d="M71.1069 52.2379C71.1366 52.2082 71.1576 52.1708 71.1674 52.1299C71.1771 52.0891 71.1754 52.0463 71.1623 52.0063C71.1493 51.9663 71.1254 51.9308 71.0933 51.9036C71.0612 51.8764 71.0222 51.8586 70.9806 51.8521L68.2582 51.4565C68.2218 51.4516 68.1871 51.4377 68.1573 51.4161C68.1275 51.3945 68.1035 51.3659 68.0875 51.3328L66.8723 48.8599C66.8539 48.8217 66.8251 48.7895 66.7892 48.767C66.7533 48.7444 66.7117 48.7324 66.6693 48.7324C66.6269 48.7324 66.5854 48.7444 66.5495 48.767C66.5136 48.7895 66.4848 48.8217 66.4664 48.8599L65.2487 51.3328C65.2329 51.3656 65.2093 51.394 65.18 51.4156C65.1506 51.4371 65.1164 51.4512 65.0804 51.4565L62.358 51.8521C62.3161 51.8581 62.2767 51.8757 62.2444 51.9029C62.212 51.9302 62.188 51.966 62.1751 52.0063C62.1622 52.0465 62.1609 52.0896 62.1713 52.1306C62.1818 52.1716 62.2036 52.2088 62.2342 52.2379L64.1993 54.152C64.2258 54.1775 64.2458 54.209 64.2574 54.2439C64.2691 54.2788 64.2721 54.316 64.2662 54.3523L63.8009 57.0576C63.791 57.1001 63.7937 57.1445 63.8087 57.1854C63.8236 57.2264 63.8501 57.2621 63.8849 57.2883C63.9198 57.3145 63.9615 57.33 64.005 57.333C64.0485 57.3359 64.092 57.3262 64.13 57.3049L66.5604 56.0289C66.5928 56.0118 66.6289 56.0029 66.6656 56.0029C66.7023 56.0029 66.7384 56.0118 66.7708 56.0289L69.2012 57.3049C69.2393 57.3262 69.2827 57.3359 69.3262 57.333C69.3697 57.33 69.4114 57.3145 69.4463 57.2883C69.4811 57.2621 69.5076 57.2264 69.5225 57.1854C69.5375 57.1445 69.5402 57.1001 69.5303 57.0576L69.0675 54.3523C69.0611 54.3162 69.0636 54.279 69.0748 54.2441C69.086 54.2092 69.1056 54.1776 69.1319 54.152L71.1069 52.2379Z" fill="white"/>
<path d="M81.9422 52.2379C81.972 52.2082 81.9929 52.1708 82.0027 52.1299C82.0125 52.0891 82.0108 52.0463 81.9977 52.0063C81.9846 51.9663 81.9607 51.9308 81.9287 51.9036C81.8966 51.8764 81.8576 51.8586 81.816 51.8521L79.0936 51.4565C79.0573 51.4512 79.0228 51.4371 78.993 51.4156C78.9633 51.3941 78.9392 51.3657 78.9228 51.3328L77.7076 48.8599C77.6893 48.8217 77.6604 48.7895 77.6245 48.767C77.5886 48.7444 77.5471 48.7324 77.5047 48.7324C77.4623 48.7324 77.4207 48.7444 77.3848 48.767C77.3489 48.7895 77.3201 48.8217 77.3018 48.8599L76.0866 51.3328C76.0705 51.3659 76.0465 51.3945 76.0167 51.4161C75.9869 51.4377 75.9523 51.4516 75.9158 51.4565L73.1934 51.8521C73.1518 51.8586 73.1128 51.8764 73.0807 51.9036C73.0487 51.9308 73.0248 51.9663 73.0117 52.0063C72.9986 52.0463 72.9969 52.0891 73.0067 52.1299C73.0164 52.1708 73.0374 52.2082 73.0672 52.2379L75.0347 54.152C75.0605 54.1779 75.0797 54.2096 75.0909 54.2444C75.1021 54.2792 75.1049 54.3162 75.0991 54.3523L74.6338 57.0576C74.6239 57.1001 74.6266 57.1445 74.6416 57.1854C74.6565 57.2264 74.683 57.2621 74.7178 57.2883C74.7527 57.3145 74.7944 57.33 74.8379 57.333C74.8814 57.3359 74.9249 57.3262 74.9629 57.3049L77.3958 56.0289C77.4282 56.0118 77.4643 56.0029 77.501 56.0029C77.5376 56.0029 77.5737 56.0118 77.6062 56.0289L80.0365 57.3049C80.0746 57.3262 80.1181 57.3359 80.1616 57.333C80.2051 57.33 80.2468 57.3145 80.2816 57.2883C80.3165 57.2621 80.343 57.2264 80.3579 57.1854C80.3729 57.1445 80.3756 57.1001 80.3657 57.0576L79.9178 54.3622C79.912 54.3261 79.9148 54.2891 79.926 54.2543C79.9371 54.2195 79.9564 54.1878 79.9821 54.1619L81.9422 52.2379Z" fill="white"/>
<path d="M125.229 63.7692C125.229 67.6929 124.065 71.5287 121.884 74.7914C119.702 78.0541 116.602 80.5971 112.974 82.0989C109.346 83.6007 105.354 83.9938 101.502 83.2284C97.6507 82.463 94.1129 80.5736 91.3361 77.7991C88.5594 75.0246 86.6684 71.4896 85.9024 67.6412C85.1365 63.7928 85.5298 59.8039 87.0328 56.1789C88.5358 52.5539 91.0809 49.4557 94.3463 47.2761C97.6116 45.0965 101.45 43.9333 105.377 43.9338C107.986 43.9293 110.569 44.4392 112.98 45.4344C115.39 46.4296 117.58 47.8905 119.425 49.7333C121.269 51.5761 122.731 53.7645 123.727 56.1731C124.723 58.5817 125.233 61.1631 125.229 63.7692Z" fill="#990163"/>
<path d="M31.4982 65.9305H80.6601" stroke="#990163" stroke-width="10" stroke-miterlimit="10"/>
<path d="M36.4953 77.1307L80.6604 76.5916" stroke="#990163" stroke-width="10" stroke-miterlimit="10"/>
<path d="M118.032 70.0899V79.0641C114.473 82.0008 110.002 83.6072 105.386 83.6072C100.771 83.6072 96.2993 82.0008 92.7405 79.0641V70.0899L104.902 64.7558L118.032 70.0899Z" fill="#FFDCEB"/>
<path d="M110.001 56.8577V55.4284H100.755V56.8577C100.55 56.8577 100.354 56.9386 100.21 57.0828C100.065 57.227 99.9832 57.4226 99.9825 57.6268V60.4855C99.9825 60.6901 100.064 60.8863 100.209 61.031C100.353 61.1757 100.55 61.257 100.755 61.257V62.0261C100.754 63.0608 101.103 64.0655 101.745 64.8774V68.1491C101.769 69.0952 102.163 69.9942 102.841 70.6546C103.52 71.315 104.429 71.6846 105.377 71.6846C106.324 71.6846 107.234 71.315 107.912 70.6546C108.59 69.9942 108.984 69.0952 109.009 68.1491V64.8774C109.65 64.0654 109.999 63.0608 109.999 62.0261V61.257C110.203 61.2564 110.399 61.1748 110.543 61.0302C110.687 60.8856 110.768 60.6897 110.768 60.4855V57.6268C110.768 57.4232 110.687 57.228 110.544 57.0838C110.4 56.9397 110.205 56.8583 110.001 56.8577Z" fill="white"/>
<path d="M106.647 50.9176H104.096C102.116 50.9176 100.514 53.0221 100.514 55.6162V59.286L101.202 55.6335C102.339 56.6817 103.829 57.2636 105.376 57.2636C106.923 57.2636 108.413 56.6817 109.55 55.6335L110.238 59.286V55.6212C110.238 53.0221 108.627 50.9176 106.647 50.9176Z" fill="#212121"/>
<path d="M121.632 98.7985H27.8029C24.5293 98.7985 21.8755 101.45 21.8755 104.721V141.523C21.8755 144.794 24.5293 147.446 27.8029 147.446H121.632C124.906 147.446 127.56 144.794 127.56 141.523V104.721C127.56 101.45 124.906 98.7985 121.632 98.7985Z" fill="#FF73AF"/>
<path d="M38.5867 111.588C38.6174 111.559 38.6392 111.522 38.6496 111.481C38.6601 111.44 38.6588 111.397 38.6459 111.357C38.633 111.316 38.609 111.281 38.5766 111.253C38.5443 111.226 38.5049 111.209 38.463 111.203L35.7406 110.809C35.7047 110.803 35.6709 110.788 35.6413 110.767C35.6118 110.745 35.5874 110.718 35.5698 110.686L34.3546 108.213C34.3362 108.175 34.3074 108.142 34.2715 108.12C34.2356 108.097 34.1941 108.085 34.1517 108.085C34.1092 108.085 34.0677 108.097 34.0318 108.12C33.9959 108.142 33.9671 108.175 33.9487 108.213L32.7335 110.686C32.7172 110.719 32.6931 110.747 32.6633 110.769C32.6336 110.79 32.5991 110.804 32.5628 110.809L29.8403 111.203C29.7988 111.209 29.7598 111.227 29.7277 111.254C29.6956 111.281 29.6717 111.317 29.6586 111.357C29.6456 111.397 29.6438 111.439 29.6536 111.48C29.6634 111.521 29.6844 111.559 29.7141 111.588L31.6817 113.505C31.7081 113.53 31.7278 113.562 31.739 113.597C31.7503 113.632 31.7527 113.669 31.746 113.705L31.2832 116.411C31.2738 116.453 31.2766 116.497 31.2915 116.537C31.3063 116.578 31.3325 116.613 31.367 116.639C31.4014 116.665 31.4426 116.681 31.4857 116.684C31.5288 116.687 31.5719 116.678 31.6099 116.658L34.0428 115.382C34.0752 115.365 34.1113 115.356 34.1479 115.356C34.1846 115.356 34.2207 115.365 34.2531 115.382L36.6835 116.658C36.7217 116.678 36.7648 116.687 36.8078 116.683C36.8509 116.68 36.892 116.664 36.9265 116.638C36.961 116.613 36.9874 116.577 37.0027 116.537C37.0179 116.497 37.0214 116.453 37.0127 116.411L36.5474 113.705C36.5413 113.669 36.5442 113.632 36.5558 113.597C36.5675 113.562 36.5875 113.53 36.6142 113.505L38.5867 111.588Z" fill="white"/>
<path d="M49.4344 111.588C49.4641 111.559 49.4851 111.521 49.4949 111.48C49.5047 111.439 49.5029 111.397 49.4899 111.357C49.4768 111.317 49.4529 111.281 49.4208 111.254C49.3887 111.227 49.3497 111.209 49.3082 111.203L46.5857 110.809C46.5494 110.804 46.5149 110.79 46.4852 110.769C46.4554 110.747 46.4313 110.719 46.415 110.686L45.1998 108.213C45.1814 108.175 45.1526 108.142 45.1167 108.12C45.0808 108.097 45.0392 108.085 44.9968 108.085C44.9544 108.085 44.9129 108.097 44.877 108.12C44.8411 108.142 44.8123 108.175 44.7939 108.213L43.5787 110.686C43.5611 110.718 43.5367 110.745 43.5072 110.767C43.4776 110.788 43.4438 110.803 43.4079 110.809L40.6855 111.203C40.644 111.209 40.6052 111.227 40.5735 111.255C40.5418 111.283 40.5185 111.318 40.5061 111.359C40.4937 111.399 40.4929 111.442 40.5036 111.482C40.5143 111.523 40.5362 111.56 40.5667 111.588L42.5318 113.505C42.5585 113.53 42.5785 113.562 42.5902 113.597C42.6018 113.632 42.6047 113.669 42.5986 113.705L42.1333 116.411C42.1246 116.453 42.1281 116.497 42.1433 116.537C42.1586 116.577 42.185 116.613 42.2195 116.638C42.254 116.664 42.2952 116.68 42.3382 116.683C42.3812 116.687 42.4243 116.678 42.4625 116.658L44.8929 115.382C44.9253 115.365 44.9614 115.356 44.9981 115.356C45.0347 115.356 45.0708 115.365 45.1033 115.382L47.5361 116.658C47.5741 116.678 47.6172 116.687 47.6603 116.684C47.7034 116.681 47.7446 116.665 47.779 116.639C47.8135 116.613 47.8397 116.578 47.8545 116.537C47.8694 116.497 47.8723 116.453 47.8628 116.411L47.4 113.705C47.394 113.669 47.3967 113.632 47.4079 113.597C47.4191 113.562 47.4384 113.531 47.4643 113.505L49.4344 111.588Z" fill="white"/>
<path d="M60.2691 111.588C60.2998 111.559 60.3216 111.522 60.332 111.48C60.3423 111.439 60.3408 111.396 60.3276 111.356C60.3144 111.315 60.29 111.28 60.2574 111.253C60.2247 111.225 60.185 111.208 60.1429 111.203L57.4205 110.809C57.3843 110.804 57.35 110.789 57.3203 110.768C57.2906 110.747 57.2664 110.718 57.2497 110.686L56.0345 108.213C56.0162 108.175 55.9874 108.142 55.9515 108.12C55.9156 108.097 55.874 108.085 55.8316 108.085C55.7892 108.085 55.7477 108.097 55.7117 108.12C55.6758 108.142 55.647 108.175 55.6287 108.213L54.4135 110.686C54.3971 110.719 54.373 110.747 54.3433 110.769C54.3135 110.79 54.279 110.804 54.2427 110.809L51.5203 111.203C51.4787 111.209 51.4397 111.227 51.4076 111.254C51.3756 111.281 51.3517 111.317 51.3386 111.357C51.3255 111.397 51.3238 111.439 51.3336 111.48C51.3434 111.521 51.3643 111.559 51.3941 111.588L53.3616 113.505C53.3875 113.531 53.4069 113.562 53.4181 113.597C53.4293 113.632 53.432 113.669 53.426 113.705L52.9632 116.411C52.9537 116.453 52.9566 116.497 52.9714 116.537C52.9863 116.578 53.0125 116.613 53.0469 116.639C53.0814 116.665 53.1226 116.681 53.1656 116.684C53.2087 116.687 53.2518 116.678 53.2898 116.658L55.7227 115.382C55.7551 115.365 55.7912 115.356 55.8279 115.356C55.8645 115.356 55.9007 115.365 55.9331 115.382L58.3857 116.658C58.4239 116.678 58.467 116.687 58.5101 116.683C58.5531 116.68 58.5942 116.664 58.6287 116.638C58.6632 116.613 58.6897 116.577 58.7049 116.537C58.7202 116.497 58.7236 116.453 58.7149 116.411L58.2372 113.715C58.2311 113.679 58.234 113.642 58.2457 113.607C58.2573 113.572 58.2774 113.54 58.3041 113.515L60.2691 111.588Z" fill="white"/>
<path d="M71.1069 111.588C71.1366 111.559 71.1576 111.521 71.1674 111.48C71.1771 111.439 71.1754 111.397 71.1623 111.357C71.1493 111.317 71.1254 111.281 71.0933 111.254C71.0612 111.227 71.0222 111.209 70.9806 111.203L68.2582 110.809C68.2219 110.804 68.1874 110.79 68.1576 110.769C68.1279 110.747 68.1038 110.719 68.0875 110.686L66.8723 108.213C66.8539 108.175 66.8251 108.142 66.7892 108.12C66.7533 108.097 66.7117 108.085 66.6693 108.085C66.6269 108.085 66.5854 108.097 66.5495 108.12C66.5136 108.142 66.4848 108.175 66.4664 108.213L65.2487 110.686C65.2326 110.718 65.2089 110.746 65.1796 110.768C65.1503 110.789 65.1163 110.804 65.0804 110.809L62.358 111.203C62.3161 111.209 62.2767 111.226 62.2444 111.253C62.212 111.281 62.188 111.316 62.1751 111.357C62.1622 111.397 62.1609 111.44 62.1713 111.481C62.1818 111.522 62.2036 111.559 62.2342 111.588L64.1993 113.505C64.226 113.53 64.2461 113.562 64.2577 113.597C64.2694 113.632 64.2723 113.669 64.2662 113.705L63.8009 116.411C63.7921 116.453 63.7956 116.497 63.8109 116.537C63.8261 116.577 63.8525 116.613 63.887 116.638C63.9215 116.664 63.9627 116.68 64.0057 116.683C64.0487 116.687 64.0919 116.678 64.13 116.658L66.5604 115.382C66.5928 115.365 66.6289 115.356 66.6656 115.356C66.7023 115.356 66.7384 115.365 66.7708 115.382L69.2012 116.658C69.2394 116.678 69.2825 116.687 69.3255 116.683C69.3685 116.68 69.4097 116.664 69.4442 116.638C69.4787 116.613 69.5051 116.577 69.5204 116.537C69.5356 116.497 69.5391 116.453 69.5303 116.411L69.0675 113.705C69.0609 113.669 69.0633 113.632 69.0745 113.597C69.0857 113.562 69.1054 113.53 69.1319 113.505L71.1069 111.588Z" fill="white"/>
<path d="M81.9422 111.588C81.972 111.559 81.9929 111.521 82.0027 111.48C82.0125 111.439 82.0108 111.397 81.9977 111.357C81.9846 111.317 81.9607 111.281 81.9287 111.254C81.8966 111.227 81.8576 111.209 81.816 111.203L79.0936 110.809C79.0574 110.804 79.0231 110.789 78.9934 110.768C78.9637 110.747 78.9395 110.718 78.9228 110.686L77.7076 108.213C77.6893 108.175 77.6604 108.142 77.6245 108.12C77.5886 108.097 77.5471 108.085 77.5047 108.085C77.4623 108.085 77.4207 108.097 77.3848 108.12C77.3489 108.142 77.3201 108.175 77.3018 108.213L76.0866 110.686C76.0702 110.719 76.0461 110.747 76.0164 110.769C75.9866 110.79 75.9521 110.804 75.9158 110.809L73.1934 111.203C73.1518 111.209 73.1128 111.227 73.0807 111.254C73.0487 111.281 73.0248 111.317 73.0117 111.357C72.9986 111.397 72.9969 111.439 73.0067 111.48C73.0164 111.521 73.0374 111.559 73.0672 111.588L75.0347 113.505C75.0606 113.531 75.08 113.562 75.0912 113.597C75.1024 113.632 75.1051 113.669 75.0991 113.705L74.6338 116.411C74.6251 116.453 74.6285 116.497 74.6438 116.537C74.659 116.577 74.6854 116.613 74.7199 116.638C74.7544 116.664 74.7956 116.68 74.8386 116.683C74.8816 116.687 74.9248 116.678 74.9629 116.658L77.3958 115.382C77.4282 115.365 77.4643 115.356 77.501 115.356C77.5376 115.356 77.5737 115.365 77.6062 115.382L80.0365 116.658C80.0747 116.678 80.1179 116.687 80.1609 116.683C80.2039 116.68 80.2451 116.664 80.2796 116.638C80.3141 116.613 80.3405 116.577 80.3557 116.537C80.371 116.497 80.3744 116.453 80.3657 116.411L79.9178 113.715C79.9118 113.679 79.9145 113.642 79.9257 113.607C79.9369 113.572 79.9562 113.541 79.9821 113.515L81.9422 111.588Z" fill="white"/>
<path d="M125.229 123.122C125.229 127.046 124.065 130.882 121.884 134.144C119.702 137.407 116.602 139.95 112.974 141.452C109.346 142.954 105.354 143.347 101.502 142.581C97.6508 141.816 94.1129 139.927 91.3361 137.152C88.5594 134.378 86.6684 130.843 85.9024 126.994C85.1365 123.146 85.5298 119.157 87.0328 115.532C88.5358 111.907 91.0809 108.809 94.3463 106.629C97.6116 104.449 101.45 103.286 105.377 103.287C107.986 103.28 110.571 103.788 112.982 104.783C115.394 105.777 117.585 107.238 119.43 109.081C121.275 110.924 122.736 113.114 123.732 115.523C124.727 117.933 125.236 120.515 125.229 123.122Z" fill="#990163"/>
<path d="M31.4982 125.281H80.6601" stroke="#990163" stroke-width="10" stroke-miterlimit="10"/>
<path d="M36.4953 136.483L80.6604 135.942" stroke="#990163" stroke-width="10" stroke-miterlimit="10"/>
<path d="M118.032 129.443V138.415C114.474 141.353 110.002 142.96 105.386 142.96C100.77 142.96 96.2987 141.353 92.7405 138.415V129.443L104.902 124.109L118.032 129.443Z" fill="#FFDCEB"/>
<path d="M110.001 116.208V113.836L100.755 113.752V116.208C100.55 116.208 100.353 116.289 100.209 116.434C100.064 116.579 99.9825 116.775 99.9825 116.979V119.838C99.9832 120.042 100.065 120.238 100.21 120.382C100.354 120.526 100.55 120.607 100.755 120.607V121.379C100.754 122.413 101.103 123.418 101.745 124.23V127.499C101.732 127.984 101.817 128.466 101.993 128.917C102.17 129.369 102.436 129.78 102.774 130.127C103.113 130.474 103.517 130.75 103.964 130.939C104.411 131.127 104.892 131.224 105.377 131.224C105.862 131.224 106.342 131.127 106.789 130.939C107.236 130.75 107.64 130.474 107.979 130.127C108.317 129.78 108.583 129.369 108.76 128.917C108.937 128.466 109.021 127.984 109.009 127.499V124.23C109.65 123.418 109.999 122.413 109.999 121.379V120.607C110.203 120.607 110.398 120.526 110.543 120.382C110.687 120.238 110.768 120.042 110.768 119.838V116.979C110.768 116.776 110.688 116.58 110.544 116.436C110.4 116.291 110.205 116.209 110.001 116.208Z" fill="white"/>
<path d="M121.632 158.151H27.8029C24.5293 158.151 21.8755 160.803 21.8755 164.074V200.876C21.8755 204.147 24.5293 206.798 27.8029 206.798H121.632C124.906 206.798 127.56 204.147 127.56 200.876V164.074C127.56 160.803 124.906 158.151 121.632 158.151Z" fill="#FF73AF"/>
<path d="M38.5867 170.951C38.6174 170.921 38.6392 170.884 38.6496 170.843C38.6601 170.802 38.6588 170.759 38.6459 170.719C38.633 170.679 38.609 170.643 38.5766 170.616C38.5443 170.588 38.5049 170.571 38.463 170.565L35.7406 170.169C35.7043 170.164 35.6699 170.15 35.6402 170.128C35.6105 170.106 35.5863 170.078 35.5698 170.045L34.3546 167.573C34.3362 167.534 34.3074 167.502 34.2715 167.48C34.2356 167.457 34.1941 167.445 34.1517 167.445C34.1092 167.445 34.0677 167.457 34.0318 167.48C33.9959 167.502 33.9671 167.534 33.9487 167.573L32.7335 170.045C32.7175 170.079 32.6935 170.107 32.6637 170.129C32.6339 170.15 32.5992 170.164 32.5628 170.169L29.8403 170.565C29.7988 170.571 29.7598 170.589 29.7277 170.616C29.6956 170.643 29.6717 170.679 29.6586 170.719C29.6456 170.759 29.6438 170.802 29.6536 170.843C29.6634 170.883 29.6844 170.921 29.7141 170.951L31.6817 172.867C31.7081 172.893 31.7278 172.924 31.739 172.959C31.7503 172.994 31.7527 173.031 31.746 173.067L31.2832 175.77C31.2738 175.812 31.2766 175.856 31.2915 175.897C31.3063 175.937 31.3325 175.973 31.367 175.999C31.4014 176.025 31.4426 176.041 31.4857 176.044C31.5288 176.047 31.5719 176.038 31.6099 176.018L34.0428 174.739C34.0752 174.722 34.1113 174.713 34.1479 174.713C34.1846 174.713 34.2207 174.722 34.2531 174.739L36.6835 176.018C36.7217 176.038 36.7648 176.047 36.8078 176.043C36.8509 176.04 36.892 176.024 36.9265 175.998C36.961 175.972 36.9874 175.937 37.0027 175.897C37.0179 175.856 37.0214 175.813 37.0127 175.77L36.5474 173.067C36.5413 173.031 36.5442 172.994 36.5558 172.959C36.5675 172.924 36.5875 172.892 36.6142 172.867L38.5867 170.951Z" fill="white"/>
<path d="M49.4338 170.951C49.4635 170.921 49.4845 170.883 49.4943 170.843C49.504 170.802 49.5023 170.759 49.4892 170.719C49.4762 170.679 49.4523 170.643 49.4202 170.616C49.3881 170.589 49.3491 170.571 49.3075 170.565L46.5851 170.169C46.5487 170.164 46.514 170.15 46.4842 170.129C46.4544 170.107 46.4304 170.079 46.4144 170.045L45.1992 167.573C45.1808 167.534 45.152 167.502 45.1161 167.48C45.0802 167.457 45.0386 167.445 44.9962 167.445C44.9538 167.445 44.9123 167.457 44.8764 167.48C44.8405 167.502 44.8117 167.534 44.7933 167.573L43.5781 170.045C43.5615 170.078 43.5374 170.106 43.5077 170.128C43.478 170.15 43.4436 170.164 43.4073 170.169L40.6849 170.565C40.643 170.571 40.6036 170.588 40.5713 170.616C40.5389 170.643 40.5149 170.679 40.502 170.719C40.4891 170.759 40.4878 170.802 40.4982 170.843C40.5087 170.884 40.5305 170.921 40.5612 170.951L42.5262 172.867C42.5529 172.892 42.573 172.924 42.5846 172.959C42.5963 172.994 42.5992 173.031 42.5931 173.067L42.1278 175.77C42.119 175.813 42.1225 175.856 42.1378 175.897C42.153 175.937 42.1794 175.972 42.2139 175.998C42.2484 176.024 42.2896 176.04 42.3326 176.043C42.3756 176.047 42.4188 176.038 42.4569 176.018L44.8873 174.739C44.9197 174.722 44.9558 174.713 44.9925 174.713C45.0292 174.713 45.0653 174.722 45.0977 174.739L47.5305 176.018C47.5686 176.038 47.6117 176.047 47.6548 176.044C47.6978 176.041 47.739 176.025 47.7735 175.999C47.8079 175.973 47.8341 175.937 47.849 175.897C47.8638 175.856 47.8667 175.812 47.8572 175.77L47.3944 173.067C47.3884 173.031 47.3911 172.994 47.4023 172.959C47.4135 172.925 47.4329 172.893 47.4588 172.867L49.4338 170.951Z" fill="white"/>
<path d="M60.2691 170.951C60.2998 170.921 60.3216 170.884 60.332 170.843C60.3423 170.802 60.3408 170.758 60.3276 170.718C60.3144 170.678 60.29 170.642 60.2574 170.615C60.2247 170.588 60.185 170.57 60.1429 170.565L57.4205 170.169C57.3842 170.164 57.3497 170.15 57.3199 170.128C57.2902 170.107 57.2661 170.078 57.2497 170.045L56.0345 167.573C56.0162 167.534 55.9874 167.502 55.9515 167.48C55.9156 167.457 55.874 167.445 55.8316 167.445C55.7892 167.445 55.7477 167.457 55.7117 167.48C55.6758 167.502 55.647 167.534 55.6287 167.573L54.4135 170.045C54.3974 170.079 54.3735 170.107 54.3437 170.129C54.3139 170.15 54.2792 170.164 54.2427 170.169L51.5203 170.565C51.4787 170.571 51.4397 170.589 51.4076 170.616C51.3756 170.643 51.3517 170.679 51.3386 170.719C51.3255 170.759 51.3238 170.802 51.3336 170.843C51.3434 170.883 51.3643 170.921 51.3941 170.951L53.3616 172.867C53.3875 172.893 53.4069 172.925 53.4181 172.959C53.4293 172.994 53.432 173.031 53.426 173.067L52.9632 175.77C52.9537 175.812 52.9566 175.856 52.9714 175.897C52.9863 175.937 53.0125 175.973 53.0469 175.999C53.0814 176.025 53.1226 176.041 53.1656 176.044C53.2087 176.047 53.2518 176.038 53.2898 176.018L55.7227 174.739C55.7551 174.722 55.7912 174.713 55.8279 174.713C55.8645 174.713 55.9007 174.722 55.9331 174.739L58.3635 176.018C58.4016 176.038 58.4448 176.047 58.4878 176.043C58.5308 176.04 58.572 176.024 58.6065 175.998C58.641 175.972 58.6674 175.937 58.6826 175.897C58.6979 175.856 58.7013 175.813 58.6926 175.77L58.2273 173.067C58.2212 173.031 58.2241 172.994 58.2358 172.959C58.2474 172.924 58.2675 172.892 58.2942 172.867L60.2691 170.951Z" fill="white"/>
<path d="M71.1069 170.951C71.1366 170.921 71.1576 170.883 71.1674 170.843C71.1771 170.802 71.1754 170.759 71.1623 170.719C71.1493 170.679 71.1254 170.643 71.0933 170.616C71.0612 170.589 71.0222 170.571 70.9806 170.565L68.2582 170.169C68.2218 170.164 68.1871 170.15 68.1573 170.129C68.1275 170.107 68.1035 170.079 68.0875 170.045L66.8723 167.573C66.8539 167.534 66.8251 167.502 66.7892 167.48C66.7533 167.457 66.7117 167.445 66.6693 167.445C66.6269 167.445 66.5854 167.457 66.5495 167.48C66.5136 167.502 66.4848 167.534 66.4664 167.573L65.2487 170.045C65.2329 170.078 65.2093 170.107 65.18 170.128C65.1506 170.15 65.1164 170.164 65.0804 170.169L62.358 170.565C62.3161 170.571 62.2767 170.588 62.2444 170.616C62.212 170.643 62.188 170.679 62.1751 170.719C62.1622 170.759 62.1609 170.802 62.1713 170.843C62.1818 170.884 62.2036 170.921 62.2342 170.951L64.1993 172.867C64.226 172.892 64.2461 172.924 64.2577 172.959C64.2694 172.994 64.2723 173.031 64.2662 173.067L63.8009 175.77C63.7921 175.813 63.7956 175.856 63.8109 175.897C63.8261 175.937 63.8525 175.972 63.887 175.998C63.9215 176.024 63.9627 176.04 64.0057 176.043C64.0487 176.047 64.0919 176.038 64.13 176.018L66.5604 174.739C66.5928 174.722 66.6289 174.713 66.6656 174.713C66.7023 174.713 66.7384 174.722 66.7708 174.739L69.2012 176.018C69.2394 176.038 69.2825 176.047 69.3255 176.043C69.3685 176.04 69.4097 176.024 69.4442 175.998C69.4787 175.972 69.5051 175.937 69.5204 175.897C69.5356 175.856 69.5391 175.813 69.5303 175.77L69.0675 173.067C69.0609 173.031 69.0633 172.994 69.0745 172.959C69.0857 172.924 69.1054 172.893 69.1319 172.867L71.1069 170.951Z" fill="white"/>
<path d="M81.9422 170.951C81.972 170.921 81.9929 170.883 82.0027 170.843C82.0125 170.802 82.0108 170.759 81.9977 170.719C81.9846 170.679 81.9607 170.643 81.9287 170.616C81.8966 170.589 81.8576 170.571 81.816 170.565L79.0936 170.169C79.0573 170.164 79.0228 170.15 78.993 170.128C78.9633 170.107 78.9392 170.078 78.9228 170.045L77.7076 167.573C77.6893 167.534 77.6604 167.502 77.6245 167.48C77.5886 167.457 77.5471 167.445 77.5047 167.445C77.4623 167.445 77.4207 167.457 77.3848 167.48C77.3489 167.502 77.3201 167.534 77.3018 167.573L76.0866 170.045C76.0705 170.079 76.0465 170.107 76.0167 170.129C75.9869 170.15 75.9523 170.164 75.9158 170.169L73.1934 170.565C73.1518 170.571 73.1128 170.589 73.0807 170.616C73.0487 170.643 73.0248 170.679 73.0117 170.719C72.9986 170.759 72.9969 170.802 73.0067 170.843C73.0164 170.883 73.0374 170.921 73.0672 170.951L75.0347 172.867C75.0606 172.893 75.08 172.925 75.0912 172.959C75.1024 172.994 75.1051 173.031 75.0991 173.067L74.6338 175.77C74.6251 175.813 74.6285 175.856 74.6438 175.897C74.659 175.937 74.6854 175.972 74.7199 175.998C74.7544 176.024 74.7956 176.04 74.8386 176.043C74.8816 176.047 74.9248 176.038 74.9629 176.018L77.3958 174.739C77.4282 174.722 77.4643 174.713 77.501 174.713C77.5376 174.713 77.5737 174.722 77.6062 174.739L80.0365 176.018C80.0747 176.038 80.1179 176.047 80.1609 176.043C80.2039 176.04 80.2451 176.024 80.2796 175.998C80.3141 175.972 80.3405 175.937 80.3557 175.897C80.371 175.856 80.3744 175.813 80.3657 175.77L79.9178 173.067C79.9118 173.031 79.9145 172.994 79.9257 172.959C79.9369 172.925 79.9562 172.893 79.9821 172.867L81.9422 170.951Z" fill="white"/>
<path d="M125.229 182.475C125.229 186.398 124.064 190.234 121.883 193.496C119.701 196.758 116.6 199.301 112.972 200.803C109.344 202.304 105.352 202.697 101.501 201.931C97.6494 201.165 94.1118 199.276 91.3353 196.501C88.5588 193.727 86.6681 190.192 85.9023 186.343C85.1365 182.495 85.53 178.506 87.0331 174.881C88.5362 171.256 91.0813 168.158 94.3465 165.979C97.6118 163.799 101.451 162.636 105.377 162.637C107.986 162.63 110.571 163.138 112.983 164.133C115.395 165.127 117.586 166.588 119.431 168.432C121.275 170.276 122.737 172.465 123.732 174.875C124.727 177.285 125.236 179.868 125.229 182.475Z" fill="#990163"/>
<path d="M31.4982 184.633H80.6601" stroke="#990163" stroke-width="10" stroke-miterlimit="10"/>
<path d="M36.4953 195.834L80.6604 195.294" stroke="#990163" stroke-width="10" stroke-miterlimit="10"/>
<path d="M118.032 188.795V197.767C114.473 200.704 110.002 202.31 105.386 202.31C100.771 202.31 96.2993 200.704 92.7405 197.767V188.795L104.902 183.461L118.032 188.795Z" fill="#FFDCEB"/>
<path d="M105.378 185.43C108.977 185.43 111.894 182.098 111.894 177.989C111.894 173.879 108.977 170.548 105.378 170.548C101.779 170.548 98.8611 173.879 98.8611 177.989C98.8611 182.098 101.779 185.43 105.378 185.43Z" fill="#212121"/>
<path d="M110.001 175.561V174.131H100.755V175.561C100.55 175.561 100.354 175.642 100.21 175.786C100.065 175.93 99.9832 176.125 99.9825 176.33V179.191C99.9832 179.395 100.065 179.591 100.21 179.735C100.354 179.879 100.55 179.96 100.755 179.96V180.729C100.753 181.764 101.102 182.769 101.745 183.58V186.852C101.732 187.336 101.817 187.819 101.993 188.27C102.17 188.721 102.436 189.133 102.774 189.48C103.113 189.827 103.517 190.103 103.964 190.291C104.411 190.48 104.892 190.577 105.377 190.577C105.862 190.577 106.342 190.48 106.789 190.291C107.236 190.103 107.64 189.827 107.979 189.48C108.317 189.133 108.583 188.721 108.76 188.27C108.937 187.819 109.021 187.336 109.009 186.852V183.58C109.651 182.769 110 181.764 109.999 180.729V179.96C110.203 179.96 110.398 179.879 110.543 179.735C110.687 179.59 110.768 179.395 110.768 179.191V176.33C110.768 176.126 110.687 175.931 110.544 175.787C110.4 175.643 110.205 175.561 110.001 175.561Z" fill="white"/>
<path d="M107.222 110.619C105.905 110.216 104.747 110.171 103.534 110.619C101.554 111.361 100.03 112.926 100.485 114.993L101.022 118.797C101.022 118.797 104.371 114.682 108.469 114.773L109.865 118.797L110.266 114.993C110.726 112.926 109.246 111.239 107.222 110.619Z" fill="#212121"/>
<path d="M105.377 170.854C104.495 170.863 103.628 171.085 102.85 171.502H102.833L102.801 171.52H102.786C101.63 172.13 100.665 172.887 100.558 174.631C100.558 174.702 100.558 174.772 100.558 174.841C100.362 174.971 100.193 175.139 100.063 175.335C99.6658 175.953 99.4222 176.658 99.3528 177.389C99.2835 178.12 99.3905 178.858 99.665 179.539C99.7866 179.796 99.8868 180.062 99.9644 180.336C100.005 180.469 100.017 180.608 100 180.746C99.9837 180.884 99.9386 181.017 99.8679 181.137C100.259 180.927 100.596 180.63 100.854 180.269C101.111 179.908 101.282 179.492 101.353 179.055C101.537 179.521 101.636 180.017 101.645 180.519C101.6 181.217 101.333 181.884 100.883 182.42C100.436 182.953 99.9334 183.435 99.3828 183.86C100.184 183.572 100.913 183.116 101.523 182.522C102.133 181.929 102.608 181.212 102.917 180.42C103.283 179.458 103.392 178.419 103.511 177.395C103.574 176.74 103.68 176.09 103.828 175.449C104.343 175.519 104.862 175.554 105.382 175.553C106.825 175.553 108.104 175.306 108.961 174.908C109.243 175.214 109.605 175.437 110.005 175.553L110.54 173.958C110.535 173.951 107.929 170.854 105.377 170.854Z" fill="#212121"/>
<path d="M140.62 20.0307H100.526C100.526 14.7182 102.638 9.62333 106.398 5.86685C110.157 2.11037 115.256 0 120.573 0C125.89 0 130.989 2.11037 134.748 5.86685C138.508 9.62333 140.62 14.7182 140.62 20.0307Z" fill="#28001A"/>
<path d="M268.092 20.0307C268.092 14.7182 265.98 9.62333 262.22 5.86685C258.461 2.11037 253.361 0 248.045 0H120.586C125.903 0 131.002 2.11037 134.761 5.86685C138.521 9.62333 140.633 14.7182 140.633 20.0307V225.729H268.104L268.092 20.0307Z" fill="#E60062"/>
<path d="M234.999 48.756C234.999 54.812 233.202 60.7321 229.835 65.7674C226.468 70.8028 221.682 74.7275 216.082 77.045C210.482 79.3625 204.321 79.9689 198.376 78.7874C192.432 77.606 186.972 74.6897 182.686 70.4075C178.4 66.1252 175.482 60.6693 174.299 54.7296C173.117 48.79 173.724 42.6334 176.043 37.0384C178.362 31.4433 182.29 26.6612 187.33 23.2966C192.369 19.9321 198.294 18.1363 204.355 18.1363C208.382 18.1275 212.371 18.9135 216.092 20.4491C219.814 21.9848 223.196 24.2399 226.044 27.085C228.891 29.93 231.148 33.309 232.685 37.0279C234.222 40.7469 235.008 44.7325 234.999 48.756Z" fill="white"/>
<path d="M223.874 58.512V72.3604C218.381 76.8938 211.479 79.3736 204.355 79.3736C197.23 79.3736 190.328 76.8938 184.835 72.3604V58.512L198.746 52.4113L199.682 51.9984L203.605 50.2797L208.527 52.2778L209.958 52.8614L223.874 58.512Z" fill="#FFDCEB"/>
<path d="M204.354 53.3164C209.909 53.3164 214.412 48.1747 214.412 41.8322C214.412 35.4896 209.909 30.3479 204.354 30.3479C198.799 30.3479 194.296 35.4896 194.296 41.8322C194.296 48.1747 198.799 53.3164 204.354 53.3164Z" fill="#990163"/>
<path d="M211.489 38.0857V35.8774H197.229V38.0857C196.914 38.0857 196.611 38.2107 196.388 38.4332C196.165 38.6558 196.039 38.9577 196.039 39.2727V43.6869C196.039 44.0019 196.165 44.3038 196.388 44.5264C196.611 44.7489 196.914 44.8739 197.229 44.8739V46.056C197.228 47.6534 197.767 49.2043 198.758 50.4578V55.505C198.743 56.2506 198.876 56.9919 199.151 57.6853C199.426 58.3787 199.836 59.0104 200.358 59.5433C200.881 60.0761 201.504 60.4995 202.192 60.7885C202.88 61.0775 203.619 61.2264 204.365 61.2264C205.112 61.2264 205.851 61.0775 206.539 60.7885C207.227 60.4995 207.85 60.0761 208.372 59.5433C208.895 59.0104 209.305 58.3787 209.58 57.6853C209.855 56.9919 209.988 56.2506 209.972 55.505V50.4652C210.962 49.2109 211.5 47.6604 211.499 46.0634V44.8739C211.656 44.8742 211.81 44.8438 211.955 44.7842C212.099 44.7247 212.23 44.6374 212.341 44.5271C212.452 44.4168 212.539 44.2859 212.599 44.1417C212.659 43.9975 212.69 43.843 212.69 43.6869V39.2727C212.69 39.1158 212.659 38.9604 212.598 38.8156C212.538 38.6708 212.449 38.5394 212.338 38.429C212.226 38.3186 212.093 38.2314 211.948 38.1725C211.802 38.1136 211.647 38.0841 211.489 38.0857Z" fill="#F5BDC8"/>
<path d="M204.355 30.8201C202.994 30.8295 201.656 31.169 200.457 31.8093L200.429 31.8217L200.377 31.8489L200.358 31.8612C198.573 32.8034 197.083 33.9706 196.893 36.6637C196.893 36.77 196.893 36.8788 196.88 36.9876C196.583 37.1935 196.33 37.4577 196.138 37.7641C195.522 38.7192 195.145 39.8079 195.038 40.9388C194.932 42.0697 195.098 43.2097 195.524 44.263C195.71 44.6487 195.866 45.048 195.992 45.4574C196.052 45.663 196.069 45.8788 196.043 46.0915C196.017 46.3041 195.947 46.5091 195.838 46.6938C196.442 46.3704 196.964 45.9121 197.362 45.3545C197.76 44.7969 198.023 44.1551 198.133 43.479C198.417 44.1994 198.57 44.965 198.583 45.7393C198.513 46.8176 198.101 47.8457 197.407 48.6747C196.717 49.4965 195.942 50.2425 195.093 50.9003C196.328 50.4551 197.453 49.7506 198.392 48.8343C199.331 47.918 200.063 46.8112 200.538 45.5884C201.105 44.1047 201.281 42.5022 201.454 40.922C201.553 39.9116 201.718 38.9087 201.949 37.9199C202.743 38.0262 203.543 38.0791 204.345 38.0782C206.572 38.0782 208.552 37.6899 209.871 37.089C210.306 37.5599 210.863 37.9021 211.48 38.0782L212.306 35.6052C212.326 35.5978 208.295 30.8201 204.355 30.8201Z" fill="#990163"/>
<path d="M258.998 105.406H149.78" stroke="white" stroke-width="10" stroke-miterlimit="10"/>
<path d="M149.78 116.606L258.998 116.067" stroke="white" stroke-width="10" stroke-miterlimit="10"/>
<path d="M149.78 126.747L258.998 126.206" stroke="white" stroke-width="10" stroke-miterlimit="10"/>
<path d="M149.78 136.886L258.998 136.345" stroke="white" stroke-width="10" stroke-miterlimit="10"/>
<path d="M149.78 147.025L258.998 146.486" stroke="white" stroke-width="10" stroke-miterlimit="10"/>
<path d="M149.78 157.164L258.998 156.625" stroke="white" stroke-width="10" stroke-miterlimit="10"/>
<path d="M149.78 167.303L258.998 166.764" stroke="white" stroke-width="10" stroke-miterlimit="10"/>
<path d="M149.78 177.442L258.998 176.903" stroke="white" stroke-width="10" stroke-miterlimit="10"/>
<path d="M149.78 187.581L258.998 187.042" stroke="white" stroke-width="10" stroke-miterlimit="10"/>
<path d="M149.78 197.72L258.998 197.181" stroke="white" stroke-width="10" stroke-miterlimit="10"/>
<path d="M173.881 89.8118C173.919 89.7746 173.945 89.7276 173.957 89.6761C173.969 89.6247 173.966 89.5709 173.949 89.5209C173.932 89.4709 173.902 89.4267 173.861 89.3933C173.82 89.3599 173.77 89.3387 173.718 89.332L170.335 88.8375C170.289 88.8312 170.246 88.814 170.209 88.7873C170.172 88.7606 170.142 88.7251 170.122 88.6841L168.617 85.6227C168.593 85.5783 168.557 85.5413 168.513 85.5155C168.47 85.4897 168.42 85.4761 168.369 85.4761C168.319 85.4761 168.269 85.4897 168.226 85.5155C168.182 85.5413 168.146 85.5783 168.122 85.6227L166.61 88.6866C166.59 88.7276 166.56 88.763 166.522 88.7898C166.485 88.8165 166.442 88.8337 166.397 88.8399L163.014 89.3345C162.961 89.3414 162.912 89.363 162.871 89.3967C162.831 89.4305 162.801 89.475 162.784 89.5252C162.768 89.5754 162.766 89.6292 162.779 89.6804C162.792 89.7315 162.819 89.7779 162.858 89.8143L165.306 92.1982C165.338 92.23 165.362 92.269 165.376 92.312C165.39 92.355 165.394 92.4007 165.387 92.4455L164.808 95.8136C164.799 95.8653 164.805 95.9183 164.825 95.9668C164.845 96.0153 164.878 96.0573 164.92 96.0882C164.963 96.119 165.013 96.1374 165.065 96.1413C165.118 96.1452 165.17 96.1345 165.216 96.1103L168.233 94.5252C168.274 94.5033 168.319 94.4919 168.365 94.4919C168.41 94.4919 168.455 94.5033 168.496 94.5252L171.523 96.1153C171.569 96.1394 171.621 96.1502 171.674 96.1462C171.726 96.1423 171.776 96.1239 171.819 96.0931C171.861 96.0623 171.894 96.0203 171.914 95.9718C171.934 95.9233 171.94 95.8702 171.931 95.8185L171.352 92.4504C171.345 92.4057 171.349 92.3599 171.363 92.317C171.377 92.274 171.401 92.235 171.433 92.2031L173.881 89.8118Z" fill="white"/>
<path d="M191.877 89.8118C191.915 89.7755 191.942 89.729 191.955 89.6779C191.968 89.6267 191.966 89.573 191.95 89.5228C191.934 89.4726 191.904 89.428 191.863 89.3943C191.822 89.3605 191.773 89.3389 191.721 89.332L188.337 88.8375C188.292 88.8315 188.249 88.8143 188.213 88.7876C188.176 88.7608 188.146 88.7252 188.127 88.6841L186.612 85.6227C186.588 85.5783 186.552 85.5413 186.509 85.5155C186.465 85.4897 186.415 85.4761 186.365 85.4761C186.314 85.4761 186.265 85.4897 186.221 85.5155C186.178 85.5413 186.142 85.5783 186.117 85.6227L184.608 88.6866C184.587 88.7276 184.557 88.763 184.52 88.7898C184.483 88.8165 184.44 88.8337 184.395 88.8399L181.012 89.3345C180.96 89.3423 180.911 89.3644 180.871 89.3982C180.831 89.4321 180.801 89.4764 180.785 89.5262C180.769 89.576 180.767 89.6294 180.779 89.6803C180.792 89.7311 180.818 89.7775 180.856 89.8143L183.303 92.1982C183.336 92.23 183.36 92.269 183.374 92.312C183.388 92.355 183.392 92.4007 183.385 92.4455L182.806 95.8136C182.797 95.8656 182.803 95.9191 182.823 95.968C182.843 96.0168 182.876 96.0592 182.919 96.0901C182.961 96.121 183.012 96.1393 183.065 96.1429C183.118 96.1465 183.17 96.1352 183.217 96.1103L186.229 94.5252C186.269 94.5033 186.314 94.4919 186.36 94.4919C186.406 94.4919 186.451 94.5033 186.491 94.5252L189.518 96.1153C189.564 96.1394 189.617 96.1502 189.669 96.1462C189.721 96.1423 189.772 96.1239 189.814 96.0931C189.856 96.0623 189.889 96.0203 189.909 95.9718C189.929 95.9233 189.935 95.8702 189.926 95.8185L189.347 92.4504C189.34 92.4057 189.344 92.3599 189.358 92.317C189.373 92.274 189.397 92.235 189.429 92.2031L191.877 89.8118Z" fill="white"/>
<path d="M209.871 89.8118C209.909 89.7755 209.937 89.729 209.95 89.6779C209.963 89.6267 209.961 89.573 209.944 89.5228C209.928 89.4726 209.898 89.428 209.857 89.3943C209.817 89.3605 209.767 89.3389 209.715 89.332L206.332 88.8375C206.287 88.8315 206.244 88.8143 206.207 88.7876C206.17 88.7608 206.141 88.7252 206.122 88.6841L204.607 85.6227C204.583 85.5783 204.547 85.5413 204.503 85.5155C204.46 85.4897 204.41 85.4761 204.359 85.4761C204.309 85.4761 204.259 85.4897 204.215 85.5155C204.172 85.5413 204.136 85.5783 204.112 85.6227L202.6 88.6866C202.579 88.7276 202.549 88.763 202.512 88.7898C202.475 88.8165 202.432 88.8337 202.387 88.8399L199.004 89.3345C198.952 89.3423 198.903 89.3644 198.863 89.3982C198.823 89.4321 198.793 89.4764 198.777 89.5262C198.761 89.576 198.759 89.6294 198.771 89.6803C198.784 89.7311 198.81 89.7775 198.848 89.8143L201.295 92.1982C201.328 92.23 201.352 92.269 201.366 92.312C201.38 92.355 201.384 92.4007 201.377 92.4455L200.798 95.8136C200.789 95.8656 200.795 95.9191 200.815 95.968C200.835 96.0168 200.868 96.0592 200.911 96.0901C200.953 96.121 201.004 96.1393 201.057 96.1429C201.109 96.1465 201.162 96.1352 201.209 96.1103L204.233 94.5202C204.273 94.4984 204.318 94.4869 204.364 94.4869C204.41 94.4869 204.455 94.4984 204.495 94.5202L207.522 96.1103C207.569 96.1345 207.621 96.1452 207.673 96.1413C207.726 96.1374 207.776 96.119 207.818 96.0882C207.861 96.0573 207.894 96.0153 207.914 95.9668C207.933 95.9183 207.939 95.8653 207.931 95.8136L207.354 92.4455C207.347 92.4009 207.35 92.3552 207.364 92.3122C207.377 92.2692 207.401 92.2301 207.433 92.1982L209.871 89.8118Z" fill="white"/>
<path d="M227.869 89.8116C227.906 89.7749 227.933 89.7285 227.945 89.6776C227.958 89.6267 227.956 89.5734 227.939 89.5236C227.923 89.4738 227.893 89.4294 227.853 89.3956C227.813 89.3617 227.765 89.3397 227.713 89.3319L224.33 88.8373C224.284 88.8317 224.241 88.8147 224.204 88.7879C224.166 88.7611 224.137 88.7254 224.117 88.684L222.605 85.6225C222.58 85.5788 222.544 85.5424 222.5 85.5172C222.457 85.4919 222.408 85.4785 222.357 85.4785C222.307 85.4785 222.257 85.4919 222.214 85.5172C222.171 85.5424 222.135 85.5788 222.11 85.6225L220.598 88.6864C220.577 88.7274 220.547 88.7629 220.51 88.7896C220.473 88.8163 220.43 88.8336 220.385 88.8398L217.001 89.3344C216.95 89.3421 216.901 89.3642 216.861 89.3981C216.821 89.4319 216.791 89.4762 216.775 89.5261C216.759 89.5759 216.757 89.6292 216.769 89.6801C216.782 89.731 216.808 89.7774 216.846 89.8141L219.293 92.198C219.325 92.2299 219.35 92.2689 219.364 92.3119C219.378 92.3548 219.382 92.4006 219.375 92.4453L218.798 95.8134C218.79 95.8651 218.795 95.9182 218.815 95.9667C218.835 96.0152 218.868 96.0572 218.911 96.088C218.953 96.1188 219.003 96.1372 219.055 96.1411C219.108 96.1451 219.16 96.1343 219.207 96.1102L222.226 94.525C222.266 94.5032 222.311 94.4917 222.357 94.4917C222.403 94.4917 222.448 94.5032 222.488 94.525L225.515 96.1151C225.562 96.1393 225.614 96.15 225.666 96.1461C225.719 96.1422 225.769 96.1238 225.811 96.0929C225.854 96.0621 225.887 96.0201 225.906 95.9716C225.926 95.9231 225.932 95.87 225.924 95.8184L225.347 92.4502C225.339 92.4055 225.343 92.3596 225.357 92.3165C225.371 92.2734 225.396 92.2344 225.429 92.2029L227.869 89.8116Z" fill="white"/>
<path d="M245.864 89.8116C245.901 89.7749 245.928 89.7285 245.94 89.6776C245.952 89.6267 245.95 89.5734 245.934 89.5236C245.918 89.4738 245.888 89.4294 245.848 89.3956C245.808 89.3617 245.76 89.3397 245.708 89.3319L242.325 88.8373C242.279 88.8311 242.236 88.8139 242.199 88.7871C242.162 88.7604 242.132 88.725 242.112 88.684L240.6 85.6225C240.575 85.5788 240.539 85.5424 240.495 85.5172C240.452 85.4919 240.402 85.4785 240.352 85.4785C240.302 85.4785 240.252 85.4919 240.209 85.5172C240.165 85.5424 240.129 85.5788 240.105 85.6225L238.592 88.6864C238.573 88.7277 238.543 88.7634 238.506 88.7901C238.468 88.8169 238.425 88.834 238.38 88.8398L234.996 89.3344C234.945 89.3421 234.896 89.3642 234.856 89.3981C234.816 89.4319 234.786 89.4762 234.77 89.5261C234.754 89.5759 234.752 89.6292 234.764 89.6801C234.777 89.731 234.803 89.7774 234.84 89.8141L237.288 92.198C237.321 92.2295 237.345 92.2685 237.36 92.3116C237.374 92.3546 237.377 92.4005 237.37 92.4453L236.793 95.8134C236.784 95.8651 236.79 95.9182 236.81 95.9667C236.83 96.0152 236.863 96.0572 236.905 96.088C236.948 96.1188 236.998 96.1372 237.05 96.1411C237.103 96.1451 237.155 96.1343 237.202 96.1102L240.228 94.5201C240.269 94.4982 240.314 94.4868 240.36 94.4868C240.405 94.4868 240.45 94.4982 240.491 94.5201L243.515 96.1102C243.562 96.1343 243.614 96.1451 243.666 96.1411C243.719 96.1372 243.769 96.1188 243.811 96.088C243.854 96.0572 243.887 96.0152 243.906 95.9667C243.926 95.9182 243.932 95.8651 243.923 95.8134L243.347 92.4453C243.34 92.4006 243.344 92.3548 243.358 92.3119C243.372 92.2689 243.396 92.2299 243.428 92.198L245.864 89.8116Z" fill="white"/>
<path d="M255.1 72.2685L251.096 84.8508C251.022 84.7642 250.95 84.6703 250.878 84.5788C248.676 81.6898 246.864 78.5236 245.49 75.1619C244.208 71.992 243.2 68.7183 242.478 65.3765C241.852 62.5895 241.317 59.6195 240.746 55.7494C240.221 52.2502 239.805 48.8252 239.508 46.2385C239.464 45.8827 239.498 45.5216 239.607 45.1801C239.769 44.6995 240.058 44.2715 240.444 43.9415C240.83 43.6116 241.297 43.3919 241.797 43.3057C243.248 43.0336 244.656 43.8571 245.015 45.1826C246.005 48.8648 246.792 51.6567 247.571 54.236C248.631 57.75 249.564 60.5271 250.504 62.9728C251.521 65.7082 252.772 68.3508 254.244 70.8713C254.509 71.3486 254.801 71.8111 255.1 72.2685Z" fill="#F5BDC8"/>
<path d="M293.37 105.665L295.291 99.6315C295.354 100.706 295.217 101.782 294.888 102.807C294.793 103.107 294.683 103.401 294.558 103.69C294.249 104.397 293.85 105.061 293.37 105.665Z" fill="#F5B48E"/>
<path d="M284.277 108.588C282.488 107.654 280.785 106.758 279.144 105.883L280.216 102.522L273.952 99.0998L272.363 102.151C271.267 101.526 270.183 100.89 269.091 100.237C266.663 98.7685 264.065 97.1611 261.52 95.3311C258.937 93.5071 256.496 91.4891 254.219 89.2947C253.873 88.9534 253.534 88.6122 253.2 88.2635L257.001 87.1482L243.342 59.538L240.516 60.2205C240.248 58.7862 239.996 57.2851 239.746 55.7L239.664 55.156L248.423 53.2221L248.574 53.7538C249.386 56.6175 250.185 59.1497 251.017 61.4965C251.86 63.9363 252.86 66.3193 254.009 68.6309C255.073 70.7705 256.372 72.7851 257.882 74.6377C259.363 76.4207 261.047 78.0242 262.901 79.4154C263.449 79.8341 264.027 80.2463 264.634 80.6518L263.015 83.053L279.102 94.0501L281.55 89.0449C284.849 90.3877 288.156 91.6464 291.328 92.8285C294.712 94.1095 296.306 98.4198 294.962 102.646C294.848 103 294.717 103.347 294.568 103.687C293.484 106.16 291.564 108.052 289.297 108.858C288.487 109.162 287.623 109.295 286.759 109.249C285.895 109.202 285.05 108.978 284.277 108.588Z" fill="white"/>
<path d="M284.549 108.066C279.51 105.44 274.446 102.75 269.398 99.7327C266.876 98.2094 264.351 96.6415 261.866 94.8536C259.312 93.0463 256.898 91.0474 254.647 88.8741C252.314 86.6107 250.253 84.0827 248.507 81.3416C246.819 78.6498 245.431 75.7814 244.369 72.7877C243.372 69.9572 242.556 67.0663 241.926 64.1325C241.29 61.2688 240.78 58.4324 240.342 55.6133L248.014 53.9144C248.757 56.5653 249.573 59.1718 250.469 61.6942C251.321 64.1573 252.329 66.5634 253.489 68.8978C254.572 71.0765 255.895 73.1276 257.434 75.0133C258.944 76.8293 260.661 78.4634 262.549 79.8825C266.373 82.7833 271.009 85.1325 275.894 87.3013C280.78 89.4701 285.918 91.441 291.11 93.3822C294.508 94.6681 295.859 99.2381 294.021 103.452C292.182 107.666 287.875 109.79 284.549 108.066Z" fill="#FF2D86"/>
<path d="M279.659 286.577L257.632 286.728C257.602 285.992 257.814 285.267 258.236 284.663C258.753 283.983 259.597 283.624 260.436 283.474C261.275 283.323 262.138 283.355 262.99 283.308C265.087 283.189 267.128 282.583 268.95 281.537C269.897 280.998 270.783 280.335 271.808 279.955L277.81 280.071C278.628 280.979 279.19 282.089 279.436 283.286C279.66 284.368 279.735 285.475 279.659 286.577Z" fill="#990163"/>
<path d="M328.486 286.604L306.46 286.728C306.432 285.992 306.645 285.267 307.066 284.663C307.586 283.983 308.43 283.627 309.266 283.476C310.103 283.325 310.971 283.362 311.823 283.315C313.92 283.199 315.962 282.595 317.785 281.552C318.733 281.013 319.621 280.353 320.646 279.972L326.648 280.098C327.464 281.007 328.023 282.116 328.269 283.313C328.492 284.395 328.565 285.502 328.486 286.604Z" fill="#990163"/>
<path d="M325.739 165.827L304.316 165.975C304.274 167.09 278.941 159.595 278.54 165.5L273.434 207.345C273.028 210.667 272.776 214.001 272.677 217.348L270.791 280.306L278.463 280.259L300.812 190.88L319.574 280.026L327.247 280.105L325.739 165.827Z" fill="#FFDCEB"/>
<path d="M325.747 165.925C308.833 171.499 297.751 174.796 278.54 165.51L278.768 121.363L278.825 114.771L278.85 112.352L278.889 107.693C278.889 107.04 278.926 106.395 278.988 105.762C279.506 100.354 282.145 95.3715 286.327 91.9018C290.51 88.4322 295.898 86.7577 301.312 87.2444C301.646 87.2716 301.978 87.3087 302.302 87.3532C304.003 87.565 305.677 87.9538 307.297 88.513C312.172 90.1768 316.422 93.2915 319.475 97.4389C322.527 101.586 324.237 106.568 324.374 111.714L324.391 112.352L324.455 114.771L324.539 117.832L325.747 165.925Z" fill="#FF2D86"/>
<path d="M278.271 142.168L278.162 163.619L278.551 163.631L278.659 142.168H278.271ZM301.347 86.8591C300.723 86.8046 300.092 86.7774 299.471 86.7774C294.258 86.7803 289.233 88.7224 285.375 92.2251C281.516 95.7278 279.101 100.54 278.6 105.725C278.538 106.368 278.506 107.031 278.504 107.703L278.459 112.362L278.437 114.781L278.38 121.346H278.766L278.825 114.783L278.848 112.365L278.892 107.706C278.892 107.046 278.923 106.402 278.986 105.772C279.506 100.365 282.145 95.3833 286.328 91.9143C290.511 88.4454 295.898 86.7711 301.312 87.2572L301.595 87.2844V86.8937L301.347 86.8591ZM324.921 117.823L324.837 114.766L324.79 113.084H324.401L324.448 114.768L324.532 117.83L324.918 133.118H325.307L324.921 117.823ZM325.938 158.109H325.549L325.747 165.928C313.494 169.964 304.302 172.808 292.866 170.538L292.499 170.857C295.278 171.435 298.108 171.728 300.946 171.732C308.787 171.732 315.905 169.581 325.866 166.292L326.141 166.2L325.938 158.109Z" fill="white"/>
<path d="M293.751 78.2877L293.914 93.0411C297.145 95.0887 300.351 95.0533 303.534 92.9348L303.373 78.1813L293.751 78.2877Z" fill="#F5BDC8"/>
<path d="M293.751 78.2877L293.825 84.9646C294.519 85.2239 295.247 85.3829 295.986 85.4369C296.233 85.4517 296.481 85.4591 296.711 85.4567C298.003 85.4378 299.275 85.1302 300.433 84.5564C301.591 83.9826 302.606 83.1571 303.403 82.1405L303.361 78.1838L293.751 78.2877Z" fill="#EA8096"/>
<path d="M289.271 69.3012L289.573 75.4637L289.695 77.9564C289.776 79.6274 290.467 81.2108 291.636 82.408C292.805 83.6052 294.373 84.3335 296.043 84.4553C297.164 84.5386 298.289 84.3748 299.339 83.9755C299.587 83.884 299.812 83.7802 300.037 83.6689C300.179 83.5996 300.318 83.5255 300.453 83.4463C301.788 82.6798 302.855 81.5222 303.51 80.1301C304.074 78.9308 304.604 77.6078 305.109 76.213C305.398 75.4167 305.68 74.5933 305.955 73.7599C307.173 70.0826 306.331 65.9776 303.621 63.2079C301.312 60.8438 298.424 60.1365 294.946 61.1999C293.233 61.7269 291.745 62.8098 290.717 64.2771C289.689 65.7445 289.181 67.5124 289.271 69.3012Z" fill="#F5BDC8"/>
<path d="M306.46 71.7344C308.868 64.2043 305.007 62.9159 305.007 62.9134C305.072 62.9357 305.119 61.9465 305.109 61.8575C305.073 61.4857 304.972 61.1232 304.809 60.7867C303.664 58.3707 301.097 58.7243 298.87 58.749C298.287 58.7788 297.705 58.6888 297.159 58.4846C296.613 58.2804 296.114 57.9664 295.694 57.562C294.749 56.6644 294.162 55.4501 293.081 54.6835C291.425 53.5089 289.019 54.3027 287.916 55.8532C287.652 56.2209 287.454 56.6318 287.331 57.0674C286.686 59.3524 286.963 62.2037 288.495 64.0955C289.883 65.8117 292.363 66.3013 294.434 66.5486C295.12 66.6302 295.808 66.6871 296.496 66.739C300.055 67.0135 301.654 64.0732 301.654 64.0732C300.845 64.8769 300.483 67.4809 301.181 69.1106C301.879 70.7402 301.208 73.6657 301.208 73.6657L301.456 73.6261C303.074 71.2175 304.854 70.3644 306.46 71.7344Z" fill="#990163"/>
<path d="M290.626 65.6437C290.626 65.6437 289.596 68.6755 289.465 73.243C289.465 73.243 288.26 68.1982 289.356 64.6644L290.626 65.6437Z" fill="#990163"/>
<path d="M304.855 76.8242C306.846 76.8024 308.445 75.3498 308.425 73.5799C308.406 71.81 306.776 70.3929 304.784 70.4148C302.793 70.4367 301.194 71.8892 301.214 73.6591C301.233 75.429 302.863 76.8461 304.855 76.8242Z" fill="#F5BDC8"/>
<path d="M290.179 125.404L260.921 139.897L282.128 182.641L311.387 168.148L290.179 125.404Z" fill="#990163"/>
<path d="M291.393 145.962H304.609C304.547 146.058 304.48 146.155 304.414 146.249C302.327 149.219 299.857 151.901 297.068 154.226C294.435 156.408 291.62 158.359 288.653 160.06C286.178 161.502 283.515 162.914 279.991 164.637C276.813 166.198 273.677 167.629 271.299 168.708C270.973 168.858 270.618 168.936 270.26 168.935C269.752 168.927 269.257 168.781 268.826 168.514C268.394 168.248 268.043 167.869 267.809 167.419C267.109 166.121 267.468 164.528 268.626 163.794C271.844 161.734 274.262 160.139 276.484 158.616C279.516 156.541 281.882 154.812 283.929 153.175C286.229 151.377 288.369 149.384 290.326 147.218C290.698 146.795 291.049 146.377 291.393 145.962Z" fill="#F5BDC8"/>
<path d="M311.642 99.3889H305.306C306.312 99.004 307.38 98.8079 308.457 98.8102C308.772 98.8099 309.087 98.8256 309.4 98.8572C310.167 98.9361 310.921 99.1148 311.642 99.3889Z" fill="#F5B48E"/>
<path d="M317.188 107.159C316.839 109.137 316.503 111.041 316.164 112.866H312.635L311.266 119.862L314.659 120.448C314.394 121.685 314.117 122.909 313.828 124.145C313.162 126.903 312.417 129.863 311.444 132.843C310.486 135.854 309.3 138.789 307.898 141.622C307.68 142.057 307.457 142.482 307.224 142.905L304.997 139.626L282.809 160.999L284.316 163.472C283.03 164.162 281.673 164.86 280.238 165.577L279.743 165.824L275.253 158.079L275.716 157.772C278.191 156.133 280.371 154.602 282.359 153.098C284.43 151.556 286.4 149.883 288.257 148.088C289.973 146.426 291.5 144.579 292.81 142.581C294.061 140.63 295.079 138.539 295.845 136.352C296.077 135.704 296.295 135.034 296.501 134.336L299.28 135.15L304.893 116.504L299.379 115.691C299.659 112.142 299.854 108.611 300.022 105.233C300.215 101.625 303.844 98.8029 308.284 98.8029C308.655 98.8031 309.026 98.8229 309.395 98.8622C312.09 99.1392 314.469 100.398 315.924 102.324C316.456 103 316.843 103.778 317.06 104.61C317.278 105.442 317.321 106.309 317.188 107.159Z" fill="white"/>
<path d="M316.609 107.06C315.632 112.654 314.6 118.29 313.253 124.015C312.568 126.878 311.835 129.754 310.882 132.67C309.932 135.652 308.756 138.557 307.363 141.36C305.911 144.267 304.125 146.996 302.042 149.491C299.986 151.914 297.671 154.104 295.137 156.022C292.74 157.828 290.23 159.48 287.623 160.967C285.086 162.439 282.534 163.784 279.978 165.058L276.018 158.257C278.317 156.739 280.559 155.178 282.7 153.559C284.791 152 286.779 150.31 288.655 148.499C290.404 146.807 291.958 144.926 293.29 142.89C294.568 140.909 295.612 138.786 296.399 136.565C298.005 132.044 298.842 126.92 299.423 121.611C300.005 116.302 300.332 110.812 300.609 105.277C300.804 101.654 304.754 98.9811 309.333 99.456C313.911 99.9308 317.243 103.371 316.609 107.06Z" fill="#FF2D86"/>
</svg>
