<svg width="120" height="120" viewBox="0 0 120 120" fill="none" xmlns="http://www.w3.org/2000/svg">
<g clip-path="url(#clip0_888_6249)">
<path d="M26.4 0C11.7563 0 0 11.7563 0 26.4V93.6C0 96.3375 0.909374 98.8031 2.4 100.8V108C2.4 112.078 5.52187 115.2 9.6 115.2H19.2C23.2781 115.2 26.4 112.078 26.4 108V105.6H52.8V90.75C52.8 88.5938 53.2781 86.1469 54 84.225L57.825 75.6L60.225 70.35C60.7031 69.3938 61.2281 68.3719 61.95 67.65H16.8C14.1563 67.65 12 65.4938 12 62.85V31.2C12 28.5563 14.1563 26.4 16.8 26.4H74.4C77.0438 26.4 79.2 28.5563 79.2 31.2V60H91.2V26.4C91.2 11.7563 79.4438 0 64.8 0H26.4ZM28.8 9.6H64.8C66.2438 9.6 67.2 10.5563 67.2 12V16.8C67.2 18.2438 66.2438 19.2 64.8 19.2H28.8C27.3563 19.2 26.4 18.2438 26.4 16.8V12C26.4 10.5563 27.3563 9.6 28.8 9.6ZM75.825 64.8C71.025 64.8 66.9563 67.4438 64.8 72L62.4 77.25L58.575 85.95C58.0969 87.3938 57.6 89.0719 57.6 90.75V115.2C57.6 118.078 59.5219 120 62.4 120H69.6C72.4781 120 74.4 118.078 74.4 115.2V112.8H103.2V115.2C103.2 118.078 105.122 120 108 120H115.2C118.078 120 120 118.078 120 115.2V90.75C120 89.0719 119.747 87.6281 119.025 85.95L112.8 72C110.644 67.6781 106.575 64.8 101.775 64.8H75.825ZM76.05 69.6H102C104.878 69.6 107.55 71.3063 108.75 73.95L111.825 80.625C112.069 81.3469 112.35 81.8531 112.35 82.575V86.4C112.35 87.8438 111.394 88.8 109.95 88.8H68.175C66.7313 88.8 65.775 87.8438 65.775 86.4V82.575C65.775 81.8531 65.9813 81.1031 66.225 80.625L69.375 73.95C70.575 71.3063 73.1719 69.6 76.05 69.6ZM20.4 76.8C24.9563 76.8 28.8 80.6438 28.8 85.2C28.8 89.7563 24.9563 93.6 20.4 93.6C15.8438 93.6 12 89.7563 12 85.2C12 80.6438 15.8438 76.8 20.4 76.8ZM72 93.6C74.6438 93.6 76.8 95.7563 76.8 98.4C76.8 101.044 74.6438 103.2 72 103.2C69.3563 103.2 67.2 101.044 67.2 98.4C67.2 95.7563 69.3563 93.6 72 93.6ZM105.6 93.6C108.244 93.6 110.4 95.7563 110.4 98.4C110.4 101.044 108.244 103.2 105.6 103.2C102.956 103.2 100.8 101.044 100.8 98.4C100.8 95.7563 102.956 93.6 105.6 93.6Z" fill="#E60062"/>
</g>
<defs>
<clipPath id="clip0_888_6249">
<rect width="120" height="120" fill="white"/>
</clipPath>
</defs>
</svg>
