<svg width="55" height="55" viewBox="0 0 55 55" fill="none" xmlns="http://www.w3.org/2000/svg">
<path d="M41.4559 26.9726L44.8246 41.4788L32.0831 33.7788L19.3415 41.4788L22.6873 26.9726L11.4582 17.1873L26.2852 15.9498L32.0831 2.29158L37.8809 15.9498L52.7079 17.1873L41.4559 26.9726ZM4.5833 28.4851C5.01872 28.4851 5.45413 28.3476 5.84371 28.0955L13.177 23.2602L9.57909 20.1435L3.3229 24.2685C2.26645 24.956 1.97312 26.3539 2.65832 27.4997C3.11665 28.1184 3.84998 28.4851 4.5833 28.4851ZM2.65832 49.3849C3.11665 50.0495 3.84998 50.4162 4.5833 50.4162C5.01872 50.4162 5.45413 50.3016 5.84371 50.0495L15.2624 43.8391L16.0415 40.6996L16.7519 37.3767L3.3229 46.1995C2.26645 46.91 1.97312 48.3308 2.65832 49.3849ZM3.3229 35.2455C2.8168 35.5779 2.46282 36.0971 2.3383 36.6896C2.21378 37.2822 2.32883 37.8999 2.65832 38.4079C3.11665 39.0954 3.84998 39.4392 4.5833 39.4392C5.01872 39.4392 5.45413 39.3246 5.84371 39.0725L18.2644 30.9372L18.8832 28.2101L16.7749 26.3539L3.3229 35.2455Z" fill="#E60062"/>
</svg>
