<svg width="34" height="34" viewBox="0 0 34 34" fill="none" xmlns="http://www.w3.org/2000/svg">
<path d="M18.6999 0.0849995V3.51898C25.4149 4.35198 30.5999 10.064 30.5999 16.9999C30.5999 22.4569 27.3359 27.1999 22.5759 29.3759L18.6999 25.4999V33.9998H27.1999L25.1259 31.9258C30.4469 29.0189 33.9998 23.3919 33.9998 16.9999C33.9998 8.19396 27.2849 0.934995 18.6999 0.0849995ZM15.2999 0C11.9849 0.339998 8.83996 1.63199 6.25597 3.75698L8.66996 6.17097C10.5996 4.68344 12.8856 3.728 15.2999 3.39998V0ZM3.73998 6.25597C1.63199 8.83996 0.339998 11.9849 0 15.2999H3.39998C3.72298 12.8859 4.67498 10.5909 6.17097 8.66996L3.73998 6.25597ZM6.79997 10.2V13.5999H11.8999V15.2999H10.2C8.32996 15.2999 6.79997 16.8299 6.79997 18.6999V23.7999H15.2999V20.3999H10.2V18.6999H11.8999C13.7869 18.6999 15.2999 17.1869 15.2999 15.2999V13.5999C15.2999 12.6982 14.9417 11.8334 14.3041 11.1958C13.6665 10.5582 12.8017 10.2 11.8999 10.2H6.79997ZM16.9999 10.2V18.6999H22.0999V23.7999H25.4999V18.6999H27.1999V15.2999H25.4999V10.2H22.0999V15.2999H20.3999V10.2H16.9999ZM0 18.6999C0.339998 22.0149 1.64899 25.1599 3.77398 27.7439L6.18797 25.3299C4.69539 23.4014 3.73415 21.1155 3.39998 18.6999H0ZM8.68696 27.8289L6.25597 30.2429C8.8389 32.3517 11.983 33.6578 15.2999 33.9998V30.5999C12.8888 30.2793 10.6064 29.3229 8.68696 27.8289Z" fill="#E60062"/>
</svg>
