<svg width="120" height="120" viewBox="0 0 120 120" fill="none" xmlns="http://www.w3.org/2000/svg">
<g clip-path="url(#clip0_859_3916)">
<path d="M115 55H90C88.6739 55 87.4021 55.5268 86.4645 56.4645C85.5268 57.4021 85 58.6739 85 60V105C85 106.326 85.5268 107.598 86.4645 108.536C87.4021 109.473 88.6739 110 90 110H115C116.326 110 117.598 109.473 118.536 108.536C119.473 107.598 120 106.326 120 105V60C120 58.6739 119.473 57.4021 118.536 56.4645C117.598 55.5268 116.326 55 115 55ZM115 100H90V65H115V100ZM100 10H10C4.45 10 0 14.45 0 20V80C0 82.6522 1.05357 85.1957 2.92893 87.0711C4.8043 88.9464 7.34784 90 10 90H45V100H35V110H75V100H65V90H75V80H10V20H100V45H110V20C110 17.3478 108.946 14.8043 107.071 12.9289C105.196 11.0536 102.652 10 100 10Z" fill="#E60062"/>
<path d="M64.8257 51.2009L67.9657 48.0609L60.4657 40.5609L57.3257 43.7009L49.0457 35.4409C47.4857 33.8809 44.9457 33.8809 43.3857 35.4409L39.5857 39.2409C38.0257 40.8009 38.0257 43.3409 39.5857 44.9009L47.8457 53.1609L38.6457 62.3809C38.4457 62.5809 38.3457 62.8209 38.3457 63.1009V69.1809C38.3457 69.7409 38.7857 70.1809 39.3457 70.1809H45.4257C45.6857 70.1809 45.9457 70.0809 46.1257 69.8809L55.3657 60.6409L63.6257 68.9009C66.2657 71.5409 69.1457 69.0409 69.2857 68.9009L73.0857 65.1009C74.6457 63.5409 74.6457 61.0009 73.0857 59.4409L64.8257 51.2009ZM50.7057 50.3209L42.4257 42.0609L46.2057 38.2609L48.7457 40.8009L47.8057 41.7809C47.4317 42.1548 47.2217 42.662 47.2217 43.1909C47.2217 43.7197 47.4317 44.2269 47.8057 44.6009C48.1797 44.9748 48.6869 45.1849 49.2157 45.1849C49.7446 45.1849 50.2517 44.9748 50.6257 44.6009L51.5857 43.6409L54.4857 46.5409L50.7057 50.3209ZM66.4657 66.1009L58.2057 57.8409L62.0057 54.0409L64.9057 56.9409L63.9457 57.9009C63.7605 58.0861 63.6137 58.3059 63.5134 58.5478C63.4132 58.7897 63.3617 59.049 63.3617 59.3109C63.3617 59.5727 63.4132 59.832 63.5134 60.074C63.6137 60.3159 63.7605 60.5357 63.9457 60.7209C64.1309 60.9061 64.3507 61.0529 64.5926 61.1531C64.8345 61.2534 65.0938 61.3049 65.3557 61.3049C65.6176 61.3049 65.8769 61.2533 66.1188 61.1531C66.3607 61.0529 66.5805 60.9061 66.7657 60.7209L67.7257 59.7609L70.2657 62.3009L66.4657 66.1009ZM73.7657 42.2609C73.9511 42.0759 74.0982 41.8561 74.1986 41.6141C74.2989 41.3722 74.3506 41.1128 74.3506 40.8509C74.3506 40.589 74.2989 40.3296 74.1986 40.0876C74.0982 39.8457 73.9511 39.6259 73.7657 39.4409L69.0857 34.7609C68.1457 33.8209 66.8457 34.1809 66.2657 34.7609L62.6057 38.4209L70.1057 45.9209L73.7657 42.2609Z" fill="#E60062"/>
</g>
<defs>
<clipPath id="clip0_859_3916">
<rect width="120" height="120" fill="white"/>
</clipPath>
</defs>
</svg>
