<svg width="120" height="120" viewBox="0 0 120 120" fill="none" xmlns="http://www.w3.org/2000/svg">
<path d="M93.6 73.8C95.35 69.55 96.3 65 96.3 60C96.3 56.4 95.75 52.95 94.8 49.75C91.55 50.5 88.15 50.9 84.6 50.9C77.3298 50.9078 70.1644 49.1676 63.7076 45.8261C57.2509 42.4846 51.6922 37.6398 47.5 31.7C43.0155 42.5508 34.5556 51.279 23.85 56.1C23.65 57.35 23.65 58.7 23.65 60C23.65 64.7735 24.5902 69.5003 26.417 73.9105C28.2437 78.3207 30.9213 82.3279 34.2967 85.7033C41.1136 92.5203 50.3594 96.35 60 96.35C65.25 96.35 70.3 95.2 74.85 93.15C77.7 98.6 79 101.3 78.9 101.3C70.7 104.05 64.35 105.4 60 105.4C47.9 105.4 36.35 100.65 27.85 92.1C22.68 86.9459 18.8369 80.615 16.65 73.65H10V50.9H15.45C17.1012 42.8625 20.8975 35.422 26.4359 29.3679C31.9744 23.3138 39.0485 18.872 46.9076 16.5138C54.7668 14.1555 63.1177 13.9688 71.0743 15.9735C79.031 17.9782 86.2965 22.0994 92.1 27.9C98.4011 34.1762 102.699 42.1805 104.45 50.9H110V73.65H109.7L91.9 90L65.4 87V78.65H89.55L93.6 73.8Z" fill="#E60062"/>
<path d="M50.3504 60.5501C49.3004 59.4501 47.8504 58.8501 46.3504 58.8501C43.2004 58.8501 40.6504 61.4001 40.6504 64.5501C40.6504 67.7001 43.2004 70.2001 46.3504 70.2001C47.8504 70.2001 49.3004 69.6001 50.3504 68.5501C51.4056 67.4862 51.9977 66.0485 51.9977 64.5501C51.9977 63.0517 51.4056 61.6139 50.3504 60.5501Z" fill="#FF73AF"/>
<path d="M79.2504 64.5501C79.2504 61.4001 76.7504 58.8501 73.6004 58.8501C72.0887 58.8501 70.6388 59.4506 69.5699 60.5196C68.5009 61.5885 67.9004 63.0384 67.9004 64.5501C67.9004 67.7001 70.4504 70.2001 73.6004 70.2001C76.7504 70.2001 79.2504 67.7001 79.2504 64.5501Z" fill="#FF73AF"/>
</svg>
