<svg width="34" height="33" viewBox="0 0 34 33" fill="none" xmlns="http://www.w3.org/2000/svg">
<path d="M16.0445 0.694C16.3452 -0.231351 17.6543 -0.231354 17.955 0.693997L21.2795 10.9259C21.414 11.3398 21.7996 11.62 22.2348 11.62H32.9933C33.9662 11.62 34.3708 12.865 33.5836 13.4369L24.8798 19.7606C24.5278 20.0164 24.3805 20.4697 24.5149 20.8835L27.8395 31.1155C28.1402 32.0408 27.0811 32.8103 26.2939 32.2384L17.5901 25.9147C17.2381 25.659 16.7614 25.659 16.4094 25.9147L7.70556 32.2384C6.91841 32.8103 5.85931 32.0408 6.15997 31.1155L9.48453 20.8835C9.61899 20.4697 9.47169 20.0164 9.11967 19.7606L0.415859 13.4369C-0.371291 12.865 0.0332479 11.62 1.00622 11.62H11.7647C12.1998 11.62 12.5855 11.3398 12.72 10.9259L16.0445 0.694Z" fill="white"/>
</svg>
