<svg width="120" height="120" viewBox="0 0 120 120" fill="none" xmlns="http://www.w3.org/2000/svg">
<path d="M59.9675 52.3753V30.3253C59.9675 30.0758 59.9183 29.8287 59.8228 29.5982C59.7274 29.3677 59.5874 29.1582 59.411 28.9818C59.2345 28.8054 59.0251 28.6654 58.7946 28.5699C58.5641 28.4744 58.317 28.4253 58.0675 28.4253H50.5675C50.3203 28.4252 50.0755 28.4747 49.8478 28.5707C49.62 28.6668 49.4138 28.8076 49.2413 28.9847C49.0689 29.1618 48.9337 29.3717 48.8437 29.602C48.7537 29.8322 48.7108 30.0782 48.7175 30.3253V40.9753L53.7175 52.3753H59.9675Z" fill="#FF0A72"/>
<path d="M44.2175 87.5253C42.3541 87.5154 40.5298 88.0596 38.9764 89.0886C37.4229 90.1177 36.2103 91.5853 35.4927 93.3049C34.775 95.0246 34.5847 96.9187 34.9458 98.7468C35.3069 100.575 36.2032 102.254 37.5208 103.572C38.8384 104.89 40.5179 105.786 42.346 106.147C44.174 106.508 46.0682 106.318 47.7878 105.6C49.5075 104.882 50.975 103.67 52.0041 102.116C53.0332 100.563 53.5773 98.7387 53.5675 96.8753C53.5543 94.3996 52.565 92.029 50.8144 90.2784C49.0638 88.5277 46.6932 87.5384 44.2175 87.5253ZM90.6174 87.5253C88.7541 87.5154 86.9298 88.0596 85.3764 89.0886C83.8229 90.1177 82.6103 91.5853 81.8927 93.3049C81.175 95.0246 80.9847 96.9187 81.3458 98.7468C81.7069 100.575 82.6032 102.254 83.9208 103.572C85.2384 104.89 86.9179 105.786 88.746 106.147C90.574 106.508 92.4682 106.318 94.1878 105.6C95.9075 104.882 97.375 103.67 98.4041 102.116C99.4332 100.563 99.9773 98.7387 99.9675 96.8753C99.9674 94.3955 98.9824 92.0173 97.2289 90.2638C95.4754 88.5104 93.0972 87.5253 90.6174 87.5253ZM74.5675 25.3253C74.5674 24.8214 74.3673 24.3381 74.011 23.9818C73.6546 23.6255 73.1714 23.4253 72.6674 23.4253H64.9674C64.7202 23.4252 64.4755 23.4747 64.2477 23.5707C64.02 23.6668 63.8138 23.8076 63.6413 23.9847C63.4688 24.1618 63.3336 24.3717 63.2437 24.602C63.1537 24.8322 63.1108 25.0782 63.1175 25.3253V52.3753H74.3675L74.5675 25.3253Z" fill="#E60062"/>
<path d="M51.4191 63.6253L45.9191 74.9753H99.9691C100.964 74.9753 101.918 75.3704 102.621 76.0736C103.324 76.7769 103.719 77.7307 103.719 78.7253C103.719 79.7199 103.324 80.6737 102.621 81.3769C101.918 82.0802 100.964 82.4753 99.9691 82.4753H45.9191C44.6502 82.481 43.4009 82.1624 42.2896 81.5499C41.1783 80.9374 40.2419 80.0512 39.5691 78.9753C38.8804 77.9049 38.4815 76.674 38.4114 75.4031C38.3412 74.1323 38.6024 72.865 39.1691 71.7253L44.9691 59.9753L27.1691 21.1753H16.3691C15.3746 21.1753 14.4208 20.7802 13.7175 20.0769C13.0142 19.3737 12.6191 18.4199 12.6191 17.4253C12.6191 16.4307 13.0142 15.4769 13.7175 14.7736C14.4208 14.0704 15.3746 13.6753 16.3691 13.6753H29.6191C30.337 13.6781 31.039 13.8869 31.6416 14.2769C32.2443 14.6669 32.7224 15.2216 33.0191 15.8753L51.4691 56.1253H84.1191L100.319 27.2753C100.553 26.8343 100.872 26.4444 101.259 26.1284C101.645 25.8124 102.09 25.5767 102.569 25.4352C103.048 25.2937 103.55 25.2491 104.046 25.3041C104.542 25.3591 105.022 25.5126 105.458 25.7555C105.894 25.9985 106.277 26.326 106.585 26.7189C106.893 27.1119 107.119 27.5623 107.25 28.0438C107.382 28.5253 107.416 29.0282 107.35 29.523C107.285 30.0178 107.121 30.4945 106.869 30.9253L90.6191 59.9753C89.9773 61.1382 89.0362 62.1084 87.8933 62.7853C86.7505 63.4622 85.4474 63.8213 84.1191 63.8253L51.4191 63.6253ZM89.2191 39.3753V15.6753C89.2192 15.4281 89.1698 15.1834 89.0737 14.9556C88.9776 14.7278 88.8369 14.5216 88.6597 14.3491C88.4826 14.1767 88.2727 14.0415 88.0425 13.9515C87.8122 13.8615 87.5663 13.8186 87.3191 13.8253H79.9691C79.7243 13.8184 79.4807 13.8615 79.2531 13.9521C79.0255 14.0426 78.8188 14.1786 78.6456 14.3518C78.4725 14.525 78.3364 14.7317 78.2459 14.9592C78.1554 15.1868 78.1122 15.4305 78.1191 15.6753V52.3753H82.0691L89.2191 39.3753Z" fill="#E60062"/>
</svg>
