<svg width="44" height="44" viewBox="0 0 44 44" fill="none" xmlns="http://www.w3.org/2000/svg">
<g clip-path="url(#clip0_1252_8531)">
<path d="M27.4999 1.37499C27.4999 1.01032 27.3551 0.660587 27.0972 0.402726C26.8393 0.144865 26.4896 0 26.1249 0L17.875 0C17.5103 0 17.1606 0.144865 16.9027 0.402726C16.6449 0.660587 16.5 1.01032 16.5 1.37499C16.5 1.73966 16.3551 2.0894 16.0973 2.34726C15.8394 2.60512 15.4897 2.74999 15.125 2.74999C14.7603 2.74999 14.4106 2.89485 14.1527 3.15271C13.8949 3.41057 13.75 3.76031 13.75 4.12498V5.49997C13.75 5.86464 13.8949 6.21438 14.1527 6.47224C14.4106 6.7301 14.7603 6.87497 15.125 6.87497H28.8749C29.2396 6.87497 29.5893 6.7301 29.8472 6.47224C30.1051 6.21438 30.2499 5.86464 30.2499 5.49997V4.12498C30.2499 3.76031 30.1051 3.41057 29.8472 3.15271C29.5893 2.89485 29.2396 2.74999 28.8749 2.74999C28.5103 2.74999 28.1605 2.60512 27.9027 2.34726C27.6448 2.0894 27.4999 1.73966 27.4999 1.37499Z" fill="#E60062"/>
<path d="M11.2337 2.75H9.62498C8.53097 2.75 7.48176 3.18459 6.70818 3.95818C5.93459 4.73176 5.5 5.78097 5.5 6.87498V39.8748C5.5 40.9688 5.93459 42.018 6.70818 42.7916C7.48176 43.5652 8.53097 43.9998 9.62498 43.9998H34.3749C35.4689 43.9998 36.5181 43.5652 37.2917 42.7916C38.0652 42.018 38.4998 40.9688 38.4998 39.8748V6.87498C38.4998 5.78097 38.0652 4.73176 37.2917 3.95818C36.5181 3.18459 35.4689 2.75 34.3749 2.75H32.7661C32.9174 3.179 32.9999 3.64375 32.9999 4.12499V5.49999C32.9999 6.594 32.5653 7.6432 31.7917 8.41679C31.0181 9.19037 29.9689 9.62496 28.8749 9.62496H15.125C14.0309 9.62496 12.9817 9.19037 12.2081 8.41679C11.4346 7.6432 11 6.594 11 5.49999V4.12499C11 3.64375 11.0825 3.179 11.2337 2.75ZM27.4999 19.2499C27.4999 18.5206 27.7896 17.8211 28.3053 17.3054C28.8211 16.7897 29.5205 16.4999 30.2499 16.4999C30.9792 16.4999 31.6787 16.7897 32.1944 17.3054C32.7101 17.8211 32.9999 18.5206 32.9999 19.2499V32.9998C32.9999 33.7292 32.7101 34.4287 32.1944 34.9444C31.6787 35.4601 30.9792 35.7498 30.2499 35.7498C29.5205 35.7498 28.8211 35.4601 28.3053 34.9444C27.7896 34.4287 27.4999 33.7292 27.4999 32.9998V19.2499ZM11 30.2499C11 29.5205 11.2897 28.821 11.8054 28.3053C12.3211 27.7896 13.0206 27.4999 13.75 27.4999C14.4793 27.4999 15.1788 27.7896 15.6945 28.3053C16.2102 28.821 16.4999 29.5205 16.4999 30.2499V32.9998C16.4999 33.7292 16.2102 34.4287 15.6945 34.9444C15.1788 35.4601 14.4793 35.7498 13.75 35.7498C13.0206 35.7498 12.3211 35.4601 11.8054 34.9444C11.2897 34.4287 11 33.7292 11 32.9998V30.2499ZM21.9999 21.9999C22.7293 21.9999 23.4287 22.2896 23.9444 22.8054C24.4602 23.3211 24.7499 24.0205 24.7499 24.7499V32.9998C24.7499 33.7292 24.4602 34.4287 23.9444 34.9444C23.4287 35.4601 22.7293 35.7498 21.9999 35.7498C21.2706 35.7498 20.5711 35.4601 20.0554 34.9444C19.5397 34.4287 19.2499 33.7292 19.2499 32.9998V24.7499C19.2499 24.0205 19.5397 23.3211 20.0554 22.8054C20.5711 22.2896 21.2706 21.9999 21.9999 21.9999Z" fill="#E60062"/>
</g>
<defs>
<clipPath id="clip0_1252_8531">
<rect width="43.9216" height="43.9216" fill="white" transform="scale(1.00178)"/>
</clipPath>
</defs>
</svg>
