<svg width="60" height="60" viewBox="0 0 60 60" fill="none" xmlns="http://www.w3.org/2000/svg">
<path d="M27.4998 15.0002H34.9998L43.2248 6.75024C43.4572 6.51592 43.7337 6.32993 44.0384 6.20301C44.343 6.07609 44.6698 6.01074 44.9998 6.01074C45.3299 6.01074 45.6566 6.07609 45.9613 6.20301C46.2659 6.32993 46.5424 6.51592 46.7748 6.75024L53.2248 13.2252C53.6905 13.6936 53.9518 14.3273 53.9518 14.9877C53.9518 15.6482 53.6905 16.2818 53.2248 16.7502L47.4998 22.5002H27.4998V27.5002C27.4998 28.1633 27.2364 28.7992 26.7676 29.268C26.2988 29.7368 25.6629 30.0002 24.9998 30.0002C24.3368 30.0002 23.7009 29.7368 23.2321 29.268C22.7632 28.7992 22.4998 28.1633 22.4998 27.5002V20.0002C22.4998 18.6742 23.0266 17.4024 23.9643 16.4647C24.902 15.527 26.1737 15.0002 27.4998 15.0002ZM12.4998 27.5002V37.5002L6.77483 43.2252C6.30921 43.6936 6.04785 44.3273 6.04785 44.9877C6.04785 45.6482 6.30921 46.2818 6.77483 46.7502L13.2248 53.2252C13.4572 53.4596 13.7337 53.6455 14.0384 53.7725C14.343 53.8994 14.6698 53.9647 14.9998 53.9647C15.3299 53.9647 15.6566 53.8994 15.9613 53.7725C16.2659 53.6455 16.5424 53.4596 16.7748 53.2252L27.4998 42.5002H37.4998C38.1629 42.5002 38.7988 42.2368 39.2676 41.768C39.7364 41.2992 39.9998 40.6633 39.9998 40.0002V37.5002H42.4998C43.1629 37.5002 43.7988 37.2368 44.2676 36.768C44.7364 36.2992 44.9998 35.6633 44.9998 35.0002V32.5002H47.4998C48.1629 32.5002 48.7988 32.2368 49.2676 31.768C49.7364 31.2992 49.9998 30.6633 49.9998 30.0002V27.5002H32.4998V30.0002C32.4998 31.3263 31.973 32.5981 31.0354 33.5358C30.0977 34.4735 28.8259 35.0002 27.4998 35.0002H22.4998C21.1737 35.0002 19.902 34.4735 18.9643 33.5358C18.0266 32.5981 17.4998 31.3263 17.4998 30.0002V22.5002L12.4998 27.5002Z" fill="#F8F8F8"/>
</svg>
