<svg width="100" height="100" viewBox="0 0 100 100" fill="none" xmlns="http://www.w3.org/2000/svg">
<g clip-path="url(#clip0_859_3901)">
<path d="M99.9956 4.46151C99.9941 4.38091 99.9892 4.3003 99.9835 4.22C99.9783 4.14818 99.9732 4.07636 99.965 4.00576C99.9562 3.93333 99.9441 3.86152 99.932 3.7897C99.9189 3.71333 99.9068 3.63697 99.8902 3.56182C99.8753 3.49515 99.8568 3.4297 99.8392 3.36364C99.8186 3.28697 99.7986 3.21 99.7741 3.13515C99.7526 3.06909 99.7271 3.00424 99.7026 2.93909C99.6753 2.86758 99.6492 2.79576 99.6186 2.72606C99.5889 2.65788 99.555 2.59152 99.5217 2.52455C99.4898 2.46061 99.4589 2.39606 99.4241 2.33394C99.3865 2.26636 99.3447 2.20121 99.3035 2.13515C99.2662 2.07576 99.2295 2.01606 99.1898 1.95848C99.1468 1.89667 99.1004 1.83727 99.0541 1.77727C99.0086 1.71788 98.9632 1.65879 98.9147 1.60212C98.8692 1.54879 98.8211 1.49758 98.7729 1.44606C98.7165 1.38606 98.6601 1.32697 98.6008 1.2697C98.5808 1.25061 98.5635 1.22939 98.5432 1.21061C98.5135 1.18303 98.4814 1.16 98.4511 1.13364C98.3886 1.07879 98.3256 1.02576 98.2607 0.974242C98.2053 0.930606 98.1489 0.888788 98.092 0.848182C98.0292 0.803333 97.9656 0.76 97.9008 0.718485C97.8383 0.678485 97.7756 0.640303 97.7117 0.603636C97.6477 0.56697 97.5832 0.532424 97.5177 0.498788C97.4508 0.464545 97.3835 0.431818 97.3153 0.401515C97.2486 0.371515 97.1814 0.343636 97.1132 0.31697C97.0435 0.289697 96.9738 0.263939 96.9035 0.240303C96.8341 0.21697 96.7635 0.195758 96.6926 0.175455C96.6205 0.155152 96.5483 0.136364 96.4756 0.119697C96.405 0.103333 96.3338 0.0890909 96.262 0.0760606C96.1853 0.0621212 96.1083 0.0506061 96.0311 0.0406061C95.9623 0.0318182 95.8932 0.0245455 95.8238 0.0187879C95.7408 0.0121212 95.6574 0.00818182 95.5744 0.00606061C95.5335 0.00515152 95.4947 0 95.4544 0H77.2726C74.7623 0 72.7271 2.03515 72.7271 4.54545C72.7271 7.05576 74.7623 9.09091 77.2726 9.09091H85.0511L57.4499 38.9003L45.6383 27.0888C44.765 26.2152 43.5765 25.7409 42.338 25.7582C41.1029 25.7818 39.9305 26.307 39.0905 27.213L1.21166 68.0821C-0.4947 69.9233 -0.385609 72.7991 1.4556 74.5058C2.33045 75.3167 3.43863 75.7176 4.54439 75.7176C5.7656 75.7176 6.98348 75.2282 7.87924 74.2621L42.5486 36.8558L54.3617 48.6688C55.2356 49.5427 56.4365 50.0273 57.6632 49.9994C58.8989 49.9758 60.0717 49.4497 60.9111 48.543L90.9089 16.1448V22.7273C90.9089 25.2376 92.9441 27.2727 95.4544 27.2727C97.9647 27.2727 99.9998 25.2376 99.9998 22.7273V4.54545C99.9998 4.51697 99.9962 4.4897 99.9956 4.46151Z" fill="#E60062"/>
<path d="M95.4546 90.9092H4.54545C2.03515 90.9092 0 92.9443 0 95.4546C0 97.9649 2.03515 100 4.54545 100H95.4546C97.9649 100 100 97.9649 100 95.4546C100 92.9443 97.9649 90.9092 95.4546 90.9092Z" fill="#E60062"/>
</g>
<defs>
<clipPath id="clip0_859_3901">
<rect width="100" height="100" fill="white"/>
</clipPath>
</defs>
</svg>
