<svg width="120" height="120" viewBox="0 0 120 120" fill="none" xmlns="http://www.w3.org/2000/svg">
<path d="M82.5 99.7125L72.7875 90L67.5 95.2875L82.5 110.287L112.5 80.2875L107.213 75L82.5 99.7125Z" fill="#E60062"/>
<path d="M60 67.5C64.1421 67.5 67.5 64.1421 67.5 60C67.5 55.8579 64.1421 52.5 60 52.5C55.8579 52.5 52.5 55.8579 52.5 60C52.5 64.1421 55.8579 67.5 60 67.5Z" fill="#E60062"/>
<path d="M60 82.5C55.5499 82.5 51.1998 81.1804 47.4997 78.7081C43.7996 76.2357 40.9157 72.7217 39.2127 68.6104C37.5097 64.499 37.0642 59.975 37.9323 55.6105C38.8005 51.2459 40.9434 47.2368 44.0901 44.0901C47.2368 40.9434 51.2459 38.8005 55.6105 37.9323C59.975 37.0642 64.499 37.5097 68.6104 39.2127C72.7217 40.9157 76.2357 43.7996 78.7081 47.4997C81.1804 51.1998 82.5 55.5499 82.5 60C82.4931 65.9652 80.1203 71.6842 75.9022 75.9022C71.6842 80.1203 65.9652 82.4931 60 82.5ZM60 45C57.0333 45 54.1332 45.8797 51.6665 47.528C49.1997 49.1762 47.2771 51.5189 46.1418 54.2598C45.0065 57.0006 44.7095 60.0166 45.2882 62.9264C45.867 65.8361 47.2956 68.5088 49.3934 70.6066C51.4912 72.7044 54.1639 74.133 57.0737 74.7118C59.9834 75.2906 62.9994 74.9935 65.7403 73.8582C68.4811 72.7229 70.8238 70.8003 72.472 68.3336C74.1203 65.8668 75 62.9667 75 60C74.995 56.0233 73.4131 52.2109 70.6011 49.3989C67.7892 46.5869 63.9767 45.005 60 45Z" fill="#E60062"/>
<path d="M105 60C105 51.0999 102.361 42.3996 97.4162 34.9994C92.4715 27.5992 85.4435 21.8314 77.2208 18.4254C68.9981 15.0195 59.9501 14.1283 51.221 15.8647C42.4918 17.601 34.4736 21.8869 28.1802 28.1802C21.8869 34.4736 17.601 42.4918 15.8647 51.221C14.1283 59.9501 15.0195 68.9981 18.4254 77.2208C21.8314 85.4435 27.5992 92.4715 34.9994 97.4162C42.3996 102.361 51.0999 105 60 105V97.5C52.5832 97.5 45.333 95.3007 39.1661 91.1801C32.9993 87.0596 28.1928 81.2029 25.3545 74.3506C22.5163 67.4984 21.7736 59.9584 23.2206 52.6841C24.6675 45.4098 28.239 38.728 33.4835 33.4835C38.728 28.239 45.4098 24.6675 52.6841 23.2206C59.9584 21.7736 67.4984 22.5163 74.3506 25.3545C81.2029 28.1928 87.0596 32.9993 91.1801 39.1661C95.3007 45.333 97.5 52.5832 97.5 60H105Z" fill="#E60062"/>
</svg>
