<svg width="897" height="464" viewBox="0 0 897 464" fill="none" xmlns="http://www.w3.org/2000/svg">
<rect width="705" height="461.61" rx="50" fill="white"/>
<path d="M450.925 17.2167C451.075 17.3667 451.254 17.4377 451.462 17.4297C451.67 17.4217 451.849 17.3423 452 17.1917C452.15 17.0417 452.225 16.8627 452.225 16.6547C452.225 16.4467 452.15 16.2673 452 16.1167L450.45 14.5917C450.633 14.3083 450.771 14.0083 450.863 13.6917C450.955 13.375 451.001 13.0417 451 12.6917C451 11.7083 450.654 10.879 449.962 10.2037C449.27 9.52832 448.449 9.19099 447.5 9.19165C446.55 9.19165 445.729 9.52899 445.037 10.2037C444.345 10.8783 443.999 11.7077 444 12.6917C444 13.675 444.346 14.5043 445.038 15.1797C445.73 15.855 446.551 16.1923 447.5 16.1917C447.85 16.1917 448.179 16.154 448.488 16.0787C448.797 16.0033 449.101 15.8743 449.4 15.6917L450.925 17.2167ZM447.5 14.6917C446.95 14.6917 446.479 14.4957 446.087 14.1037C445.695 13.7117 445.499 13.241 445.5 12.6917C445.5 12.1417 445.696 11.6707 446.088 11.2787C446.48 10.8867 446.951 10.691 447.5 10.6917C448.033 10.6917 448.5 10.8877 448.9 11.2797C449.3 11.6717 449.5 12.1423 449.5 12.6917C449.5 13.2417 449.304 13.7127 448.912 14.1047C448.52 14.4967 448.049 14.6923 447.5 14.6917ZM440 20.6917C439.45 20.6917 438.979 20.4957 438.587 20.1037C438.195 19.7117 437.999 19.241 438 18.6917V7.69165C438 7.14165 438.196 6.67065 438.588 6.27865C438.98 5.88665 439.451 5.69099 440 5.69165H456C456.55 5.69165 457.021 5.88765 457.413 6.27965C457.805 6.67165 458.001 7.14232 458 7.69165V18.6917C458 19.2417 457.804 19.7127 457.412 20.1047C457.02 20.4967 456.549 20.6923 456 20.6917H440ZM438 23.6917C437.717 23.6917 437.479 23.5957 437.287 23.4037C437.095 23.2117 436.999 22.9743 437 22.6917C437 22.4083 437.096 22.1707 437.288 21.9787C437.48 21.7867 437.717 21.691 438 21.6917H458C458.283 21.6917 458.521 21.7877 458.713 21.9797C458.905 22.1717 459.001 22.409 459 22.6917C459 22.975 458.904 23.2127 458.712 23.4047C458.52 23.5967 458.283 23.6923 458 23.6917H438Z" fill="#F8F8F8"/>
<path d="M663.498 311.222C665.713 313.437 668.355 314.485 671.426 314.367C674.497 314.249 677.145 313.078 679.369 310.853C681.584 308.639 682.691 305.996 682.691 302.925C682.691 299.854 681.584 297.207 679.369 294.982L656.485 272.468C659.192 268.285 661.224 263.855 662.583 259.18C663.941 254.505 664.615 249.584 664.605 244.416C664.605 229.899 659.497 217.655 649.281 207.684C639.064 197.714 626.948 192.734 612.932 192.743C598.907 192.743 586.786 197.724 576.569 207.684C566.353 217.645 561.249 229.889 561.259 244.416C561.259 258.934 566.368 271.178 576.584 281.149C586.801 291.119 598.917 296.099 612.932 296.09C618.1 296.09 622.962 295.533 627.519 294.421C632.076 293.309 636.564 291.405 640.983 288.708L663.498 311.222ZM612.932 273.944C604.812 273.944 597.859 271.05 592.071 265.263C586.284 259.475 583.395 252.527 583.405 244.416C583.405 236.296 586.299 229.343 592.086 223.555C597.873 217.768 604.822 214.879 612.932 214.889C620.806 214.889 627.696 217.783 633.602 223.57C639.507 229.357 642.46 236.306 642.46 244.416C642.46 252.537 639.566 259.49 633.779 265.278C627.991 271.065 621.043 273.954 612.932 273.944ZM502.204 362.526C494.084 362.526 487.131 359.633 481.343 353.845C475.556 348.058 472.667 341.109 472.677 332.999V170.598C472.677 162.478 475.571 155.524 481.358 149.737C487.145 143.949 494.094 141.06 502.204 141.07H738.424C746.544 141.07 753.498 143.964 759.285 149.751C765.073 155.539 767.961 162.488 767.952 170.598V332.999C767.952 341.119 765.058 348.073 759.27 353.86C753.483 359.647 746.534 362.536 738.424 362.526H502.204ZM472.677 406.818C468.494 406.818 464.985 405.4 462.15 402.566C459.316 399.731 457.903 396.227 457.913 392.054C457.913 387.871 459.33 384.362 462.165 381.527C465 378.693 468.504 377.28 472.677 377.29H767.952C772.135 377.29 775.643 378.707 778.478 381.542C781.313 384.377 782.725 387.881 782.715 392.054C782.715 396.237 781.298 399.746 778.463 402.58C775.629 405.415 772.125 406.827 767.952 406.818H472.677Z" fill="#E60062"/>
<path d="M447 14.6917C445.9 14.6917 444.958 14.3 444.175 13.5167C443.392 12.7333 443 11.7917 443 10.6917C443 9.59165 443.392 8.64998 444.175 7.86665C444.958 7.08332 445.9 6.69165 447 6.69165C448.1 6.69165 449.042 7.08332 449.825 7.86665C450.608 8.64998 451 9.59165 451 10.6917C451 11.7917 450.608 12.7333 449.825 13.5167C449.042 14.3 448.1 14.6917 447 14.6917ZM458.1 26.1917L454.9 22.9916C454.55 23.1917 454.175 23.3583 453.775 23.4916C453.375 23.625 452.95 23.6917 452.5 23.6917C451.25 23.6917 450.188 23.254 449.313 22.3787C448.438 21.5033 448.001 20.441 448 19.1917C448 17.9417 448.438 16.879 449.313 16.0037C450.188 15.1283 451.251 14.691 452.5 14.6917C453.75 14.6917 454.813 15.1293 455.688 16.0047C456.563 16.88 457.001 17.9423 457 19.1917C457 19.6417 456.933 20.0667 456.8 20.4667C456.667 20.8666 456.5 21.2416 456.3 21.5917L459.5 24.7917L458.1 26.1917ZM452.5 21.6917C453.2 21.6917 453.792 21.45 454.275 20.9667C454.758 20.4833 455 19.8917 455 19.1917C455 18.4917 454.758 17.9 454.275 17.4167C453.792 16.9333 453.2 16.6917 452.5 16.6917C451.8 16.6917 451.208 16.9333 450.725 17.4167C450.242 17.9 450 18.4917 450 19.1917C450 19.8917 450.242 20.4833 450.725 20.9667C451.208 21.45 451.8 21.6917 452.5 21.6917ZM447.025 15.6917C446.325 16.725 445.975 17.8917 445.975 19.1917C445.975 20.4917 446.325 21.6583 447.025 22.6917H439V19.9167C439 19.35 439.142 18.825 439.425 18.3417C439.708 17.8583 440.1 17.4917 440.6 17.2417C441.45 16.8083 442.408 16.4417 443.475 16.1417C444.542 15.8417 445.725 15.6917 447.025 15.6917Z" fill="#F8F8F8"/>
</svg>
