<svg width="216" height="216" viewBox="0 0 216 216" fill="none" xmlns="http://www.w3.org/2000/svg">
<rect x="18.4316" y="18.6875" width="178.504" height="178.504" rx="30" fill="#E60062" fill-opacity="0.2"/>
<path d="M128.884 105.489L136.734 97.6393L117.984 78.8893L110.134 86.7393L89.4336 66.0893C85.5336 62.1893 79.1836 62.1893 75.2836 66.0893L65.7836 75.5893C61.8836 79.4893 61.8836 85.8393 65.7836 89.7393L86.4336 110.389L63.4336 133.439C62.9336 133.939 62.6836 134.539 62.6836 135.239V150.439C62.6836 151.839 63.7836 152.939 65.1836 152.939H80.3836C81.0336 152.939 81.6836 152.689 82.1336 152.189L105.234 129.089L125.884 149.739C132.484 156.339 139.684 150.089 140.034 149.739L149.534 140.239C153.434 136.339 153.434 129.989 149.534 126.089L128.884 105.489ZM93.5836 103.289L72.8836 82.6393L82.3336 73.1393L88.6836 79.4893L86.3336 81.9393C85.3987 82.8742 84.8735 84.1422 84.8735 85.4643C84.8735 86.7864 85.3987 88.0544 86.3336 88.9893C87.2685 89.9242 88.5365 90.4494 89.8586 90.4494C91.1807 90.4494 92.4487 89.9242 93.3836 88.9893L95.7836 86.5893L103.034 93.8393L93.5836 103.289ZM132.984 142.739L112.334 122.089L121.834 112.589L129.084 119.839L126.684 122.239C126.221 122.702 125.853 123.252 125.603 123.857C125.352 124.461 125.223 125.11 125.223 125.764C125.223 126.419 125.352 127.067 125.603 127.672C125.853 128.277 126.221 128.826 126.684 129.289C127.147 129.752 127.696 130.119 128.301 130.37C128.906 130.62 129.554 130.749 130.209 130.749C130.863 130.749 131.511 130.62 132.116 130.37C132.721 130.119 133.271 129.752 133.734 129.289L136.134 126.889L142.484 133.239L132.984 142.739ZM151.234 83.1393C151.697 82.6767 152.065 82.1273 152.316 81.5224C152.567 80.9175 152.696 80.2691 152.696 79.6143C152.696 78.9594 152.567 78.311 152.316 77.7062C152.065 77.1013 151.697 76.5518 151.234 76.0893L139.534 64.3893C137.184 62.0393 133.934 62.9393 132.484 64.3893L123.334 73.5393L142.084 92.2893L151.234 83.1393Z" fill="#E60062"/>
</svg>
