<svg width="216" height="216" viewBox="0 0 216 216" fill="none" xmlns="http://www.w3.org/2000/svg">
<rect x="18.4316" y="18.6875" width="178.504" height="178.504" rx="30" fill="#E60062" fill-opacity="0.2"/>
<path d="M124.541 123.603L130.041 118.353L119.541 107.853C120.458 106.436 121.146 104.936 121.606 103.353C122.066 101.769 122.294 100.103 122.291 98.3525C122.291 93.4359 120.561 89.2892 117.101 85.9125C113.641 82.5359 109.538 80.8492 104.791 80.8525C100.041 80.8525 95.936 82.5392 92.476 85.9125C89.016 89.2859 87.2877 93.4325 87.291 98.3525C87.291 103.269 89.021 107.416 92.481 110.793C95.941 114.169 100.044 115.856 104.791 115.853C106.541 115.853 108.188 115.623 109.731 115.163C111.274 114.703 112.794 114.016 114.291 113.103L124.541 123.603ZM104.791 108.353C102.041 108.353 99.686 107.373 97.726 105.413C95.766 103.453 94.7877 101.099 94.791 98.3525C94.791 95.6025 95.771 93.2475 97.731 91.2875C99.691 89.3275 102.044 88.3492 104.791 88.3525C107.458 88.3525 109.791 89.3326 111.791 91.2925C113.791 93.2526 114.791 95.6059 114.791 98.3525C114.791 101.103 113.811 103.458 111.851 105.418C109.891 107.378 107.538 108.356 104.791 108.353ZM57.291 153.353C55.8744 153.353 54.686 152.873 53.726 151.913C52.766 150.953 52.2877 149.766 52.291 148.353C52.291 146.936 52.771 145.748 53.731 144.788C54.691 143.828 55.8777 143.349 57.291 143.353H157.291C158.708 143.353 159.896 143.833 160.856 144.793C161.816 145.753 162.294 146.939 162.291 148.353C162.291 149.769 161.811 150.958 160.851 151.918C159.891 152.878 158.704 153.356 157.291 153.353H57.291ZM67.291 138.353C64.541 138.353 62.186 137.373 60.226 135.413C58.266 133.453 57.2877 131.099 57.291 128.353V73.3525C57.291 70.6025 58.271 68.2475 60.231 66.2875C62.191 64.3275 64.5444 63.3492 67.291 63.3525H147.291C150.041 63.3525 152.396 64.3325 154.356 66.2925C156.316 68.2525 157.294 70.6059 157.291 73.3525V128.353C157.291 131.103 156.311 133.458 154.351 135.418C152.391 137.378 150.038 138.356 147.291 138.353H67.291Z" fill="#E60062"/>
</svg>
