<svg width="60" height="60" viewBox="0 0 60 60" fill="none" xmlns="http://www.w3.org/2000/svg">
<path d="M57.5 27.5H45C44.337 27.5 43.7011 27.7634 43.2322 28.2322C42.7634 28.7011 42.5 29.337 42.5 30V52.5C42.5 53.163 42.7634 53.7989 43.2322 54.2678C43.7011 54.7366 44.337 55 45 55H57.5C58.163 55 58.7989 54.7366 59.2678 54.2678C59.7366 53.7989 60 53.163 60 52.5V30C60 29.337 59.7366 28.7011 59.2678 28.2322C58.7989 27.7634 58.163 27.5 57.5 27.5ZM57.5 50H45V32.5H57.5V50ZM50 5H5C2.225 5 0 7.225 0 10V40C0 41.3261 0.526784 42.5979 1.46447 43.5355C2.40215 44.4732 3.67392 45 5 45H22.5V50H17.5V55H37.5V50H32.5V45H37.5V40H5V10H50V22.5H55V10C55 8.67392 54.4732 7.40215 53.5355 6.46447C52.5979 5.52678 51.3261 5 50 5Z" fill="#F8F8F8"/>
</svg>
