<svg width="952" height="469" viewBox="0 0 952 469" fill="none" xmlns="http://www.w3.org/2000/svg">
<rect width="705.394" height="462.258" rx="50" fill="#E60062"/>
<g clip-path="url(#clip0_1252_8091)">
<path d="M673.608 69.7523C572.777 69.7523 490.743 151.787 490.743 252.618C490.743 353.448 572.777 435.483 673.608 435.483C774.439 435.483 856.473 353.448 856.473 252.618C856.473 151.787 774.439 69.7523 673.608 69.7523ZM734.534 154.301C747.136 154.318 759.451 158.071 769.921 165.086C780.391 172.1 788.547 182.061 793.358 193.709C798.169 205.357 799.419 218.17 796.949 230.529C794.48 242.887 788.403 254.236 779.485 263.142C770.567 272.047 759.21 278.109 746.848 280.561C734.486 283.013 721.675 281.746 710.034 276.919C698.392 272.092 688.442 263.922 681.442 253.443C674.443 242.963 670.707 230.643 670.707 218.04C670.712 209.664 672.368 201.371 675.579 193.635C678.789 185.899 683.492 178.87 689.419 172.952C695.346 167.033 702.381 162.34 710.122 159.139C717.862 155.939 726.157 154.295 734.534 154.301ZM598.176 177.476C608.488 177.49 618.564 180.56 627.131 186.299C635.698 192.038 642.371 200.188 646.308 209.719C650.244 219.249 651.267 229.733 649.247 239.845C647.226 249.957 642.254 259.243 634.958 266.529C627.661 273.816 618.369 278.776 608.254 280.782C598.14 282.789 587.657 281.752 578.132 277.803C568.606 273.853 560.466 267.169 554.738 258.594C549.011 250.019 545.954 239.939 545.954 229.628C545.957 222.774 547.311 215.988 549.937 209.658C552.564 203.327 556.412 197.576 561.261 192.733C566.111 187.891 571.867 184.05 578.201 181.432C584.535 178.814 591.322 177.47 598.176 177.476ZM531.492 313.746C553.031 302.061 580.61 296.215 598.176 296.215C611.363 296.215 628.349 298.853 645.062 305.182C633.858 311.434 623.759 319.486 615.17 329.017C603.574 342.204 596.919 357.958 596.919 373.704V386.892C567.8 370.213 544.851 344.572 531.492 313.789V313.746ZM673.608 407.35C655.806 407.364 638.137 404.291 621.386 398.268V374.487C621.386 328.252 696.774 304.954 734.534 304.954C754.754 304.954 785.859 311.662 810.326 325.008C797.16 349.851 777.478 370.642 753.392 385.148C729.306 399.655 701.725 407.33 673.608 407.35Z" fill="#F8F8F8"/>
</g>
<defs>
<clipPath id="clip0_1252_8091">
<rect width="461" height="461" fill="white" transform="translate(490.743 7.61753) scale(1.00056)"/>
</clipPath>
</defs>
</svg>
