<svg width="28" height="28" viewBox="0 0 28 28" fill="none" xmlns="http://www.w3.org/2000/svg">
<path d="M11.6097 3.41461C11.8814 3.41461 12.1419 3.52254 12.334 3.71465C12.5261 3.90676 12.6341 4.16731 12.6341 4.439V15.3658H23.5608C23.8084 15.3658 24.0475 15.4554 24.2341 15.6181C24.4207 15.7808 24.542 16.0056 24.5757 16.2508L24.5852 16.3901C24.5852 23.1784 19.0809 27.9998 12.2926 27.9998C9.03241 27.9998 5.90573 26.7047 3.60042 24.3994C1.29511 22.0941 0 18.9674 0 15.7072C0 8.91897 4.82143 3.41461 11.6097 3.41461ZM15.7072 0C18.9674 0 22.0941 1.29511 24.3994 3.60042C26.7047 5.90573 27.9998 9.03241 27.9998 12.2926C27.9998 12.5643 27.8919 12.8248 27.6998 13.017C27.5077 13.2091 27.2471 13.317 26.9754 13.317H15.7072C15.4355 13.317 15.175 13.2091 14.9829 13.017C14.7908 12.8248 14.6828 12.5643 14.6828 12.2926V1.02438C14.6828 0.752701 14.7908 0.492145 14.9829 0.300035C15.175 0.107926 15.4355 0 15.7072 0Z" fill="#E60062"/>
</svg>
