<svg width="28" height="28" viewBox="0 0 28 28" fill="none" xmlns="http://www.w3.org/2000/svg">
<path d="M17.294 4.11762C17.294 5.20968 16.8602 6.25701 16.088 7.02921C15.3158 7.80142 14.2684 8.23523 13.1764 8.23523C12.0843 8.23523 11.037 7.80142 10.2648 7.02921C9.49258 6.25701 9.05876 5.20968 9.05876 4.11762C9.05876 3.02556 9.49258 1.97823 10.2648 1.20602C11.037 0.433819 12.0843 0 13.1764 0C14.2684 0 15.3158 0.433819 16.088 1.20602C16.8602 1.97823 17.294 3.02556 17.294 4.11762ZM25.5292 4.94114C25.5292 5.81479 25.1822 6.65265 24.5644 7.27042C23.9466 7.88818 23.1088 8.23523 22.2351 8.23523C21.3615 8.23523 20.5236 7.88818 19.9059 7.27042C19.2881 6.65265 18.941 5.81479 18.941 4.94114C18.941 4.06749 19.2881 3.22963 19.9059 2.61186C20.5236 1.9941 21.3615 1.64705 22.2351 1.64705C23.1088 1.64705 23.9466 1.9941 24.5644 2.61186C25.1822 3.22963 25.5292 4.06749 25.5292 4.94114ZM4.11762 8.23523C4.99127 8.23523 5.82913 7.88818 6.44689 7.27042C7.06466 6.65265 7.41171 5.81479 7.41171 4.94114C7.41171 4.06749 7.06466 3.22963 6.44689 2.61186C5.82913 1.9941 4.99127 1.64705 4.11762 1.64705C3.24397 1.64705 2.4061 1.9941 1.78834 2.61186C1.17058 3.22963 0.823524 4.06749 0.823524 4.94114C0.823524 5.81479 1.17058 6.65265 1.78834 7.27042C2.4061 7.88818 3.24397 8.23523 4.11762 8.23523ZM6.58819 11.9411C6.58819 10.8046 7.51053 9.88228 8.647 9.88228H17.7058C18.7022 9.88228 19.534 10.5905 19.7234 11.5293H18.941C17.9798 11.5292 17.0487 11.8654 16.3093 12.4797C15.5699 13.094 15.0687 13.9476 14.8926 14.8926C13.9476 15.0687 13.094 15.5699 12.4797 16.3093C11.8654 17.0487 11.5292 17.9798 11.5293 18.941V25.5292C11.5293 25.7433 11.5458 25.9525 11.5771 26.1568C10.1521 25.7996 8.8873 24.9766 7.98345 23.8185C7.0796 22.6605 6.58852 21.2336 6.58819 19.7646V11.9411ZM26.2836 14.8926L26.3528 14.9058V11.9411C26.3528 10.8046 25.4304 9.88228 24.2939 9.88228H20.7874C21.1102 10.3632 21.3227 10.9249 21.3886 11.5293H22.2351C23.1964 11.5292 24.1274 11.8654 24.8669 12.4797C25.6063 13.094 26.1075 13.9476 26.2836 14.8926ZM4.94114 11.9411C4.94114 11.1785 5.17173 10.4719 5.56537 9.88228H2.05881C0.922346 9.88228 2.93801e-08 10.8046 2.93801e-08 11.9411V18.1175C-7.68609e-05 18.8226 0.150768 19.5196 0.4424 20.1616C0.734031 20.8036 1.15969 21.3758 1.69078 21.8396C2.22188 22.3035 2.84609 22.6483 3.5215 22.8509C4.1969 23.0535 4.90784 23.1091 5.60655 23.0142C5.16588 21.9876 4.93945 20.8818 4.94114 19.7646V11.9411ZM16.4705 16.4705V15.6469C16.4705 14.9917 16.7308 14.3633 17.1941 13.9C17.6574 13.4367 18.2858 13.1764 18.941 13.1764H22.2351C22.8904 13.1764 23.5188 13.4367 23.9821 13.9C24.4454 14.3633 24.7057 14.9917 24.7057 15.6469V16.4705H25.5292C26.1845 16.4705 26.8129 16.7308 27.2762 17.1941C27.7395 17.6574 27.9998 18.2858 27.9998 18.941V21.4116H24.7057V20.5881C24.7057 20.3697 24.6189 20.1602 24.4645 20.0058C24.3101 19.8513 24.1006 19.7646 23.8822 19.7646C23.6638 19.7646 23.4543 19.8513 23.2999 20.0058C23.1454 20.1602 23.0587 20.3697 23.0587 20.5881V21.4116H18.1175V20.5881C18.1175 20.3697 18.0308 20.1602 17.8763 20.0058C17.7219 19.8513 17.5124 19.7646 17.294 19.7646C17.0756 19.7646 16.8661 19.8513 16.7117 20.0058C16.5572 20.1602 16.4705 20.3697 16.4705 20.5881V21.4116H13.1764V18.941C13.1764 18.2858 13.4367 17.6574 13.9 17.1941C14.3633 16.7308 14.9917 16.4705 15.6469 16.4705H16.4705ZM18.1175 15.6469V16.4705H23.0587V15.6469C23.0587 15.4285 22.9719 15.2191 22.8175 15.0646C22.663 14.9102 22.4535 14.8234 22.2351 14.8234H18.941C18.7226 14.8234 18.5132 14.9102 18.3587 15.0646C18.2043 15.2191 18.1175 15.4285 18.1175 15.6469ZM24.7057 23.8822V23.0587H27.9998V25.5292C27.9998 26.1845 27.7395 26.8129 27.2762 27.2762C26.8129 27.7395 26.1845 27.9998 25.5292 27.9998H15.6469C14.9917 27.9998 14.3633 27.7395 13.9 27.2762C13.4367 26.8129 13.1764 26.1845 13.1764 25.5292V23.0587H16.4705V23.8822C16.4705 24.1006 16.5572 24.3101 16.7117 24.4645C16.8661 24.6189 17.0756 24.7057 17.294 24.7057C17.5124 24.7057 17.7219 24.6189 17.8763 24.4645C18.0308 24.3101 18.1175 24.1006 18.1175 23.8822V23.0587H23.0587V23.8822C23.0587 24.1006 23.1454 24.3101 23.2999 24.4645C23.4543 24.6189 23.6638 24.7057 23.8822 24.7057C24.1006 24.7057 24.3101 24.6189 24.4645 24.4645C24.6189 24.3101 24.7057 24.1006 24.7057 23.8822Z" fill="#E60062"/>
</svg>
