<svg width="932" height="462" viewBox="0 0 932 462" fill="none" xmlns="http://www.w3.org/2000/svg">
<rect y="0.386719" width="705" height="461.613" rx="50" fill="#E60062"/>
<path d="M778.418 266.36C779.83 254.691 780.888 243.022 780.888 231C780.888 218.978 779.83 207.309 778.418 195.64H838.047C840.87 206.955 842.634 218.801 842.634 231C842.634 243.199 840.87 255.045 838.047 266.36M747.192 364.66C757.777 345.035 765.893 323.82 771.538 301.72H823.581C806.489 331.215 779.373 353.557 747.192 364.66ZM742.782 266.36H660.219C658.455 254.691 657.396 243.022 657.396 231C657.396 218.978 658.455 207.132 660.219 195.64H742.782C744.37 207.132 745.605 218.978 745.605 231C745.605 243.022 744.37 254.691 742.782 266.36ZM701.501 371.732C686.858 350.516 675.038 327.002 667.805 301.72H735.196C727.963 327.002 716.143 350.516 701.501 371.732ZM630.934 160.28H579.42C596.336 130.706 623.433 108.328 655.632 97.3397C645.047 116.964 637.109 138.18 630.934 160.28ZM579.42 301.72H630.934C637.109 323.82 645.047 345.035 655.632 364.66C623.5 353.551 596.442 331.205 579.42 301.72ZM564.954 266.36C562.131 255.045 560.367 243.199 560.367 231C560.367 218.801 562.131 206.955 564.954 195.64H624.583C623.172 207.309 622.113 218.978 622.113 231C622.113 243.022 623.172 254.691 624.583 266.36M701.501 90.0909C716.143 111.307 727.963 134.998 735.196 160.28H667.805C675.038 134.998 686.858 111.307 701.501 90.0909ZM823.581 160.28H771.538C766.017 138.383 757.841 117.245 747.192 97.3397C779.653 108.478 806.645 130.932 823.581 160.28ZM701.501 54.2007C603.942 54.2007 525.084 133.76 525.084 231C525.084 277.89 543.671 322.86 576.755 356.016C593.137 372.433 612.585 385.456 633.989 394.341C655.393 403.226 678.333 407.799 701.501 407.799C748.289 407.799 793.161 389.172 826.246 356.016C859.331 322.86 877.917 277.89 877.917 231C877.917 207.782 873.354 184.792 864.488 163.342C855.623 141.892 842.628 122.401 826.246 105.984C809.864 89.5667 790.416 76.5437 769.012 67.6587C747.608 58.7737 724.668 54.2007 701.501 54.2007Z" fill="#F8F8F8"/>
</svg>
