<svg width="120" height="120" viewBox="0 0 120 120" fill="none" xmlns="http://www.w3.org/2000/svg">
<path d="M104.634 99.5283L94.6534 83.9443C103.261 76.7786 105.413 64.1332 99.2195 54.4608V54.4596C96.9653 50.9415 93.8803 48.2816 90.3932 46.5247V18.3455C90.3932 14.2725 87.0796 10.959 83.0067 10.959H22.2302C18.1573 10.959 14.8438 14.2725 14.8438 18.3455V102.06C14.8438 106.135 18.1573 109.448 22.2302 109.448H83.0066C87.0795 109.448 90.3931 106.135 90.3931 102.06V89.7848L98.9601 103.162L104.634 99.5283ZM94.969 57.1827C100.174 65.3163 97.7968 76.1681 89.6658 81.3739C88.8503 81.8964 87.997 82.3286 87.1256 82.7052L86.902 82.7978C84.9661 83.5997 82.9592 84.0247 80.965 84.1124C80.9064 84.1149 80.848 84.1156 80.7893 84.1174C79.8442 84.1499 78.8981 84.1055 77.9602 83.9847C77.8744 83.9733 77.7885 83.9539 77.7027 83.9413C76.8256 83.8152 75.9594 83.6227 75.1116 83.3655C75.0453 83.3453 74.9765 83.3319 74.9105 83.3111C74.044 83.0361 73.2035 82.6826 72.3883 82.2753C72.2831 82.2228 72.1766 82.1732 72.0724 82.1186C71.2719 81.6979 70.5054 81.2156 69.7797 80.6761C69.688 80.6078 69.5987 80.5364 69.5082 80.4664C68.7829 79.9048 68.0931 79.2887 67.4552 78.6077C67.3916 78.5394 67.3337 78.4651 67.2709 78.3958C66.6205 77.6786 66.0115 76.9109 65.4745 76.0719V76.0707C65.4188 75.9839 65.3757 75.8921 65.3217 75.8045C65.0639 75.3859 64.8143 74.9643 64.5957 74.5331C64.5427 74.429 64.5032 74.3202 64.4526 74.2153C64.2459 73.7868 64.0456 73.3564 63.8767 72.9181C63.8649 72.8877 63.8571 72.8557 63.8454 72.825C61.3976 66.3613 63.0134 58.9892 67.9426 54.144C67.9642 54.123 67.9828 54.0994 68.0044 54.0784C68.3512 53.7412 68.7234 53.4239 69.1023 53.1125C69.1809 53.0481 69.2515 52.9761 69.3314 52.9131C69.7951 52.5453 70.2769 52.2011 70.7752 51.8818C71.4449 51.4531 72.137 51.0895 72.8387 50.7625C73.102 50.6403 73.3738 50.5435 73.642 50.4349C74.0842 50.2553 74.5287 50.0848 74.979 49.9436C75.3044 49.8417 75.6337 49.7565 75.9639 49.6741C76.3712 49.5718 76.7821 49.4844 77.1957 49.4122C77.5388 49.3524 77.8822 49.2977 78.228 49.2583C78.6496 49.2107 79.0714 49.1873 79.4937 49.1704C79.8311 49.1567 80.1682 49.1354 80.5064 49.1411C80.8292 49.147 81.15 49.1769 81.4716 49.2004C81.8528 49.228 82.2343 49.2509 82.6142 49.3036C82.9368 49.3482 83.2544 49.4196 83.5739 49.482C83.9511 49.5558 84.3291 49.6235 84.7026 49.7223C85.003 49.8019 85.296 49.9078 85.592 50.0032C85.9791 50.128 86.3674 50.247 86.7479 50.3997C90.017 51.7094 92.9284 53.9991 94.969 57.1827ZM22.2302 16.0083H83.0066C84.2961 16.0083 85.3438 17.0573 85.3438 18.3455V32.4246H19.893V18.3455C19.893 17.0573 20.9407 16.0083 22.2302 16.0083ZM85.3438 102.06C85.3438 103.35 84.2959 104.399 83.0066 104.399H22.2302C20.9407 104.399 19.893 103.35 19.893 102.06V37.4739H85.3438V44.6693C85.3 44.6591 85.2555 44.6553 85.2117 44.6455C84.7093 44.5315 84.2007 44.451 83.6917 44.3712C83.4806 44.3383 83.2711 44.2904 83.0595 44.2638C77.9934 43.6161 72.6829 44.6654 68.0534 47.6292C67.4117 48.0409 66.7909 48.4844 66.1933 48.9578C66.0888 49.0406 65.997 49.1338 65.8944 49.218C65.408 49.617 64.9315 50.0248 64.4833 50.4595C64.4563 50.4859 64.433 50.5148 64.4062 50.5412C61.3013 53.5816 59.1357 57.4533 58.1842 61.7971C57.2232 66.1754 57.5794 70.6357 59.1609 74.7231L59.1613 74.724C59.4003 75.3416 59.6758 75.9478 59.9707 76.5468C60.0126 76.6321 60.0442 76.7207 60.0873 76.8058C60.4329 77.4875 60.8123 78.1515 61.2242 78.7953C61.8124 79.714 62.4776 80.5616 63.177 81.3736C63.3091 81.5266 63.4382 81.6809 63.5738 81.8295C64.2834 82.6102 65.0365 83.3411 65.842 84.0092C65.9186 84.0726 65.9995 84.1285 66.0768 84.1908C66.862 84.8235 67.6892 85.4022 68.5529 85.9228C68.6478 85.9801 68.7388 86.043 68.8346 86.0989C69.7286 86.6206 70.6608 87.0775 71.6261 87.4732C71.7913 87.5411 71.9589 87.5986 72.1257 87.6626C72.986 87.9917 73.8679 88.2739 74.7749 88.4991C74.9089 88.5323 75.039 88.5761 75.1735 88.607C75.247 88.6239 75.317 88.6497 75.3908 88.6659C76.3472 88.8755 77.3076 89.0032 78.2679 89.0887C78.438 89.1035 78.6083 89.1056 78.7789 89.1164C79.2745 89.1493 79.7705 89.1972 80.265 89.1972C80.6239 89.1972 80.9767 89.138 81.3342 89.1209C81.6836 89.1042 82.0326 89.0793 82.3808 89.0461C83.2043 88.9675 84.017 88.8385 84.8258 88.6692C84.9981 88.633 85.1721 88.6298 85.3439 88.5895V102.06H85.3438Z" fill="#E60062"/>
<path d="M24.0996 19.3223H34.1982V29.4208H24.0996V19.3223ZM24.0996 44.6977H52.6177V52.7383H24.0996V44.6977ZM24.0996 67.4801H52.6177V75.5207H24.0996V67.4801ZM24.0996 90.3742H31.9167V98.1914H24.0996V90.3742ZM40.2295 90.3742H48.0466V98.1914H40.2295V90.3742ZM56.3592 90.3742H64.1764V98.1914H56.3592V90.3742ZM72.4891 90.2268H80.3064V98.0439H72.4891V90.2268Z" fill="#FF73AF"/>
</svg>
