<svg width="50" height="50" viewBox="0 0 50 50" fill="none" xmlns="http://www.w3.org/2000/svg">
<rect width="50" height="50" rx="10.8333" fill="#E60062" fill-opacity="0.2"/>
<path d="M31 35.59L28.41 33L27 34.41L31 38.41L39 30.41L37.59 29L31 35.59Z" fill="#E60062"/>
<path d="M25 27C26.1046 27 27 26.1046 27 25C27 23.8954 26.1046 23 25 23C23.8954 23 23 23.8954 23 25C23 26.1046 23.8954 27 25 27Z" fill="#E60062"/>
<path d="M25 31C23.8133 31 22.6533 30.6481 21.6666 29.9888C20.6799 29.3295 19.9109 28.3925 19.4567 27.2961C19.0026 26.1997 18.8838 24.9933 19.1153 23.8295C19.3468 22.6656 19.9182 21.5965 20.7574 20.7574C21.5965 19.9182 22.6656 19.3468 23.8295 19.1153C24.9933 18.8838 26.1997 19.0026 27.2961 19.4567C28.3925 19.9109 29.3295 20.6799 29.9888 21.6666C30.6481 22.6533 31 23.8133 31 25C30.9981 26.5907 30.3654 28.1158 29.2406 29.2406C28.1158 30.3654 26.5907 30.9981 25 31ZM25 21C24.2089 21 23.4355 21.2346 22.7777 21.6741C22.1199 22.1136 21.6072 22.7384 21.3045 23.4693C21.0017 24.2002 20.9225 25.0044 21.0769 25.7804C21.2312 26.5563 21.6122 27.269 22.1716 27.8284C22.731 28.3878 23.4437 28.7688 24.2196 28.9231C24.9956 29.0775 25.7998 28.9983 26.5307 28.6955C27.2616 28.3928 27.8864 27.8801 28.3259 27.2223C28.7654 26.5645 29 25.7911 29 25C28.9987 23.9395 28.5768 22.9229 27.827 22.173C27.0771 21.4232 26.0605 21.0013 25 21Z" fill="#E60062"/>
<path d="M37 25C37 22.6266 36.2962 20.3066 34.9776 18.3332C33.6591 16.3598 31.7849 14.8217 29.5922 13.9135C27.3995 13.0052 24.9867 12.7676 22.6589 13.2306C20.3312 13.6936 18.193 14.8365 16.5147 16.5147C14.8365 18.193 13.6936 20.3312 13.2306 22.6589C12.7676 24.9867 13.0052 27.3995 13.9135 29.5922C14.8217 31.7849 16.3598 33.6591 18.3332 34.9776C20.3066 36.2962 22.6266 37 25 37V35C23.0222 35 21.0888 34.4135 19.4443 33.3147C17.7998 32.2159 16.5181 30.6541 15.7612 28.8268C15.0043 26.9996 14.8063 24.9889 15.1922 23.0491C15.578 21.1093 16.5304 19.3275 17.9289 17.9289C19.3275 16.5304 21.1093 15.578 23.0491 15.1922C24.9889 14.8063 26.9996 15.0043 28.8268 15.7612C30.6541 16.5181 32.2159 17.7998 33.3147 19.4443C34.4135 21.0888 35 23.0222 35 25H37Z" fill="#E60062"/>
</svg>
