<svg width="30" height="27" viewBox="0 0 30 27" fill="none" xmlns="http://www.w3.org/2000/svg">
<path d="M18.8942 27.0002H5.39885V24.3011H18.8942V27.0002ZM28.341 2.69908L21.9509 10.7356L21.654 11.1L14.0561 20.8031C13.8054 21.0539 13.5077 21.2528 13.18 21.3886C12.8524 21.5243 12.5012 21.5941 12.1465 21.5941C11.7919 21.5941 11.4407 21.5243 11.1131 21.3886C10.7854 21.2528 10.4877 21.0539 10.2369 20.8031C9.98617 20.5524 9.78725 20.2547 9.65153 19.927C9.51582 19.5994 9.44597 19.2482 9.44597 18.8935C9.44597 18.5389 9.51582 18.1877 9.65153 17.8601C9.78725 17.5324 9.98617 17.2347 10.2369 16.9839L28.341 2.69908ZM2.22069 7.06349C0.271323 10.1857 -0.429793 13.9279 0.257108 17.544H1.35023V16.1945C1.33553 13.5372 2.13112 10.9386 3.63095 8.74501L2.22069 7.06349ZM14.8456 3.63369e-07C12.7818 -0.000457133 10.7406 0.431095 8.85358 1.2669C6.96652 2.1027 5.2753 3.32424 3.88872 4.85294L5.43259 6.69371C7.26462 5.00913 9.6578 4.06629 12.1465 4.04862C14.6487 4.06606 17.054 5.01816 18.8902 6.718L23.6811 2.9366C21.1299 1.03004 18.0305 -0.00010446 14.8456 3.63369e-07ZM24.063 12.4158L23.7485 12.8031L22.7661 14.0581C22.8809 14.7645 22.94 15.4788 22.9429 16.1945V17.544H29.4341C30.0745 14.1666 29.5096 10.6716 27.8376 7.66808L24.063 12.4158Z" fill="#E60062"/>
</svg>
