<svg width="216" height="216" viewBox="0 0 216 216" fill="none" xmlns="http://www.w3.org/2000/svg">
<rect x="17.9355" y="18.6875" width="178.504" height="178.504" rx="30" fill="#E60062" fill-opacity="0.2"/>
<path d="M151.688 107.974V130.474H61.6875V70.4736H87.9375V62.9736H61.6875C59.6984 62.9736 57.7907 63.7638 56.3842 65.1703C54.9777 66.5769 54.1875 68.4845 54.1875 70.4736V130.474C54.1875 132.463 54.9777 134.37 56.3842 135.777C57.7907 137.183 59.6984 137.974 61.6875 137.974H91.6875V152.974H76.6875V160.474H136.688V152.974H121.688V137.974H151.688C153.677 137.974 155.584 137.183 156.991 135.777C158.397 134.37 159.188 132.463 159.188 130.474V107.974H151.688ZM114.188 152.974H99.1875V137.974H114.188V152.974Z" fill="#E60062"/>
<path d="M105.217 115.474H105.179C104.371 115.465 103.588 115.196 102.945 114.706C102.302 114.216 101.835 113.532 101.613 112.755L94.8893 89.2236H78.9668V81.7236H97.7168C98.5319 81.7231 99.3249 81.9882 99.9758 82.4788C100.627 82.9694 101.1 83.6587 101.324 84.4423L105.352 98.5423L116.636 61.8673C116.879 61.1062 117.356 60.4412 117.999 59.9666C118.642 59.4921 119.418 59.2321 120.217 59.2236C121.007 59.2117 121.78 59.4548 122.421 59.9168C123.062 60.3789 123.537 61.0352 123.776 61.7886L130.417 81.7236H150.217V89.2236H127.717C126.929 89.2237 126.162 88.9761 125.523 88.5157C124.884 88.0553 124.407 87.4056 124.158 86.6586L120.359 75.2586L108.802 112.826C108.566 113.593 108.091 114.264 107.445 114.74C106.8 115.217 106.019 115.474 105.217 115.474Z" fill="#E60062"/>
<path d="M170.717 65.5986C160.811 65.5986 152.779 73.8264 152.779 83.9736C152.779 94.1209 160.811 102.349 170.717 102.349C180.622 102.349 188.654 94.1209 188.654 83.9736C188.654 73.8264 180.622 65.5986 170.717 65.5986ZM180.474 89.765L170.717 95.54L160.959 89.765V78.2232L165.364 75.6146L165.348 75.6064H165.356L170.717 72.4482L176.082 75.6064H176.074L176.062 75.6146L180.47 78.2232V89.765H180.474ZM162.545 84.9867L166.052 87.0334V90.9053L169.924 93.198V84.4986L162.545 80.1346V84.9867ZM170.709 78.7605L166.953 76.5498L163.306 78.7072L170.721 83.0959L178.136 78.7113L174.476 76.5457L170.709 78.7605ZM171.51 93.198L175.405 90.893V87.0334L178.889 85.0031V80.1387L171.51 84.5068V93.198Z" fill="#E60062"/>
</svg>
