<svg width="120" height="120" viewBox="0 0 120 120" fill="none" xmlns="http://www.w3.org/2000/svg">
<path d="M83.4375 85.0781H36.5625C35.5781 85.0781 34.8047 85.875 34.8047 86.8359V95.0156C34.8047 96 35.6016 96.7734 36.5625 96.7734H83.4375C84.4219 96.7734 85.1953 95.9766 85.1953 95.0156V86.8359C85.2188 85.875 84.4219 85.0781 83.4375 85.0781Z" fill="#E60062"/>
<path d="M79.6406 81.3281C80.8359 81.3281 81.8203 80.3672 81.8203 79.1484V63.7969C81.8203 62.6016 80.8594 61.6172 79.6406 61.6172H40.3828C39.1875 61.6172 38.2031 62.5781 38.2031 63.7969V79.1484C38.2031 80.3438 39.1641 81.3281 40.3828 81.3281H79.6406ZM56.4141 69.3516C56.5312 67.5469 58.0078 66.0703 59.8359 65.9766C61.8984 65.8828 63.6094 67.5234 63.6094 69.5625C63.6094 70.5469 63.2109 71.4609 62.5547 72.1172L64.2656 76.9922H55.7578L57.4687 72.1172C56.7422 71.4141 56.3437 70.4297 56.4141 69.3516Z" fill="#FF73AF"/>
<path d="M83.4375 46.1719H78.1172V34.4531C78.1172 24.4688 69.9844 16.3359 60 16.3359C50.0156 16.3359 41.8828 24.4688 41.8828 34.4531V46.1719H36.5625C35.5781 46.1719 34.8047 46.9688 34.8047 47.9297V56.1094C34.8047 57.0938 35.6016 57.8672 36.5625 57.8672H83.4375C84.4219 57.8672 85.1953 57.0703 85.1953 56.1094V47.9297C85.2188 46.9688 84.4219 46.1719 83.4375 46.1719ZM74.3672 46.1719H45.6328V34.4531C45.6328 26.5313 52.0781 20.0859 60 20.0859C67.9219 20.0859 74.3672 26.5313 74.3672 34.4531V46.1719Z" fill="#E60062"/>
<path d="M91.2891 53.9062H98.4375C99.4688 53.9062 100.312 53.0625 100.312 52.0312V22.2656H102.727C103.5 24.5391 105.68 26.2031 108.211 26.2031C111.398 26.2031 114.023 23.6016 114.023 20.3906C114.023 17.1797 111.422 14.5781 108.211 14.5781C105.68 14.5781 103.5 16.2187 102.727 18.5156H98.4375C97.4062 18.5156 96.5625 19.3594 96.5625 20.3906V50.1562H91.2891C90.2578 50.1562 89.4141 51 89.4141 52.0312C89.4141 53.0625 90.2578 53.9062 91.2891 53.9062Z" fill="#FF73AF"/>
<path d="M108.211 59.5781C105.68 59.5781 103.5 61.2188 102.727 63.5156H99.0234C97.9922 63.5156 97.1484 64.3594 97.1484 65.3906V72.7266H89.1094C88.0781 72.7266 87.2344 73.5703 87.2344 74.6016C87.2344 75.6328 88.0781 76.4766 89.1094 76.4766H99.0234C100.055 76.4766 100.898 75.6328 100.898 74.6016V67.2656H102.727C103.5 69.5391 105.68 71.2031 108.211 71.2031C111.398 71.2031 114.023 68.6016 114.023 65.3906C114.023 62.1797 111.422 59.5781 108.211 59.5781Z" fill="#FF73AF"/>
<path d="M108.211 93.8203C105.68 93.8203 103.5 95.4609 102.727 97.7578H101.297V90.9609C101.297 89.9297 100.453 89.0859 99.4219 89.0859H92.1094C91.0781 89.0859 90.2344 89.9297 90.2344 90.9609C90.2344 91.9922 91.0781 92.8359 92.1094 92.8359H97.5703V99.6328C97.5703 100.664 98.4141 101.508 99.4453 101.508H102.75C103.523 103.781 105.703 105.445 108.234 105.445C111.422 105.445 114.047 102.844 114.047 99.6328C114.047 96.4219 111.422 93.8203 108.211 93.8203Z" fill="#FF73AF"/>
<path d="M11.7891 26.2031C14.3203 26.2031 16.5 24.5625 17.2734 22.2656H19.6875V52.0312C19.6875 53.0625 20.5312 53.9062 21.5625 53.9062H28.7109C29.7422 53.9062 30.5859 53.0625 30.5859 52.0312C30.5859 51 29.7422 50.1562 28.7109 50.1562H23.4375V20.3906C23.4375 19.3594 22.5938 18.5156 21.5625 18.5156H17.2734C16.5 16.2422 14.3203 14.5781 11.7891 14.5781C8.60156 14.5781 5.97656 17.1797 5.97656 20.3906C5.97656 23.6016 8.57812 26.2031 11.7891 26.2031Z" fill="#FF73AF"/>
<path d="M30.9141 72.7266H22.8516V65.3906C22.8516 64.3594 22.0078 63.5156 20.9766 63.5156H17.2734C16.5 61.2422 14.3203 59.5781 11.7891 59.5781C8.60156 59.5781 5.97656 62.1797 5.97656 65.3906C5.97656 68.6016 8.57812 71.2031 11.7891 71.2031C14.3203 71.2031 16.5 69.5625 17.2734 67.2656H19.1016V74.6016C19.1016 75.6328 19.9453 76.4766 20.9766 76.4766H30.8906C31.9219 76.4766 32.7656 75.6328 32.7656 74.6016C32.7656 73.5703 31.9453 72.7266 30.9141 72.7266Z" fill="#FF73AF"/>
<path d="M27.8906 89.0625H20.5781C19.5469 89.0625 18.7031 89.9063 18.7031 90.9375V97.7344H17.2734C16.5 95.4609 14.3203 93.7969 11.7891 93.7969C8.60156 93.7969 5.97656 96.3984 5.97656 99.6094C5.97656 102.82 8.57812 105.422 11.7891 105.422C14.3203 105.422 16.5 103.781 17.2734 101.484H20.5781C21.6094 101.484 22.4531 100.641 22.4531 99.6094V92.8125H27.8906C28.9219 92.8125 29.7656 91.9688 29.7656 90.9375C29.7656 89.9063 28.9219 89.0625 27.8906 89.0625Z" fill="#FF73AF"/>
</svg>
