<svg width="1322" height="903" viewBox="0 0 1322 903" fill="none" xmlns="http://www.w3.org/2000/svg">
<path d="M461.499 2.00095C461.499 0.895854 460.604 4.83053e-08 459.498 0C458.393 -4.83049e-08 457.497 0.895854 457.497 2.00095L461.499 2.00095ZM457.497 2.00095L457.497 479.919L461.499 479.919L461.499 2.00095L457.497 2.00095Z" fill="white" fill-opacity="0.7"/>
<path d="M921.291 2.00095C921.291 0.895854 920.395 -4.48532e-08 919.29 0C918.185 4.48535e-08 917.289 0.895854 917.289 2.00095L921.291 2.00095ZM917.289 2.00095L917.289 479.854L921.291 479.854L921.291 2.00095L917.289 2.00095Z" fill="white" fill-opacity="0.7"/>
<path d="M2.00095 479.653C0.895854 479.653 -1.1298e-07 480.549 0 481.654C1.12975e-07 482.759 0.895854 483.655 2.00095 483.655L2.00095 479.653ZM2.00095 483.655L1321.95 483.655L1321.95 479.653L2.00095 479.653L2.00095 483.655Z" fill="white" fill-opacity="0.7"/>
<path d="M461.499 481.654C461.499 480.549 460.604 479.653 459.498 479.653C458.393 479.653 457.497 480.549 457.497 481.654L461.499 481.654ZM457.497 481.654L457.497 903L461.499 903L461.499 481.654L457.497 481.654Z" fill="white" fill-opacity="0.7"/>
<path d="M921.291 481.654C921.291 480.549 920.395 479.653 919.29 479.653C918.185 479.653 917.289 480.549 917.289 481.654L921.291 481.654ZM917.289 481.654L917.289 902.942L921.291 902.942L921.291 481.654L917.289 481.654Z" fill="white" fill-opacity="0.7"/>
</svg>
