<svg width="44" height="44" viewBox="0 0 44 44" fill="none" xmlns="http://www.w3.org/2000/svg">
<path d="M20.7708 4.88453L22.1458 2.13455C22.309 1.8084 22.595 1.56043 22.9411 1.4452C23.2871 1.32997 23.6647 1.35691 23.9908 1.5201C24.317 1.68329 24.565 1.96936 24.6802 2.31538C24.7954 2.66139 24.7685 3.03901 24.6053 3.36516L23.2303 6.11514C23.1495 6.27663 23.0377 6.42063 22.9012 6.53891C22.7648 6.65719 22.6064 6.74743 22.435 6.80449C22.2637 6.86155 22.0828 6.8843 21.9027 6.87145C21.7226 6.8586 21.5467 6.81039 21.3852 6.72959C21.2238 6.64878 21.0798 6.53696 20.9615 6.40051C20.8432 6.26406 20.753 6.10564 20.6959 5.93431C20.6388 5.76298 20.6161 5.58209 20.6289 5.40197C20.6418 5.22185 20.69 5.04602 20.7708 4.88453ZM2.74986 17.8747H4.12484C4.48951 17.8747 4.83925 17.7299 5.09711 17.472C5.35497 17.2141 5.49983 16.8644 5.49983 16.4997C5.49983 16.1351 5.35497 15.7853 5.09711 15.5275C4.83925 15.2696 4.48951 15.1248 4.12484 15.1248H2.74986C2.38519 15.1248 2.03545 15.2696 1.77759 15.5275C1.51973 15.7853 1.37487 16.1351 1.37487 16.4997C1.37487 16.8644 1.51973 17.2141 1.77759 17.472C2.03545 17.7299 2.38519 17.8747 2.74986 17.8747ZM16.4997 5.49983C16.8644 5.49983 17.2141 5.35497 17.472 5.09711C17.7299 4.83925 17.8747 4.48951 17.8747 4.12484V2.74986C17.8747 2.38519 17.7299 2.03545 17.472 1.77759C17.2141 1.51973 16.8644 1.37487 16.4997 1.37487C16.1351 1.37487 15.7853 1.51973 15.5275 1.77759C15.2696 2.03545 15.1248 2.38519 15.1248 2.74986V4.12484C15.1248 4.48951 15.2696 4.83925 15.5275 5.09711C15.7853 5.35497 16.1351 5.49983 16.4997 5.49983ZM4.88453 20.7708L2.13455 22.1458C1.8084 22.309 1.56043 22.595 1.4452 22.9411C1.32997 23.2871 1.35691 23.6647 1.5201 23.9908C1.68329 24.317 1.96936 24.565 2.31538 24.6802C2.66139 24.7954 3.03901 24.7685 3.36516 24.6053L6.11514 23.2303C6.27663 23.1495 6.42063 23.0377 6.53891 22.9012C6.65719 22.7648 6.74743 22.6064 6.80449 22.435C6.86155 22.2637 6.8843 22.0828 6.87145 21.9027C6.8586 21.7226 6.81039 21.5467 6.72959 21.3852C6.64878 21.2238 6.53696 21.0798 6.40051 20.9615C6.26406 20.8432 6.10564 20.753 5.93431 20.6959C5.76298 20.6388 5.58209 20.6161 5.40197 20.6289C5.22185 20.6418 5.04602 20.69 4.88453 20.7708ZM28.1992 23.5036L36.8513 19.743C37.3582 19.5182 37.7853 19.1455 38.0765 18.6737C38.3678 18.2018 38.5097 17.653 38.4834 17.0991C38.4572 16.5453 38.2642 16.0122 37.9297 15.57C37.5952 15.1278 37.1348 14.7971 36.6089 14.6212L9.09543 5.63733C8.61399 5.47976 8.09831 5.45868 7.60561 5.57641C7.11291 5.69414 6.66247 5.94608 6.30428 6.30428C5.94608 6.66247 5.69414 7.11291 5.57641 7.60561C5.45868 8.09831 5.47977 8.61399 5.63733 9.09543L14.6212 36.6089C14.7905 37.1399 15.1189 37.606 15.5618 37.9442C16.0048 38.2824 16.541 38.4762 17.0979 38.4996H17.2319C17.766 38.5014 18.2888 38.3461 18.7353 38.0531C19.1818 37.76 19.5323 37.342 19.743 36.8513L23.5036 28.1992L32.9996 37.6935C33.255 37.9489 33.5581 38.1515 33.8918 38.2897C34.2255 38.428 34.5832 38.4991 34.9443 38.4991C35.3055 38.4991 35.6632 38.428 35.9969 38.2897C36.3305 38.1515 36.6337 37.9489 36.8891 37.6935L37.6935 36.8891C37.9489 36.6337 38.1515 36.3305 38.2897 35.9969C38.428 35.6632 38.4991 35.3055 38.4991 34.9443C38.4991 34.5832 38.428 34.2255 38.2897 33.8918C38.1515 33.5581 37.9489 33.255 37.6935 32.9996L28.1992 23.5036Z" fill="#E60062"/>
</svg>
