<svg width="23" height="22" viewBox="0 0 23 22" fill="none" xmlns="http://www.w3.org/2000/svg">
<path d="M10.5221 0.710592C10.83 -0.236888 12.1704 -0.236887 12.4782 0.710593L14.488 6.89595C14.6257 7.31967 15.0205 7.60656 15.4661 7.60656H21.9697C22.966 7.60656 23.3802 8.88138 22.5742 9.46696L17.3126 13.2897C16.9522 13.5516 16.8014 14.0158 16.939 14.4395L18.9488 20.6249C19.2566 21.5723 18.1722 22.3602 17.3662 21.7747L12.1047 17.9519C11.7442 17.69 11.2561 17.69 10.8957 17.9519L5.63412 21.7747C4.82814 22.3602 3.74371 21.5723 4.05157 20.6249L6.06131 14.4395C6.19899 14.0158 6.04816 13.5516 5.68772 13.2897L0.426144 9.46696C-0.37983 8.88138 0.0343863 7.60656 1.03063 7.60656H7.53429C7.97982 7.60656 8.37468 7.31967 8.51236 6.89595L10.5221 0.710592Z" fill="white"/>
</svg>
