<svg width="120" height="120" viewBox="0 0 120 120" fill="none" xmlns="http://www.w3.org/2000/svg">
<g clip-path="url(#clip0_888_6255)">
<path d="M57.5 70C56 70 55 69 55 67.5C55 66 56 65 57.5 65H62.5C64 65 65 64 65 62.5C65 61 64 60 62.5 60H60V57.5C60 56 59 55 57.5 55C56 55 55 56 55 57.5V60.5C52 61.5 50 64.5 50 67.5C50 71.5 53.5 75 57.5 75C59 75 60 76 60 77.5C60 79 59 80 57.5 80H52.5C51 80 50 81 50 82.5C50 84 51 85 52.5 85H55V87.5C55 89 56 90 57.5 90C59 90 60 89 60 87.5V84.5C63 83.5 65 80.5 65 77.5C65 73.5 61.5 70 57.5 70Z" fill="#E60062"/>
<path d="M105 90C101 90 97 92 94 94.5L81.5 86C83.5 82 85 77.5 85 72.5C85 69.5 84.5 66.5 83.5 63.5L92.5 59.5C95 62.5 98.5 65 102.5 65C109.5 65 115 59.5 115 52.5C115 45.5 109.5 40 102.5 40C102 40 101 40 100.5 40L97.5 33C99 31.5 100 29.5 100 27.5C100 23.5 96.5 20 92.5 20C88.5 20 85 23.5 85 27.5C85 31.5 88.5 35 92.5 35H93L96 42C92.5 44.5 90 48 90 52.5C90 53.5 90 54.5 90.5 55L81.5 59C77 50.5 68 45 57.5 45C50 45 43.5 48 38.5 52.5L32 47C34 44.5 35 41 35 37.5C35 34.5 34 32 33 29.5L44 21.5C46 23.5 49 25 52.5 25C59 25 64.5 19.5 65 13L76 11C77 13.5 79.5 15 82.5 15C86.5 15 90 11.5 90 7.5C90 3.5 86.5 0 82.5 0C79 0 76 2.5 75 6L64 8C62.5 3.5 58 0 52.5 0C45.5 0 40 5.5 40 12.5C40 14.5 40.5 16 41 17.5L30 25.5C27 22 22.5 20 17.5 20C8 20 0 28 0 37.5C0 47 8 55 17.5 55C22 55 26 53.5 29 50.5L35.5 56C32 60.5 30 66 30 72C30 77.5 31.5 82 34 86.5L25.5 93C23.5 91 20.5 90 17 90C10.5 90 5 95.5 5 102.5C5 109.5 10.5 115 17.5 115C24.5 115 30 109.5 30 102.5C30 100.5 29.5 99 29 97L37.5 90.5C42.5 96 50 99.5 58 99.5C66.5 99.5 74 95.5 79 89.5L91.5 98C90.5 100.5 90 103 90 105C90 113.5 96.5 120 105 120C113.5 120 120 113.5 120 105C120 96.5 113.5 90 105 90ZM90 27.5C90 26 91 25 92.5 25C94 25 95 26 95 27.5C95 29 94 30 92.5 30C91 30 90 29 90 27.5ZM102.5 45C106.5 45 110 48.5 110 52.5C110 56.5 106.5 60 102.5 60C98.5 60 95 56.5 95 52.5C95 48.5 98.5 45 102.5 45ZM82.5 5C84 5 85 6 85 7.5C85 9 84 10 82.5 10C81 10 80 9 80 7.5C80 6 81 5 82.5 5ZM52.5 5C56.5 5 60 8.5 60 12.5C60 16.5 56.5 20 52.5 20C48.5 20 45 16.5 45 12.5C45 8.5 48.5 5 52.5 5ZM17.5 110C13.5 110 10 106.5 10 102.5C10 98.5 13.5 95 17.5 95C21.5 95 25 98.5 25 102.5C25 106.5 21.5 110 17.5 110ZM17.5 50C10.5 50 5 44.5 5 37.5C5 30.5 10.5 25 17.5 25C24.5 25 30 30.5 30 37.5C30 44.5 24.5 50 17.5 50ZM57.5 95C45 95 35 85 35 72.5C35 60 45 50 57.5 50C70 50 80 60 80 72.5C80 85 70 95 57.5 95ZM105 115C99.5 115 95 110.5 95 105C95 99.5 99.5 95 105 95C110.5 95 115 99.5 115 105C115 110.5 110.5 115 105 115Z" fill="#E60062"/>
</g>
<defs>
<clipPath id="clip0_888_6255">
<rect width="120" height="120" fill="white"/>
</clipPath>
</defs>
</svg>
