<svg width="216" height="216" viewBox="0 0 216 216" fill="none" xmlns="http://www.w3.org/2000/svg">
<rect x="18.3555" y="19.1006" width="178.504" height="178.504" rx="30" fill="#E60062" fill-opacity="0.2"/>
<path d="M141.207 122.153C142.957 117.903 143.907 113.353 143.907 108.353C143.907 104.753 143.357 101.303 142.407 98.1025C139.157 98.8525 135.757 99.2525 132.207 99.2525C124.937 99.2603 117.772 97.5201 111.315 94.1786C104.858 90.8371 99.2996 85.9923 95.1074 80.0525C90.6229 90.9034 82.163 99.6315 71.4574 104.453C71.2574 105.703 71.2574 107.053 71.2574 108.353C71.2574 113.126 72.1976 117.853 74.0244 122.263C75.8512 126.673 78.5287 130.68 81.9041 134.056C88.721 140.873 97.9668 144.703 107.607 144.703C112.857 144.703 117.907 143.553 122.457 141.503C125.307 146.953 126.607 149.653 126.507 149.653C118.307 152.403 111.957 153.753 107.607 153.753C95.5074 153.753 83.9574 149.003 75.4574 140.453C70.2874 135.298 66.4443 128.968 64.2574 122.003H57.6074V99.2525H63.0574C64.7086 91.2151 68.5049 83.7746 74.0434 77.7205C79.5819 71.6664 86.656 67.2246 94.5151 64.8663C102.374 62.5081 110.725 62.3214 118.682 64.326C126.638 66.3307 133.904 70.452 139.707 76.2525C146.009 82.5288 150.306 90.533 152.057 99.2525H157.607V122.003H157.307L139.507 138.353L113.007 135.353V127.003H137.157L141.207 122.153ZM93.9574 107.203C95.4574 107.203 96.9074 107.803 97.9574 108.903C99.0126 109.966 99.6048 111.404 99.6048 112.903C99.6048 114.401 99.0126 115.839 97.9574 116.903C96.9074 117.953 95.4574 118.553 93.9574 118.553C90.8074 118.553 88.2574 116.053 88.2574 112.903C88.2574 109.753 90.8074 107.203 93.9574 107.203ZM121.207 107.203C124.357 107.203 126.857 109.753 126.857 112.903C126.857 116.053 124.357 118.553 121.207 118.553C118.057 118.553 115.507 116.053 115.507 112.903C115.507 111.391 116.108 109.941 117.177 108.872C118.246 107.803 119.696 107.203 121.207 107.203Z" fill="#E60062"/>
</svg>
