<svg width="120" height="120" viewBox="0 0 120 120" fill="none" xmlns="http://www.w3.org/2000/svg">
<g clip-path="url(#clip0_886_6229)">
<path d="M117.833 68.8463V62.1775H92.842V64.6387H86.9855V68.8463H85.9568L61.7916 48.2836H58.2084L34.0432 68.8463H33.0148V64.6387H27.378V38.3804H2.10956V68.8463H0V106.072H34.5324V108.626H85.4679V106.072H120V68.8463H117.833ZM14.7436 43.2344C18.1303 43.2344 20.8748 45.9795 20.8748 49.3656C20.8748 52.752 18.1303 55.4968 14.7436 55.4968C11.3575 55.4968 8.61243 52.7517 8.61243 49.3656C8.61243 45.9792 11.3575 43.2344 14.7436 43.2344ZM38.6528 98.3269H34.5324V100.881H5.19181V74.0385H38.6528V98.3269ZM56.8282 98.3269H44.996V74.0382H56.8282V98.3269ZM75.0037 98.3269H63.1715V74.0382H75.0037V98.3269ZM43.1294 68.3747L59.9999 54.0191L76.8703 68.3747H43.1294ZM114.808 100.881H85.4679V98.3266H81.3469V74.0379H114.808V100.881Z" fill="#E60062"/>
<path d="M16.8593 77.2358H10.8008V97.6832H16.8593V77.2358Z" fill="#E60062"/>
<path d="M31.4491 77.2358H25.3906V97.6832H31.4491V77.2358Z" fill="#E60062"/>
<path d="M94.6093 77.2358H88.5508V97.6832H94.6093V77.2358Z" fill="#E60062"/>
<path d="M109.201 77.2358H103.143V97.6832H109.201V77.2358Z" fill="#E60062"/>
<path d="M14.7434 26.8548L20.1349 35.6662H27.3778V34.0383L14.7434 11.3735L2.10938 34.0383V35.6662H9.35198L14.7434 26.8548Z" fill="#E60062"/>
</g>
<defs>
<clipPath id="clip0_886_6229">
<rect width="120" height="120" fill="white"/>
</clipPath>
</defs>
</svg>
