<svg width="24" height="24" viewBox="0 0 24 24" fill="none" xmlns="http://www.w3.org/2000/svg">
<g clip-path="url(#clip0_913_4366)">
<path d="M6.69922 11.9999C6.70296 13.1082 6.84176 14.2119 7.11255 15.2866H11.4326V8.96655H7.05255C6.8221 9.96134 6.70358 10.9788 6.69922 11.9999Z" fill="#717171"/>
<path d="M12.5664 8.96655V15.2866H16.8864C17.1684 14.2132 17.3184 13.1095 17.3331 11.9999C17.3309 10.979 17.2146 9.96159 16.9864 8.96655H12.5664Z" fill="#717171"/>
<path d="M12.0007 1.33325C9.89099 1.33325 7.8287 1.95884 6.07457 3.13091C4.32045 4.30298 2.95328 5.96888 2.14594 7.91796C1.33861 9.86704 1.12737 12.0118 1.53895 14.0809C1.95052 16.15 2.96642 18.0506 4.45818 19.5424C5.94994 21.0342 7.85056 22.0501 9.91969 22.4616C11.9888 22.8732 14.1335 22.662 16.0826 21.8546C18.0317 21.0473 19.6976 19.6801 20.8697 17.926C22.0417 16.1719 22.6673 14.1096 22.6673 11.9999C22.6673 9.17094 21.5435 6.45783 19.5431 4.45745C17.5427 2.45706 14.8296 1.33325 12.0007 1.33325ZM20.1473 16.4733H17.734C17.2777 17.9018 16.603 19.2511 15.734 20.4732C15.0927 20.7527 14.4217 20.9585 13.734 21.0866C14.9656 19.7483 15.9136 18.1744 16.5207 16.4599H12.574V21.2266H11.4473V16.4733H7.48066C8.08693 18.1901 9.0349 19.7663 10.2673 21.1066C9.59376 20.9799 8.93638 20.7787 8.30732 20.5066C7.4352 19.2742 6.76044 17.9134 6.30732 16.4733H3.85399C3.64102 16.0847 3.4561 15.6815 3.30066 15.2666H5.96732C5.71745 14.1954 5.58776 13.0998 5.58066 11.9999C5.58102 10.9804 5.68828 9.96373 5.90066 8.96658H3.17399C3.31419 8.55291 3.4835 8.14968 3.68066 7.75992H6.22066C6.69725 6.17261 7.43636 4.67635 8.40732 3.33325C9.02304 3.07813 9.66455 2.89037 10.3207 2.77325C8.99443 4.19662 7.99354 5.89131 7.38732 7.73992H11.4473V2.66659H12.574V7.75992H16.634C16.0289 5.91427 15.0303 4.22198 13.7073 2.79992C14.3624 2.90858 15.0038 3.08739 15.6207 3.33325C16.586 4.66665 17.3227 6.15137 17.8007 7.72658H20.314C20.5111 8.11635 20.6804 8.51958 20.8207 8.93325H18.114C18.3309 9.94106 18.4404 10.969 18.4407 11.9999C18.4372 13.1062 18.3098 14.2087 18.0607 15.2866H20.7273C20.5624 15.6954 20.3686 16.092 20.1473 16.4733Z" fill="#717171"/>
</g>
<defs>
<clipPath id="clip0_913_4366">
<rect width="24" height="24" fill="white"/>
</clipPath>
</defs>
</svg>
