<svg width="22" height="23" viewBox="0 0 22 23" fill="none" xmlns="http://www.w3.org/2000/svg">
<path d="M8.04059 0.963468C8.09206 -0.0185967 9.37014 -0.361058 9.90575 0.463701L13.4023 5.84791C13.6418 6.21675 14.0916 6.38941 14.5164 6.27558L20.7176 4.61398C21.6675 4.35946 22.3882 5.46916 21.7693 6.23342L17.7291 11.2226C17.4523 11.5644 17.4271 12.0456 17.6666 12.4144L21.1632 17.7986C21.6988 18.6234 20.8661 19.6517 19.948 19.2992L13.9545 16.9985C13.5439 16.8409 13.0785 16.9656 12.8017 17.3074L8.76153 22.2966C8.14265 23.0609 6.90736 22.5867 6.95883 21.6046L7.29482 15.1935C7.31784 14.7543 7.05544 14.3503 6.64485 14.1927L0.651332 11.892C-0.266763 11.5395 -0.197513 10.2182 0.752391 9.96364L6.95357 8.30204C7.37838 8.18822 7.68158 7.81379 7.7046 7.3746L8.04059 0.963468Z" fill="white"/>
</svg>
