<svg width="30" height="28" viewBox="0 0 30 28" fill="none" xmlns="http://www.w3.org/2000/svg">
<path d="M29.3351 8.66667L20.7084 7.94667L17.3351 0L13.9618 7.94667L5.33509 8.66667L11.8684 14.36L9.92175 22.8L17.3351 18.32L24.7484 22.8L22.7884 14.36L29.3351 8.66667ZM20.1884 14.9733L20.7218 17.2533L18.7084 16.04L17.3351 15.2133L15.9618 16.04L13.9484 17.2533L14.4684 14.9733L14.8418 13.4L13.6284 12.3467L11.8418 10.8L14.1884 10.6L15.7884 10.4667L16.4151 8.98667L17.3351 6.82667L18.2551 8.98667L18.8818 10.4667L20.4818 10.6L22.8151 10.8L21.0418 12.3467L19.8151 13.4L20.1884 14.9733ZM0.215086 14.6667C-0.18358 14 -0.0129135 13.1867 0.601753 12.7867L4.24175 10.3867L6.33509 12.2L2.06842 15.0133C1.84175 15.16 1.58842 15.24 1.33509 15.24C0.90842 15.24 0.481753 15.0267 0.215086 14.6667ZM0.601753 25.5467L8.41509 20.4133L8.00175 22.3467L7.54842 24.1733L2.06842 27.7867C1.84175 27.9333 1.58842 28 1.33509 28C0.90842 28 0.481753 27.7867 0.215086 27.4C0.0237312 27.1021 -0.0429672 26.7409 0.0293526 26.3942C0.101672 26.0476 0.307226 25.7432 0.601753 25.5467ZM8.42842 14L9.65509 15.08L9.29508 16.6667L2.06842 21.4C1.84175 21.5467 1.58842 21.6133 1.33509 21.6133C0.90842 21.6133 0.481753 21.4133 0.215086 21.0133C0.0233808 20.7178 -0.0435585 20.3583 0.0288918 20.0136C0.101342 19.6688 0.307293 19.3667 0.601753 19.1733L8.42842 14Z" fill="#E60062"/>
</svg>
