<svg width="55" height="55" viewBox="0 0 55 55" fill="none" xmlns="http://www.w3.org/2000/svg">
<path d="M25.208 32.0829H20.6247C20.6247 26.6129 22.7977 21.3669 26.6656 17.499C30.5335 13.6311 35.7795 11.4581 41.2495 11.4581V16.0414C32.3809 16.0414 25.208 23.2143 25.208 32.0829ZM41.2495 25.208V20.6247C34.9246 20.6247 29.7913 25.758 29.7913 32.0829H34.3746C34.3746 28.2788 37.4454 25.208 41.2495 25.208ZM16.0414 9.16646C16.0414 6.62274 14.0018 4.58317 11.4581 4.58317C8.91438 4.58317 6.87482 6.62274 6.87482 9.16646C6.87482 11.7102 8.91438 13.7498 11.4581 13.7498C14.0018 13.7498 16.0414 11.7102 16.0414 9.16646ZM26.2392 10.3123H21.6559C21.39 11.9131 20.5645 13.3676 19.3265 14.4168C18.0885 15.4659 16.5184 16.0416 14.8956 16.0414H8.02064C6.11857 16.0414 4.58317 17.5768 4.58317 19.4789V25.208H18.3331V20.0289C20.4563 19.3593 22.3368 18.082 23.7419 16.3551C25.1471 14.6282 26.0153 12.5274 26.2392 10.3123ZM43.5412 38.9579C46.0849 38.9579 48.1245 36.9183 48.1245 34.3746C48.1245 31.8309 46.0849 29.7913 43.5412 29.7913C40.9974 29.7913 38.9579 31.8309 38.9579 34.3746C38.9579 36.9183 40.9974 38.9579 43.5412 38.9579ZM46.9786 41.2495H40.1037C38.4809 41.2498 36.9107 40.674 35.6727 39.6249C34.4347 38.5757 33.6093 37.1212 33.3433 35.5204H28.76C28.984 37.7355 29.8522 39.8363 31.2573 41.5633C32.6625 43.2902 34.543 44.5674 36.6662 45.237V50.4161H50.4161V44.687C50.4161 42.7849 48.8807 41.2495 46.9786 41.2495Z" fill="#E60062"/>
</svg>
