<svg width="59" height="60" viewBox="0 0 59 60" fill="none" xmlns="http://www.w3.org/2000/svg">
<path d="M9.06317 35.4763C7.58617 29.9641 8.3229 24.1006 11.1113 19.1759C13.8997 14.2512 18.5113 10.6686 23.9317 9.21617C29.352 7.76378 35.1371 8.56061 40.0143 11.4314C44.8915 14.3021 48.4612 19.0116 49.9382 24.5239C51.4152 30.0361 50.6785 35.8995 47.8901 40.8243C45.1017 45.749 40.4901 49.3316 35.0697 50.784C29.6494 52.2364 23.8643 51.4395 18.9871 48.5688C14.1099 45.698 10.5402 40.9885 9.06317 35.4763ZM43.23 32.891C43.3725 31.8261 42.1817 31.2141 41.2824 31.7857C38.3784 33.6254 34.9497 35.1358 31.1736 36.1476C27.3974 37.1595 23.673 37.5657 20.2381 37.4245C19.1735 37.3791 18.4483 38.5045 19.1041 39.3555C22.3857 43.6189 27.9326 45.7351 33.3533 44.2826C38.7741 42.8301 42.5278 38.2219 43.23 32.891ZM18.8781 21.0122C18.6306 21.0785 18.4462 21.2846 18.4033 21.5397L17.833 24.712L14.9 25.9329C14.6613 26.0317 14.5074 26.2557 14.4928 26.5206C14.4782 26.7856 14.6197 27.0261 14.841 27.1496L17.6449 28.7042L17.9083 31.9228C17.9257 32.1792 18.0969 32.4031 18.3356 32.4958C18.5744 32.5884 18.8422 32.5341 19.0273 32.3626L21.3254 30.1458L24.4219 30.9085C24.6701 30.9725 24.9292 30.8857 25.0874 30.6779C25.2457 30.4702 25.2762 30.201 25.171 29.9681L23.7899 27.049L25.4408 24.3007C25.5707 24.0831 25.573 23.8041 25.4279 23.5819C25.2828 23.3597 25.0375 23.2427 24.7813 23.2765L21.6309 23.6856L19.5508 21.2235C19.3861 21.024 19.1234 20.9378 18.8759 21.0041L18.8781 21.0122ZM34.2062 16.905C33.9587 16.9714 33.7743 17.1774 33.7315 17.4325L33.1611 20.6048L30.2282 21.8258C29.9894 21.9246 29.8355 22.1485 29.8209 22.4135C29.8064 22.6784 29.9478 22.919 30.1691 23.0424L32.973 24.597L33.2365 27.8157C33.2538 28.0721 33.425 28.2959 33.6638 28.3886C33.9025 28.4812 34.1703 28.4269 34.3554 28.2555L36.6535 26.0386L39.75 26.8013C39.9982 26.8653 40.2573 26.7785 40.4156 26.5708C40.5738 26.363 40.6044 26.0938 40.4992 25.8609L39.118 22.9418L40.7689 20.1935C40.8989 19.976 40.9011 19.6969 40.756 19.4747C40.6109 19.2526 40.3656 19.1355 40.1095 19.1694L36.959 19.5785L34.8789 17.1164C34.7142 16.9169 34.4515 16.8306 34.204 16.8969L34.2062 16.905Z" fill="#E60062"/>
</svg>
