<svg width="60" height="60" viewBox="0 0 60 60" fill="none" xmlns="http://www.w3.org/2000/svg">
<g clip-path="url(#clip0_773_7034)">
<mask id="mask0_773_7034" style="mask-type:luminance" maskUnits="userSpaceOnUse" x="0" y="0" width="60" height="60">
<path d="M0 0H60V60H0V0Z" fill="white"/>
</mask>
<g mask="url(#mask0_773_7034)">
<path d="M8.24022 51.5053L24.1502 35.5953M44.1852 28.5203L39.4227 42.8078C39.3467 43.0368 39.2166 43.2442 39.0434 43.4121C38.8701 43.5801 38.659 43.7039 38.4277 43.7728L9.23272 52.4503C8.96969 52.5284 8.69028 52.5329 8.42489 52.4633C8.1595 52.3936 7.9183 52.2525 7.72753 52.0553C7.53677 51.8581 7.40375 51.6123 7.34295 51.3448C7.28215 51.0772 7.29591 50.7981 7.38272 50.5378L16.8627 22.1028C16.9307 21.8987 17.0417 21.7115 17.1884 21.5541C17.3351 21.3966 17.5139 21.2726 17.7127 21.1903L31.1802 15.6453C31.454 15.5322 31.7552 15.5028 32.0457 15.5606C32.3362 15.6184 32.6031 15.761 32.8127 15.9703L43.8227 26.9828C44.0202 27.18 44.1587 27.4284 44.2228 27.7C44.2868 27.9716 44.2738 28.2557 44.1852 28.5203Z" stroke="#F8F8F8" stroke-width="3" stroke-linecap="round" stroke-linejoin="round"/>
<path d="M44.4798 27.6402L51.5499 20.5677C52.4872 19.6301 53.0138 18.3585 53.0138 17.0327C53.0138 15.7069 52.4872 14.4354 51.5499 13.4977L46.2498 8.19272C45.7855 7.72821 45.2342 7.35974 44.6275 7.10834C44.0207 6.85694 43.3704 6.72754 42.7136 6.72754C42.0568 6.72754 41.4065 6.85694 40.7997 7.10834C40.193 7.35974 39.6417 7.72821 39.1773 8.19272L32.1073 15.2652M29.4523 30.2902C29.104 29.9421 28.6905 29.6659 28.2355 29.4775C27.7804 29.2892 27.2927 29.1923 26.8002 29.1924C26.3077 29.1925 25.8201 29.2896 25.3651 29.4782C24.9101 29.6668 24.4968 29.9431 24.1486 30.2915C23.8004 30.6398 23.5243 31.0533 23.3359 31.5084C23.1476 31.9634 23.0507 32.4511 23.0508 32.9436C23.0509 33.4361 23.148 33.9238 23.3366 34.3787C23.5252 34.8337 23.8015 35.2471 24.1498 35.5952C24.8533 36.2984 25.8073 36.6933 26.802 36.693C27.7966 36.6928 28.7504 36.2975 29.4536 35.594C30.1568 34.8905 30.5516 33.9365 30.5514 32.9418C30.5512 31.9472 30.1558 30.9934 29.4523 30.2902Z" stroke="#F8F8F8" stroke-width="3" stroke-linecap="round" stroke-linejoin="round"/>
</g>
</g>
<defs>
<clipPath id="clip0_773_7034">
<rect width="60" height="60" fill="white"/>
</clipPath>
</defs>
</svg>
