<svg width="100" height="100" viewBox="0 0 100 100" fill="none" xmlns="http://www.w3.org/2000/svg">
<g clip-path="url(#clip0_859_3886)">
<path d="M74.998 21.636C74.998 23.098 76.4613 24.56 78.5068 24.56C81.4294 24.56 82.3066 23.3904 82.3066 21.636C82.3066 21.3436 82.3066 21.3436 82.3066 21.0525C82.0155 20.1753 81.137 19.5906 80.2624 19.0058C79.9687 19.0058 79.3853 18.7134 78.8018 18.7134C76.7524 18.7147 74.998 19.883 74.998 21.636Z" fill="#E60062"/>
<path d="M81.1396 11.9868C80.8446 10.2325 79.6763 8.77051 78.2156 8.77051C76.7524 8.77051 75.8752 10.2325 76.1702 11.9868C76.4652 13.7412 77.6309 15.2032 79.0928 15.2032C80.2624 15.2032 81.4307 13.7412 81.1396 11.9868Z" fill="#E60062"/>
<path d="M67.9811 33.9164L72.9518 28.9457C75.8744 31.2848 79.3871 32.7468 83.1869 32.7468C92.2498 32.7468 99.5609 25.4357 99.5609 16.3728C99.5583 7.30854 92.2498 0 83.1856 0C74.124 0 66.8115 7.30985 66.8115 16.3741C66.8115 20.4676 68.2722 23.975 70.6126 26.6078L65.6406 31.5798C66.5178 32.4557 67.395 33.3342 67.9811 33.9164ZM85.8171 11.1097H89.0321V7.89463H90.2017V11.111H93.4193V12.2805H90.2017V15.4982H89.0321V12.2792H85.8171V11.1097ZM78.5073 16.6651C78.5073 16.3728 78.5073 16.0804 78.8023 15.788C78.5073 15.788 78.5073 15.788 78.2188 15.788C75.8783 15.788 74.124 14.0336 74.124 11.9868C74.124 9.94009 76.4618 8.18572 78.8023 8.18572H84.0627L82.8932 9.0629H81.1388C82.3084 9.3566 82.8932 10.8186 82.8932 12.2792C82.8932 13.4488 82.3084 14.326 81.4299 15.2032C80.5527 15.788 80.2603 16.0804 80.2603 16.6651C80.2603 17.2499 81.1388 18.1271 81.7223 18.4195C83.183 19.2967 83.4767 20.4663 83.4767 21.9282C83.4767 23.9737 81.7223 25.7294 78.2149 25.7294C75.2922 25.7294 72.6594 24.5598 72.6594 22.513C72.6594 20.4663 74.9972 18.7119 77.9212 18.7119C78.2149 18.7119 78.5047 18.7119 78.7984 18.7119C78.7984 17.836 78.5073 17.2512 78.5073 16.6651Z" fill="#E60062"/>
<path d="M83.1868 67.2505C79.387 67.2505 75.5858 68.7111 72.9517 71.0516L67.9823 66.0796C67.3962 66.9568 66.519 67.5389 65.9355 68.1237L70.9075 73.0957C68.5684 76.0171 67.1064 79.5297 67.1064 83.3308C67.1064 92.3937 74.4189 99.7049 83.4818 99.7049C92.5434 99.7049 99.8571 92.3937 99.8571 83.3308C99.5595 74.2666 92.251 67.2505 83.1868 67.2505ZM78.5085 90.9344H75.2921V80.6993H78.5085V90.9344ZM77.0465 79.2399C75.8769 79.2399 75.0011 78.3614 75.0011 77.4829C75.0011 76.6058 75.8782 75.7286 77.0465 75.7286C78.2148 75.7286 79.092 76.6058 79.092 77.4829C78.7996 78.6538 78.2161 79.2399 77.0465 79.2399ZM91.6662 90.9344H87.8651V85.6726C87.8651 84.2119 87.2816 83.3334 86.1094 83.3334C85.2322 83.3334 84.6488 83.9182 84.3551 84.503C84.3551 84.7993 84.3551 85.0891 84.3551 85.3815V90.9383H80.8463C80.8463 90.9383 80.8463 81.5817 80.8463 80.7032H84.3551V82.1652C84.6488 81.5817 85.8183 80.4108 87.5727 80.4108C89.9105 80.4108 91.6662 81.8715 91.6662 85.0891V90.9344Z" fill="#E60062"/>
<path d="M31.725 66.0825L26.7543 71.0545C23.8304 68.7141 20.3217 67.2534 16.5205 67.2534C7.45633 67.2534 0.146484 74.5659 0.146484 83.6262C0.146484 92.6904 7.45633 100.002 16.5205 100.002C25.5834 100.002 32.8946 92.6904 32.8946 83.6262C32.8946 79.825 31.4326 76.0252 29.0935 73.3924L34.0642 68.4204C33.187 67.5419 32.3098 66.6634 31.725 66.0825ZM23.5393 80.9933C23.5393 85.964 19.7382 91.5182 13.0131 91.5182C10.9677 91.5182 8.9196 90.9334 7.45763 89.7612C7.75003 89.7612 8.04242 89.7612 8.33482 89.7612C10.0892 89.7612 11.5511 89.1777 13.0131 88.3005C11.5511 88.3005 10.0892 87.131 9.50439 85.6677C9.79679 85.6677 10.0879 85.6677 10.0879 85.6677C10.3816 85.6677 10.6727 85.6677 10.9664 85.6677C9.21069 85.3727 8.04242 83.9133 8.04242 82.159C8.62721 82.4527 9.212 82.7424 9.79679 82.7424C8.9196 82.159 8.04242 80.9881 8.04242 79.8185C8.04242 79.2363 8.33482 78.6489 8.62721 78.0641C10.3816 80.4046 13.0118 81.8653 16.2281 81.8653C16.2281 81.5703 16.2281 81.2818 16.2281 80.9881C16.2281 78.9413 17.9838 77.187 20.0293 77.187C21.1988 77.187 22.076 77.7704 22.6621 78.3565C23.5393 78.0628 24.4165 77.7717 25.0013 77.4794C24.7076 78.3565 24.1228 78.94 23.2456 79.5235C24.1228 79.5235 24.7076 79.2298 25.2924 78.94C24.7076 79.8172 24.1228 80.4007 23.538 80.6944C23.5393 80.6996 23.5393 80.6996 23.5393 80.9933Z" fill="#E60062"/>
<path d="M16.5205 32.7479C20.3217 32.7479 24.1215 31.2859 26.7543 28.9467L31.725 33.9174C32.3098 33.0403 33.187 32.4568 33.7718 31.872L28.7998 26.9013C31.1389 23.9774 32.6009 20.4686 32.6009 16.6675C32.6009 7.6033 25.291 0.293457 16.2268 0.293457C7.16394 0.293457 0.146484 7.6033 0.146484 16.6675C0.146484 25.4367 7.45633 32.7479 16.5205 32.7479ZM12.7194 13.741H14.4738V11.9866C14.4738 9.64745 15.351 8.18548 18.2749 8.18548H20.6141V11.1094H19.1521C17.9825 11.1094 17.9825 11.4018 17.9825 12.279V13.741H20.6141L20.3217 16.6649H17.6875V24.8519H14.1788V16.6649H12.4257V13.741H12.7194Z" fill="#E60062"/>
<path d="M64.7659 58.185C64.4709 57.6029 63.8874 57.3065 63.5963 57.3065C60.9648 56.4294 58.6269 55.8472 55.9954 54.9687C55.703 54.9687 55.1182 54.3852 55.1182 53.2143C55.1182 52.6282 55.1182 52.3359 54.5347 52.3359C54.2397 52.3359 54.5347 52.3358 54.2397 52.0435C53.9486 50.8739 53.9486 50.2878 53.9486 49.9967C53.9486 49.7056 54.2397 49.703 54.2397 49.4119C55.1182 48.2423 55.4093 46.4893 55.4093 45.9032C55.4093 45.9032 55.703 45.9032 55.703 45.6095C55.9954 45.0247 55.9954 45.0247 55.9954 44.1462C56.2904 43.564 56.2904 42.6869 55.703 42.6869C55.4093 42.9792 55.4093 42.6869 55.4093 42.1021V38.5933C55.4093 37.4238 54.5308 36.5479 53.9486 36.2555C53.0688 35.6694 52.779 35.377 52.4853 35.377C52.1916 35.0846 52.1916 34.7922 52.4853 34.4998C52.7777 34.2087 53.0688 34.2087 53.0688 33.915C53.0688 33.915 53.0688 33.915 52.7751 33.915C52.4814 33.915 50.7297 34.21 49.8525 34.4998C48.3905 34.7922 46.9286 35.377 45.7577 36.2555C44.8805 36.839 44.2957 37.7162 44.2957 38.8883C44.2957 39.4705 44.2957 41.2262 44.2957 42.3971C44.2957 42.6921 44.2957 42.9819 44.0033 42.6921C43.1261 42.6921 43.7109 43.8617 43.7109 44.1514C43.7109 44.7362 44.0033 45.0299 44.2944 45.6147C44.2944 45.9084 44.5881 45.9084 44.5881 45.9084C44.8805 46.7856 45.1729 48.54 45.7577 49.4171C45.7577 49.4171 46.0514 49.7108 46.0514 50.0019C46.0514 50.5867 46.0514 51.4639 45.7577 52.0487C45.7577 52.0487 45.7577 52.3424 45.4653 52.3424C44.8805 52.3424 44.8805 52.6348 44.8805 53.2196C44.8805 54.0967 44.2957 54.9752 44.0033 54.9752C42.5413 55.5574 38.1567 57.0207 36.6935 57.3131C35.8163 57.6081 35.5239 57.8979 35.2315 58.1903L33.7695 61.699C39.6161 61.699 42.5413 65.2077 48.6816 66.3773H51.6056C57.7458 65.5001 62.1304 61.699 66.2252 61.699L64.7659 58.185Z" fill="#E60062"/>
</g>
<defs>
<clipPath id="clip0_859_3886">
<rect width="100" height="100" fill="white"/>
</clipPath>
</defs>
</svg>
